<svg width="83" height="72" viewBox="0 0 83 72" fill="none" xmlns="http://www.w3.org/2000/svg">
<path fill-rule="evenodd" clip-rule="evenodd" d="M77.6466 34.0762C80.6197 30.4733 82.408 25.8401 82.408 20.7854C82.408 9.30596 73.1842 0 61.806 0C52.2381 0 44.1936 6.58034 41.876 15.5H40.532C38.2144 6.58034 30.1699 0 20.602 0C9.22383 0 0 9.30596 0 20.7854C0 25.9433 1.8621 30.6624 4.94505 34.2957L4.94441 34.296L4.95229 34.3042C5.5128 34.964 6.11359 35.588 6.75083 36.1723L41.2448 72L75.7443 36.092C76.3308 35.548 76.886 34.9701 77.4069 34.3615L77.6695 34.0881L77.6466 34.0762Z" fill="#D85858"/>
</svg>
