<svg width="411" height="28" viewBox="0 0 411 28" fill="none" xmlns="http://www.w3.org/2000/svg">
<path fill-rule="evenodd" clip-rule="evenodd" d="M410.861 25.3496C410.835 24.7306 410.851 24.1346 410.9 23.5157C409 23.2865 407.99 23.5157 406 23.5157C405.172 23.4469 366.795 23.2937 349.5 23.5C340.36 23.5917 330.038 24.0719 320.894 24.0948C300.21 24.1636 279.171 23.8209 258.501 23.5C217.138 22.8811 176.138 23.1235 134.778 23.0089C90.3721 22.8713 1.50476 23.3842 1.42847 23.3842C1.39345 23.3842 1.24211 23.3384 1.00073 23.3155C1.0001 24.5001 0.946781 25.7393 1.00056 27.0001C1.01057 27.2293 1.01182 27.4814 1.01057 27.7107C1.93358 27.7565 3.24323 27.7396 3.85858 27.7167C34.6884 27.2582 65.5144 27.5705 96.3492 27.2725C123.695 26.9975 151.051 26.9058 178.396 27.135C198.028 27.2954 220.87 27.2708 240.501 27.5C267.894 27.8439 291.536 27.0083 319.001 27.5001C334.906 27.523 351.596 27.5917 367.5 27.5C378.666 27.4542 405.49 27.2292 405.99 27.2292C407.682 27.2292 409.517 26.9083 411 27C410.932 26.4499 410.885 25.8997 410.861 25.3496Z" fill="#D85858"/>
<path fill-rule="evenodd" clip-rule="evenodd" d="M410.861 13.8496C410.835 13.2306 410.851 12.6346 410.9 12.0157C409.448 12.0845 407.955 12.0616 406.404 11.9011C405.576 11.8323 365.622 12.3011 348.327 12.5074C339.187 12.5991 330.037 13.0719 320.893 13.0948C300.209 13.1636 279.515 12.7825 258.845 12.4616C217.481 11.8427 175.789 11.4759 134.429 11.3613C90.0229 11.2238 1.50403 11.3842 1.42774 11.3842C1.39272 11.3613 1.24139 11.3384 1 11.3155C1 12.5 1.09373 12.4965 1.14751 13.7344C1.15752 13.9865 1.1486 15.4874 1.14735 15.7167C2.07036 15.7625 3.24251 15.7396 3.85785 15.7167C34.6876 15.2582 65.1652 15.923 96 15.625C123.345 15.3499 150.702 15.2582 178.047 15.4874C197.678 15.6479 217.642 15.3957 237.273 15.625C264.665 15.9688 292.067 15.923 319.465 15.9917C335.37 16.0146 351.274 15.9917 367.178 15.9C378.344 15.8542 406.038 15.6605 406.394 15.6146C407.982 15.4542 409.517 15.4083 411 15.5C410.932 14.9499 410.885 14.3997 410.861 13.8496Z" fill="#D85858"/>
<path fill-rule="evenodd" clip-rule="evenodd" d="M410.861 2.96597C410.835 2.34705 410.851 1.75106 410.9 1.13214C409.448 1.20091 407.954 1.17798 406.403 1.01752C405.575 0.948756 365.795 1.3968 348.5 1.60311C339.36 1.6948 330.072 1.58019 320.928 1.60311C300.244 1.67188 279.515 1.78259 258.844 1.46167C217.481 0.842757 176.359 1.11469 135 1.00008C90.5938 0.862545 1.57629 0.500081 1.5 0.500081C1.46498 0.477158 1.24139 0.523003 1 0.500081C1.27766 1.66915 1.13818 2.89649 1.19196 4.13433C1.20197 4.38648 1.19322 4.77085 1.19196 5.00008C2.11498 5.04593 4.88465 5.023 5.5 5.00008C36.3298 4.54162 76.6652 4.43305 107.5 4.13505C135 4.27002 151.05 3.90582 178.396 4.13505C198.027 4.29551 217.641 4.39581 237.272 4.62504C264.665 4.96888 292.102 5.43124 319.5 5.5C335.405 5.52293 351.596 5.59169 367.5 5.5C378.666 5.45415 404.677 5.11642 406 5.00008C407.607 5.00008 409 4.73103 411 4.61642C410.932 4.06627 410.885 3.51612 410.861 2.96597Z" fill="#D85858"/>
</svg>
