<svg width="1504" height="864" viewBox="0 0 1504 864" fill="none" xmlns="http://www.w3.org/2000/svg">
<g clip-path="url(#clip0_64_188)">
<path fill-rule="evenodd" clip-rule="evenodd" d="M78.8195 781.437C75.3365 785.1 72.3645 789.354 68.5205 793.283C70.4575 794.528 80.4915 787.004 83.7565 783.136C86.6085 779.757 90.3935 777.136 93.9055 774.356C97.2055 771.745 100.684 769.359 104.09 766.883C105.915 765.557 107.718 764.199 109.592 762.945C112.671 760.884 115.42 758.437 118.246 756.056C121.386 753.411 124.208 750.579 126.123 746.968C126.798 745.696 127.179 744.133 127.221 742.689C127.315 739.457 124.157 736.618 121.109 737.327C117.77 738.104 114.484 739.312 112.037 741.882C107.436 746.713 102.704 751.409 98.6355 756.752C93.3045 763.755 87.6255 770.492 82.0995 777.347C81.0025 778.708 80.0205 780.176 78.8195 781.437Z" fill="#D85858"/>
<path fill-rule="evenodd" clip-rule="evenodd" d="M124.331 773.031C125.866 771.209 125.895 769.46 124.913 767.431C123.98 765.502 122.353 764.708 120.42 764.795C118.354 764.887 116.191 765.061 114.272 765.757C109.826 767.372 105.422 769.048 101.637 772.153C97.6766 775.401 93.2986 778.135 89.1736 781.187C85.8666 783.635 82.6526 786.211 79.4226 788.76C78.5406 789.457 75.9126 792.098 74.9746 792.947C76.5016 795.228 90.6416 786.542 96.3766 785.067C103.104 783.336 109.963 781.96 116.209 778.752C119.163 777.235 122.106 775.671 124.331 773.031Z" fill="#D85858"/>
<path fill-rule="evenodd" clip-rule="evenodd" d="M69.0006 790.125C69.8506 789.188 72.4916 786.561 73.1876 785.678C75.7376 782.447 78.3126 779.234 80.7606 775.927C83.8136 771.802 86.5466 767.424 89.7956 763.464C92.9006 759.678 94.5756 755.275 96.1906 750.829C96.8876 748.911 97.0606 746.747 97.1536 744.681C97.2396 742.748 96.4456 741.121 94.5176 740.187C92.4876 739.206 90.7386 739.235 88.9176 740.77C86.2766 742.995 84.7126 745.938 83.1956 748.892C79.9876 755.137 78.6116 761.998 76.8806 768.724C75.4056 774.458 66.7196 788.599 69.0006 790.125Z" fill="#D85858"/>
<path fill-rule="evenodd" clip-rule="evenodd" d="M73.2206 741.426C71.7486 742.094 70.5746 743.203 69.8546 744.669C68.5506 747.326 68.3126 750.22 67.9236 753.112C67.5416 755.962 68.0286 776.925 69.0596 777.25C71.5056 771.338 75.0896 764.281 77.5176 758.151C79.2656 753.738 79.2786 749.164 78.1676 744.582C77.6866 742.603 74.7846 740.716 73.2206 741.426Z" fill="#D85858"/>
<path fill-rule="evenodd" clip-rule="evenodd" d="M104.056 784.689C97.926 787.117 90.869 790.701 84.957 793.147C85.282 794.178 106.245 794.666 109.095 794.283C111.987 793.894 114.881 793.656 117.538 792.352C119.005 791.632 120.113 790.458 120.781 788.986C121.491 787.422 119.605 784.52 117.625 784.04C113.043 782.928 108.469 782.941 104.056 784.689Z" fill="#D85858"/>
<path fill-rule="evenodd" clip-rule="evenodd" d="M166.421 818.22C168.017 817.875 169.376 817.002 170.379 815.735C171.445 814.388 170.314 811.117 168.508 810.173C164.329 807.991 159.886 806.901 155.183 807.534C148.649 808.413 140.935 810.19 134.608 811.14C134.675 812.219 154.902 817.744 157.761 818.059C160.661 818.379 163.528 818.845 166.421 818.22Z" fill="#D85858"/>
<path fill-rule="evenodd" clip-rule="evenodd" d="M55.1803 690.791C53.8333 689.725 50.5613 690.856 49.6183 692.662C47.4363 696.841 46.3463 701.283 46.9793 705.987C47.8583 712.521 49.6353 720.234 50.5853 726.562C51.6643 726.495 57.1893 706.267 57.5043 703.409C57.8243 700.508 58.2903 697.642 57.6653 694.749C57.3193 693.153 56.4473 691.793 55.1803 690.791Z" fill="#D85858"/>
<path fill-rule="evenodd" clip-rule="evenodd" d="M172.558 854.067C165.997 852.996 159.384 852.133 152.91 850.667C146.728 849.266 140.873 846.862 135.277 843.729C129.322 840.395 123.855 836.478 118.704 832.042C115.981 829.697 113.014 827.631 110.338 825.237C108.112 823.247 106.217 820.893 104.057 818.823C100.859 815.759 97.6206 812.73 94.2656 809.843C92.9986 808.752 91.3576 808.096 89.9566 807.029C92.7496 807.166 95.4396 807.593 98.1076 808.396C102.898 809.839 107.046 812.453 111.328 814.924C114.431 816.715 117.294 818.871 120.384 820.588C124.76 823.02 128.412 826.282 132.291 829.315C134.233 830.834 136.456 831.991 138.515 833.365C141.437 835.316 144.251 837.437 147.246 839.266C150.884 841.487 154.66 843.483 158.382 845.567C159.95 846.445 161.495 847.377 163.115 848.148C167.207 850.094 171.336 851.962 175.943 854.089C174.574 854.089 173.542 854.228 172.558 854.067ZM97.5746 824.03C98.7066 825.745 99.5296 827.643 100.625 829.38C101.441 830.674 102.374 831.894 103.187 833.188C104.508 835.291 105.698 837.479 107.085 839.535C108.459 841.575 109.943 843.549 111.5 845.455C112.902 847.171 114.461 848.761 115.963 850.396C118.314 852.958 120.674 855.511 123.279 858.337C120.727 858.194 118.579 857.417 116.571 856.251C113.704 854.584 110.631 853.224 108.287 850.76C107.532 849.966 106.668 849.27 105.959 848.44C103.111 845.108 100.502 841.601 98.6116 837.623C95.2576 830.562 91.1466 823.938 87.0296 817.314C85.3736 814.648 83.7856 811.941 81.9946 808.967C84.2676 809.563 86.2106 810.531 87.6106 811.926C91.3906 815.691 94.6216 819.555 97.5746 824.03ZM67.3556 815.442C72.4556 818.62 74.5246 823.908 77.0926 828.878C78.5356 831.671 79.9746 834.471 81.5426 837.195C83.1946 840.067 85.0306 842.833 86.7256 845.681C88.5666 848.774 90.9356 851.437 93.3736 854.047C94.5236 855.278 95.7336 856.454 97.3466 858.09C96.6006 857.333 93.8146 857.384 92.7606 857.077C91.5496 856.724 90.5796 856.194 89.4936 855.586C87.1506 854.274 84.5156 852.988 83.0196 850.655C80.4426 846.635 77.2626 842.983 75.5126 838.435C73.6136 833.499 70.2736 829.24 68.4566 824.199C66.5536 818.919 65.4666 817.166 61.6436 813.433C63.6876 813.749 65.5656 814.326 67.3556 815.442ZM39.0246 794.767C33.9836 792.95 29.7246 789.609 24.7886 787.71C20.2406 785.96 16.5886 782.78 12.5676 780.204C10.2346 778.708 8.94962 776.072 7.63762 773.729C7.02862 772.644 6.49962 771.673 6.14662 770.463C5.83862 769.409 5.88962 766.622 5.13262 765.876C6.76962 767.489 7.94462 768.7 9.17662 769.85C11.7866 772.288 14.4496 774.657 17.5426 776.498C20.3906 778.193 23.1566 780.028 26.0286 781.681C28.7526 783.248 31.5516 784.687 34.3446 786.13C39.3156 788.698 44.6036 790.768 47.7816 795.867C48.8966 797.657 49.4736 799.536 49.7906 801.58C46.0576 797.757 44.3036 796.669 39.0246 794.767ZM53.3796 768.958C50.4926 765.602 47.4636 762.364 44.4006 759.166C42.3306 757.006 39.9766 755.111 37.9856 752.886C35.5916 750.209 33.5256 747.242 31.1806 744.519C26.7456 739.369 22.8276 733.902 19.4936 727.947C16.3606 722.351 13.9566 716.495 12.5566 710.313C11.0896 703.839 10.2276 697.227 9.15562 690.666C8.99562 689.682 9.13362 688.649 9.13362 687.28C11.2606 691.888 13.1296 696.017 15.0756 700.109C15.8456 701.729 16.7776 703.273 17.6556 704.841C19.7396 708.563 21.7366 712.339 23.9576 715.978C25.7856 718.972 27.9076 721.787 29.8576 724.708C31.2326 726.768 32.3886 728.99 33.9076 730.933C36.9406 734.812 40.2036 738.464 42.6356 742.84C44.3526 745.93 46.5076 748.792 48.2986 751.895C50.7706 756.178 53.3836 760.326 54.8266 765.116C55.6306 767.784 56.0566 770.474 56.1936 773.266C55.1276 771.866 54.4706 770.225 53.3796 768.958ZM45.9096 776.194C39.2846 772.077 32.6606 767.966 25.6006 764.611C21.6226 762.722 18.1146 760.112 14.7826 757.265C13.9526 756.555 13.2566 755.691 12.4626 754.936C9.99962 752.592 8.63862 749.52 6.97262 746.652C5.80562 744.645 5.02862 742.497 4.88562 739.944C7.71262 742.55 10.2656 744.91 12.8266 747.261C14.4626 748.762 16.0516 750.322 17.7686 751.724C19.6736 753.28 21.6486 754.764 23.6876 756.139C25.7446 757.525 27.9326 758.716 30.0346 760.037C31.3296 760.85 32.5486 761.783 33.8426 762.599C35.5796 763.694 37.4786 764.517 39.1926 765.648C43.6686 768.602 47.5326 771.833 51.2966 775.612C52.6926 777.013 53.6606 778.956 54.2556 781.228C51.2826 779.437 48.5746 777.85 45.9096 776.194ZM161.63 844.729C156.6 842.029 151.485 839.605 146.78 836.189C140.428 831.577 134.486 826.566 128.861 821.157C124.728 817.183 120.411 813.424 115.685 810.23C111.168 807.177 106.48 804.362 101.285 802.436C97.4156 801.001 93.4026 800.123 89.4126 799.644C85.0226 799.117 80.5056 799.577 76.0476 799.712C71.1876 799.859 67.0256 802.298 62.6746 804.057C60.8606 804.789 59.1226 805.774 57.4746 806.837C56.1886 807.667 54.9426 808.55 53.7406 809.483C54.6736 808.281 55.5556 807.035 56.3856 805.749C57.4486 804.101 58.4336 802.362 59.1666 800.549C60.9246 796.197 63.3636 792.036 63.5106 787.175C63.6466 782.717 64.1056 778.201 63.5786 773.811C63.0996 769.82 62.2216 765.808 60.7876 761.938C58.8606 756.744 56.0456 752.056 52.9926 747.539C49.7986 742.812 46.0406 738.496 42.0666 734.362C36.6576 728.737 31.6466 722.796 27.0336 716.443C23.6176 711.738 21.1946 706.623 18.4946 701.594C17.2036 699.19 15.7886 696.834 14.7236 694.331C11.2636 686.201 11.2096 675.668 6.68162 668.35C5.33362 670.081 5.51862 671.696 5.23962 673.884C4.97062 675.999 5.00562 678.15 4.77262 680.27C3.91162 688.086 4.40162 695.848 5.23962 703.644C5.93462 710.105 8.14762 715.932 11.0426 721.66C20.0516 739.489 35.1986 751.656 47.8986 766.336C40.6506 760.651 27.5816 755.817 23.4046 753.355C20.1156 751.416 17.5516 748.637 14.6286 746.277C14.2956 746.008 14.0286 745.651 13.6796 745.41C9.81462 742.732 6.97262 739.083 4.14662 735.416C3.30762 734.328 2.40662 733.322 0.802618 732.925C0.556618 733.603 0.164618 734.209 0.141618 734.83C0.0276177 737.799 -0.207382 740.787 1.10262 743.619C1.64062 744.783 2.07762 746.003 2.46162 747.232C7.75562 764.182 29.1586 770.486 43.4526 777.457C47.0736 779.223 50.5016 781.334 53.6856 783.819C53.8816 783.972 54.1026 784.163 54.1836 784.383C55.2236 787.184 56.8436 789.867 55.4536 793.071C54.4776 795.322 53.7246 797.669 52.8716 799.974C52.6606 799.968 52.4506 799.962 52.2406 799.957C51.8206 798.812 51.4626 797.639 50.9696 796.526C47.8346 789.44 39.3076 786.174 32.9016 782.775C29.1276 780.772 25.1766 779.109 21.6426 776.64C19.4816 775.131 17.1176 773.916 14.8686 772.531C11.6866 770.572 9.29762 767.723 6.82962 765.015C5.71562 763.792 5.18062 762.043 4.37762 760.537C3.97562 759.784 3.64762 758.966 3.11762 758.315C2.74462 757.856 2.08762 757.628 1.55662 757.297C1.27462 757.781 0.917618 758.237 0.723618 758.754C-0.498382 762.021 0.108618 765.35 0.515618 768.649C0.745618 770.515 1.21062 772.354 1.60362 774.198C2.36162 777.758 6.63462 781.964 9.49362 784.104C12.9126 786.665 16.3776 789.163 20.5036 790.572C29.6126 793.684 42.5176 795.407 48.2586 803.764C48.5496 804.187 48.7966 804.642 49.2846 805.449C42.8836 813.19 36.0026 820.015 26.0666 823.146C20.1336 825.016 13.1616 824.7 8.29662 820.823C3.43262 816.947 1.77962 808.999 5.86162 804.306C7.98562 801.864 11.6396 800.622 14.6136 801.898C17.5876 803.175 19.1646 807.281 17.3216 809.941C18.5796 807.804 15.6646 804.921 13.3916 805.914C11.1186 806.905 10.8396 810.481 12.6926 812.13C14.5456 813.778 17.6566 813.419 19.4456 811.703C22.6986 808.582 21.0546 802.405 16.9986 800.438C12.9426 798.471 7.80162 800.162 4.75662 803.486C-0.994382 809.766 0.910618 821.291 8.37762 825.386C11.0736 826.864 14.1886 827.424 17.2606 827.549C24.5296 827.845 30.4586 825.189 37.1396 822.944C40.2626 821.895 42.8066 819.892 45.3046 817.918C43.3316 820.417 41.3286 822.961 40.2786 826.083C38.0346 832.765 35.3786 838.694 35.6746 845.962C35.7996 849.035 36.3586 852.149 37.8376 854.846C41.9316 862.312 53.4576 864.218 59.7366 858.466C63.0616 855.421 64.7526 850.281 62.7856 846.225C60.8176 842.168 54.6416 840.524 51.5206 843.777C49.8036 845.566 49.4446 848.678 51.0936 850.531C52.7416 852.384 56.3176 852.104 57.3096 849.832C58.3016 847.559 55.4186 844.644 53.2816 845.901C55.9426 844.059 60.0486 845.636 61.3246 848.61C62.6016 851.583 61.3586 855.238 58.9176 857.362C54.2236 861.444 46.2766 859.79 42.3996 854.926C38.5226 850.062 38.2076 843.089 40.0766 837.157C43.2086 827.221 50.0326 820.339 57.7746 813.938C58.5806 814.427 59.0356 814.673 59.4596 814.964C67.8156 820.706 69.5396 833.61 72.6516 842.72C74.0606 846.845 76.5586 850.311 79.1186 853.729C81.2586 856.588 85.4646 860.861 89.0246 861.62C90.8686 862.013 92.7076 862.478 94.5746 862.708C97.8726 863.115 101.203 863.722 104.469 862.499C104.986 862.306 105.442 861.949 105.926 861.667C105.595 861.136 105.367 860.479 104.908 860.105C104.257 859.576 103.44 859.248 102.687 858.846C101.18 858.042 99.4306 857.508 98.2086 856.394C95.4996 853.926 92.6506 851.537 90.6926 848.355C89.3076 846.105 88.0916 843.742 86.5826 841.581C84.1136 838.046 82.4516 834.096 80.4476 830.321C77.0486 823.916 73.7826 815.389 66.6976 812.253C65.5836 811.76 64.4116 811.402 63.2666 810.983C63.2606 810.772 63.2546 810.562 63.2496 810.352C65.5536 809.499 67.9016 808.746 70.1516 807.77C73.3566 806.379 76.0396 807.999 78.8396 809.039C79.0606 809.121 79.2516 809.341 79.4046 809.537C81.8896 812.721 84.0006 816.15 85.7656 819.77C92.7366 834.064 99.0416 855.467 115.992 860.762C117.22 861.146 118.441 861.583 119.605 862.121C122.437 863.43 125.425 863.195 128.394 863.082C129.015 863.059 129.621 862.666 130.298 862.421C129.901 860.816 128.896 859.916 127.807 859.077C124.141 856.251 120.491 853.409 117.814 849.544C117.572 849.195 117.215 848.928 116.946 848.594C114.587 845.671 111.808 843.107 109.869 839.818C107.406 835.642 102.572 822.572 96.8876 815.325C111.567 828.025 123.734 843.171 141.564 852.181C147.292 855.076 153.118 857.289 159.58 857.983C167.376 858.821 175.137 859.312 182.953 858.451C185.073 858.217 187.225 858.252 189.339 857.983C191.527 857.705 193.143 857.89 194.873 856.541C187.555 852.014 177.022 851.959 168.892 848.499C166.39 847.434 164.033 846.02 161.63 844.729Z" fill="#D85858"/>
<path fill-rule="evenodd" clip-rule="evenodd" d="M200.089 810.127C196.915 806.114 193.271 802.34 189.286 799.144C186.131 796.613 182.316 794.653 178.495 793.259C171.176 790.588 163.691 788.521 155.716 788.546C145.717 788.578 136.541 791.183 128.4 796.836C124.897 799.269 121.497 801.855 118.143 804.503C118.889 806.004 134.837 799.032 144.3 797.293C158.599 794.666 172.16 795.492 185.068 803.306C191.786 807.373 197.46 812.135 201.829 818.562C202.078 818.927 202.334 819.29 202.553 819.677C208.115 829.604 198.904 843.796 187.69 835.962C185.187 834.214 183.4 830.986 184.384 828.097C185.369 825.207 189.927 824.006 191.58 826.573C192.544 828.071 192.193 830.471 191.609 832.039C195.796 831.299 194.87 825.884 191.864 823.96C188.425 821.76 182.985 823.408 181.377 827.138C178.278 834.325 183.276 842.509 191.057 842.599C196.084 842.658 200.578 840.987 203.78 836.767C205.355 834.692 206.145 832.168 206.355 829.473C206.889 822.624 203.68 814.666 200.089 810.127Z" fill="#D85858"/>
<path fill-rule="evenodd" clip-rule="evenodd" d="M36.4 676.036C40.129 674.428 41.777 668.988 39.577 665.549C37.653 662.543 32.237 661.617 31.498 665.804C33.066 665.22 35.466 664.869 36.964 665.833C39.53 667.486 38.33 672.044 35.44 673.029C32.551 674.014 29.323 672.226 27.575 669.723C19.741 658.508 33.933 649.298 43.859 654.86C44.247 655.079 44.609 655.335 44.975 655.583C51.402 659.954 56.165 665.627 60.232 672.346C68.045 685.253 68.871 698.814 66.244 713.113C64.505 722.576 57.533 738.524 59.034 739.27C61.682 735.916 64.268 732.516 66.701 729.013C72.354 720.872 74.959 711.696 74.991 701.697C75.016 693.722 72.949 686.237 70.278 678.918C68.884 675.097 66.924 671.282 64.393 668.127C61.196 664.142 57.422 660.498 53.41 657.324C48.87 653.732 40.913 650.524 34.065 651.058C31.369 651.268 28.845 652.058 26.77 653.633C22.55 656.835 20.879 661.329 20.938 666.356C21.028 674.137 29.212 679.135 36.4 676.036Z" fill="#D85858"/>
</g>
<g clip-path="url(#clip1_64_188)">
<path fill-rule="evenodd" clip-rule="evenodd" d="M1425.18 781.437C1428.66 785.1 1431.64 789.354 1435.48 793.283C1433.54 794.528 1423.51 787.004 1420.24 783.136C1417.39 779.757 1413.61 777.136 1410.09 774.356C1406.79 771.745 1403.32 769.359 1399.91 766.883C1398.09 765.557 1396.28 764.199 1394.41 762.945C1391.33 760.884 1388.58 758.437 1385.75 756.056C1382.61 753.411 1379.79 750.579 1377.88 746.968C1377.2 745.696 1376.82 744.133 1376.78 742.689C1376.69 739.457 1379.84 736.618 1382.89 737.327C1386.23 738.104 1389.52 739.312 1391.96 741.882C1396.56 746.713 1401.3 751.409 1405.36 756.752C1410.7 763.755 1416.37 770.492 1421.9 777.347C1423 778.708 1423.98 780.176 1425.18 781.437Z" fill="#D85858"/>
<path fill-rule="evenodd" clip-rule="evenodd" d="M1379.67 773.031C1378.13 771.209 1378.11 769.46 1379.09 767.431C1380.02 765.502 1381.65 764.708 1383.58 764.795C1385.65 764.887 1387.81 765.061 1389.73 765.757C1394.17 767.372 1398.58 769.048 1402.36 772.153C1406.32 775.401 1410.7 778.135 1414.83 781.187C1418.13 783.635 1421.35 786.211 1424.58 788.76C1425.46 789.457 1428.09 792.098 1429.03 792.947C1427.5 795.228 1413.36 786.542 1407.62 785.067C1400.9 783.336 1394.04 781.96 1387.79 778.752C1384.84 777.235 1381.89 775.671 1379.67 773.031Z" fill="#D85858"/>
<path fill-rule="evenodd" clip-rule="evenodd" d="M1435 790.125C1434.15 789.188 1431.51 786.561 1430.81 785.678C1428.26 782.447 1425.69 779.234 1423.24 775.927C1420.19 771.802 1417.45 767.424 1414.2 763.464C1411.1 759.678 1409.42 755.275 1407.81 750.829C1407.11 748.911 1406.94 746.747 1406.85 744.681C1406.76 742.748 1407.55 741.121 1409.48 740.187C1411.51 739.206 1413.26 739.235 1415.08 740.77C1417.72 742.995 1419.29 745.938 1420.8 748.892C1424.01 755.137 1425.39 761.998 1427.12 768.724C1428.59 774.458 1437.28 788.599 1435 790.125Z" fill="#D85858"/>
<path fill-rule="evenodd" clip-rule="evenodd" d="M1430.78 741.426C1432.25 742.094 1433.43 743.203 1434.15 744.669C1435.45 747.326 1435.69 750.22 1436.08 753.112C1436.46 755.962 1435.97 776.925 1434.94 777.25C1432.49 771.338 1428.91 764.281 1426.48 758.151C1424.73 753.738 1424.72 749.164 1425.83 744.582C1426.31 742.603 1429.22 740.716 1430.78 741.426Z" fill="#D85858"/>
<path fill-rule="evenodd" clip-rule="evenodd" d="M1399.94 784.689C1406.07 787.117 1413.13 790.701 1419.04 793.147C1418.72 794.178 1397.75 794.666 1394.9 794.283C1392.01 793.894 1389.12 793.656 1386.46 792.352C1384.99 791.632 1383.89 790.458 1383.22 788.986C1382.51 787.422 1384.39 784.52 1386.37 784.04C1390.96 782.928 1395.53 782.941 1399.94 784.689Z" fill="#D85858"/>
<path fill-rule="evenodd" clip-rule="evenodd" d="M1337.58 818.22C1335.98 817.875 1334.62 817.002 1333.62 815.735C1332.55 814.388 1333.69 811.117 1335.49 810.173C1339.67 807.991 1344.11 806.901 1348.82 807.534C1355.35 808.413 1363.06 810.19 1369.39 811.14C1369.32 812.219 1349.1 817.744 1346.24 818.059C1343.34 818.379 1340.47 818.845 1337.58 818.22Z" fill="#D85858"/>
<path fill-rule="evenodd" clip-rule="evenodd" d="M1448.82 690.791C1450.17 689.725 1453.44 690.856 1454.38 692.662C1456.56 696.841 1457.65 701.283 1457.02 705.987C1456.14 712.521 1454.36 720.234 1453.41 726.562C1452.34 726.495 1446.81 706.267 1446.5 703.409C1446.18 700.508 1445.71 697.642 1446.33 694.749C1446.68 693.153 1447.55 691.793 1448.82 690.791Z" fill="#D85858"/>
<path fill-rule="evenodd" clip-rule="evenodd" d="M1331.44 854.067C1338 852.996 1344.62 852.133 1351.09 850.667C1357.27 849.266 1363.13 846.862 1368.72 843.729C1374.68 840.395 1380.15 836.478 1385.3 832.042C1388.02 829.697 1390.99 827.631 1393.66 825.237C1395.89 823.247 1397.78 820.893 1399.94 818.823C1403.14 815.759 1406.38 812.73 1409.73 809.843C1411 808.752 1412.64 808.096 1414.04 807.029C1411.25 807.166 1408.56 807.593 1405.89 808.396C1401.1 809.839 1396.95 812.453 1392.67 814.924C1389.57 816.715 1386.71 818.871 1383.62 820.588C1379.24 823.02 1375.59 826.282 1371.71 829.315C1369.77 830.834 1367.54 831.991 1365.49 833.365C1362.56 835.316 1359.75 837.437 1356.75 839.266C1353.12 841.487 1349.34 843.483 1345.62 845.567C1344.05 846.445 1342.51 847.377 1340.89 848.148C1336.79 850.094 1332.66 851.962 1328.06 854.089C1329.43 854.089 1330.46 854.228 1331.44 854.067ZM1406.43 824.03C1405.29 825.745 1404.47 827.643 1403.38 829.38C1402.56 830.674 1401.63 831.894 1400.81 833.188C1399.49 835.291 1398.3 837.479 1396.92 839.535C1395.54 841.575 1394.06 843.549 1392.5 845.455C1391.1 847.171 1389.54 848.761 1388.04 850.396C1385.69 852.958 1383.33 855.511 1380.72 858.337C1383.27 858.194 1385.42 857.417 1387.43 856.251C1390.3 854.584 1393.37 853.224 1395.71 850.76C1396.47 849.966 1397.33 849.27 1398.04 848.44C1400.89 845.108 1403.5 841.601 1405.39 837.623C1408.74 830.562 1412.85 823.938 1416.97 817.314C1418.63 814.648 1420.21 811.941 1422.01 808.967C1419.73 809.563 1417.79 810.531 1416.39 811.926C1412.61 815.691 1409.38 819.555 1406.43 824.03ZM1436.64 815.442C1431.54 818.62 1429.48 823.908 1426.91 828.878C1425.46 831.671 1424.03 834.471 1422.46 837.195C1420.81 840.067 1418.97 842.833 1417.27 845.681C1415.43 848.774 1413.06 851.437 1410.63 854.047C1409.48 855.278 1408.27 856.454 1406.65 858.09C1407.4 857.333 1410.19 857.384 1411.24 857.077C1412.45 856.724 1413.42 856.194 1414.51 855.586C1416.85 854.274 1419.48 852.988 1420.98 850.655C1423.56 846.635 1426.74 842.983 1428.49 838.435C1430.39 833.499 1433.73 829.24 1435.54 824.199C1437.45 818.919 1438.53 817.166 1442.36 813.433C1440.31 813.749 1438.43 814.326 1436.64 815.442ZM1464.98 794.767C1470.02 792.95 1474.28 789.609 1479.21 787.71C1483.76 785.96 1487.41 782.78 1491.43 780.204C1493.77 778.708 1495.05 776.072 1496.36 773.729C1496.97 772.644 1497.5 771.673 1497.85 770.463C1498.16 769.409 1498.11 766.622 1498.87 765.876C1497.23 767.489 1496.06 768.7 1494.82 769.85C1492.21 772.288 1489.55 774.657 1486.46 776.498C1483.61 778.193 1480.84 780.028 1477.97 781.681C1475.25 783.248 1472.45 784.687 1469.66 786.13C1464.68 788.698 1459.4 790.768 1456.22 795.867C1455.1 797.657 1454.53 799.536 1454.21 801.58C1457.94 797.757 1459.7 796.669 1464.98 794.767ZM1450.62 768.958C1453.51 765.602 1456.54 762.364 1459.6 759.166C1461.67 757.006 1464.02 755.111 1466.01 752.886C1468.41 750.209 1470.47 747.242 1472.82 744.519C1477.25 739.369 1481.17 733.902 1484.51 727.947C1487.64 722.351 1490.04 716.495 1491.44 710.313C1492.91 703.839 1493.77 697.227 1494.84 690.666C1495 689.682 1494.87 688.649 1494.87 687.28C1492.74 691.888 1490.87 696.017 1488.92 700.109C1488.15 701.729 1487.22 703.273 1486.34 704.841C1484.26 708.563 1482.26 712.339 1480.04 715.978C1478.21 718.972 1476.09 721.787 1474.14 724.708C1472.77 726.768 1471.61 728.99 1470.09 730.933C1467.06 734.812 1463.8 738.464 1461.36 742.84C1459.65 745.93 1457.49 748.792 1455.7 751.895C1453.23 756.178 1450.62 760.326 1449.17 765.116C1448.37 767.784 1447.94 770.474 1447.81 773.266C1448.87 771.866 1449.53 770.225 1450.62 768.958ZM1458.09 776.194C1464.72 772.077 1471.34 767.966 1478.4 764.611C1482.38 762.722 1485.89 760.112 1489.22 757.265C1490.05 756.555 1490.74 755.691 1491.54 754.936C1494 752.592 1495.36 749.52 1497.03 746.652C1498.19 744.645 1498.97 742.497 1499.11 739.944C1496.29 742.55 1493.73 744.91 1491.17 747.261C1489.54 748.762 1487.95 750.322 1486.23 751.724C1484.33 753.28 1482.35 754.764 1480.31 756.139C1478.26 757.525 1476.07 758.716 1473.97 760.037C1472.67 760.85 1471.45 761.783 1470.16 762.599C1468.42 763.694 1466.52 764.517 1464.81 765.648C1460.33 768.602 1456.47 771.833 1452.7 775.612C1451.31 777.013 1450.34 778.956 1449.74 781.228C1452.72 779.437 1455.43 777.85 1458.09 776.194ZM1342.37 844.729C1347.4 842.029 1352.52 839.605 1357.22 836.189C1363.57 831.577 1369.51 826.566 1375.14 821.157C1379.27 817.183 1383.59 813.424 1388.32 810.23C1392.83 807.177 1397.52 804.362 1402.72 802.436C1406.58 801.001 1410.6 800.123 1414.59 799.644C1418.98 799.117 1423.49 799.577 1427.95 799.712C1432.81 799.859 1436.97 802.298 1441.33 804.057C1443.14 804.789 1444.88 805.774 1446.53 806.837C1447.81 807.667 1449.06 808.55 1450.26 809.483C1449.33 808.281 1448.44 807.035 1447.61 805.749C1446.55 804.101 1445.57 802.362 1444.83 800.549C1443.08 796.197 1440.64 792.036 1440.49 787.175C1440.35 782.717 1439.89 778.201 1440.42 773.811C1440.9 769.82 1441.78 765.808 1443.21 761.938C1445.14 756.744 1447.95 752.056 1451.01 747.539C1454.2 742.812 1457.96 738.496 1461.93 734.362C1467.34 728.737 1472.35 722.796 1476.97 716.443C1480.38 711.738 1482.81 706.623 1485.51 701.594C1486.8 699.19 1488.21 696.834 1489.28 694.331C1492.74 686.201 1492.79 675.668 1497.32 668.35C1498.67 670.081 1498.48 671.696 1498.76 673.884C1499.03 675.999 1498.99 678.15 1499.23 680.27C1500.09 688.086 1499.6 695.848 1498.76 703.644C1498.07 710.105 1495.85 715.932 1492.96 721.66C1483.95 739.489 1468.8 751.656 1456.1 766.336C1463.35 760.651 1476.42 755.817 1480.6 753.355C1483.88 751.416 1486.45 748.637 1489.37 746.277C1489.7 746.008 1489.97 745.651 1490.32 745.41C1494.19 742.732 1497.03 739.083 1499.85 735.416C1500.69 734.328 1501.59 733.322 1503.2 732.925C1503.44 733.603 1503.84 734.209 1503.86 734.83C1503.97 737.799 1504.21 740.787 1502.9 743.619C1502.36 744.783 1501.92 746.003 1501.54 747.232C1496.24 764.182 1474.84 770.486 1460.55 777.457C1456.93 779.223 1453.5 781.334 1450.31 783.819C1450.12 783.972 1449.9 784.163 1449.82 784.383C1448.78 787.184 1447.16 789.867 1448.55 793.071C1449.52 795.322 1450.28 797.669 1451.13 799.974C1451.34 799.968 1451.55 799.962 1451.76 799.957C1452.18 798.812 1452.54 797.639 1453.03 796.526C1456.17 789.44 1464.69 786.174 1471.1 782.775C1474.87 780.772 1478.82 779.109 1482.36 776.64C1484.52 775.131 1486.88 773.916 1489.13 772.531C1492.31 770.572 1494.7 767.723 1497.17 765.015C1498.28 763.792 1498.82 762.043 1499.62 760.537C1500.02 759.784 1500.35 758.966 1500.88 758.315C1501.26 757.856 1501.91 757.628 1502.44 757.297C1502.73 757.781 1503.08 758.237 1503.28 758.754C1504.5 762.021 1503.89 765.35 1503.48 768.649C1503.25 770.515 1502.79 772.354 1502.4 774.198C1501.64 777.758 1497.37 781.964 1494.51 784.104C1491.09 786.665 1487.62 789.163 1483.5 790.572C1474.39 793.684 1461.48 795.407 1455.74 803.764C1455.45 804.187 1455.2 804.642 1454.72 805.449C1461.12 813.19 1468 820.015 1477.93 823.146C1483.87 825.016 1490.84 824.7 1495.7 820.823C1500.57 816.947 1502.22 808.999 1498.14 804.306C1496.01 801.864 1492.36 800.622 1489.39 801.898C1486.41 803.175 1484.84 807.281 1486.68 809.941C1485.42 807.804 1488.34 804.921 1490.61 805.914C1492.88 806.905 1493.16 810.481 1491.31 812.13C1489.45 813.778 1486.34 813.419 1484.55 811.703C1481.3 808.582 1482.95 802.405 1487 800.438C1491.06 798.471 1496.2 800.162 1499.24 803.486C1504.99 809.766 1503.09 821.291 1495.62 825.386C1492.93 826.864 1489.81 827.424 1486.74 827.549C1479.47 827.845 1473.54 825.189 1466.86 822.944C1463.74 821.895 1461.19 819.892 1458.7 817.918C1460.67 820.417 1462.67 822.961 1463.72 826.083C1465.97 832.765 1468.62 838.694 1468.33 845.962C1468.2 849.035 1467.64 852.149 1466.16 854.846C1462.07 862.312 1450.54 864.218 1444.26 858.466C1440.94 855.421 1439.25 850.281 1441.21 846.225C1443.18 842.168 1449.36 840.524 1452.48 843.777C1454.2 845.566 1454.56 848.678 1452.91 850.531C1451.26 852.384 1447.68 852.104 1446.69 849.832C1445.7 847.559 1448.58 844.644 1450.72 845.901C1448.06 844.059 1443.95 845.636 1442.68 848.61C1441.4 851.583 1442.64 855.238 1445.08 857.362C1449.78 861.444 1457.72 859.79 1461.6 854.926C1465.48 850.062 1465.79 843.089 1463.92 837.157C1460.79 827.221 1453.97 820.339 1446.23 813.938C1445.42 814.427 1444.96 814.673 1444.54 814.964C1436.18 820.706 1434.46 833.61 1431.35 842.72C1429.94 846.845 1427.44 850.311 1424.88 853.729C1422.74 856.588 1418.54 860.861 1414.98 861.62C1413.13 862.013 1411.29 862.478 1409.43 862.708C1406.13 863.115 1402.8 863.722 1399.53 862.499C1399.01 862.306 1398.56 861.949 1398.07 861.667C1398.41 861.136 1398.63 860.479 1399.09 860.105C1399.74 859.576 1400.56 859.248 1401.31 858.846C1402.82 858.042 1404.57 857.508 1405.79 856.394C1408.5 853.926 1411.35 851.537 1413.31 848.355C1414.69 846.105 1415.91 843.742 1417.42 841.581C1419.89 838.046 1421.55 834.096 1423.55 830.321C1426.95 823.916 1430.22 815.389 1437.3 812.253C1438.42 811.76 1439.59 811.402 1440.73 810.983C1440.74 810.772 1440.75 810.562 1440.75 810.352C1438.45 809.499 1436.1 808.746 1433.85 807.77C1430.64 806.379 1427.96 807.999 1425.16 809.039C1424.94 809.121 1424.75 809.341 1424.6 809.537C1422.11 812.721 1420 816.15 1418.23 819.77C1411.26 834.064 1404.96 855.467 1388.01 860.762C1386.78 861.146 1385.56 861.583 1384.4 862.121C1381.56 863.43 1378.58 863.195 1375.61 863.082C1374.99 863.059 1374.38 862.666 1373.7 862.421C1374.1 860.816 1375.1 859.916 1376.19 859.077C1379.86 856.251 1383.51 853.409 1386.19 849.544C1386.43 849.195 1386.79 848.928 1387.05 848.594C1389.41 845.671 1392.19 843.107 1394.13 839.818C1396.59 835.642 1401.43 822.572 1407.11 815.325C1392.43 828.025 1380.27 843.171 1362.44 852.181C1356.71 855.076 1350.88 857.289 1344.42 857.983C1336.62 858.821 1328.86 859.312 1321.05 858.451C1318.93 858.217 1316.78 858.252 1314.66 857.983C1312.47 857.705 1310.86 857.89 1309.13 856.541C1316.45 852.014 1326.98 851.959 1335.11 848.499C1337.61 847.434 1339.97 846.02 1342.37 844.729Z" fill="#D85858"/>
<path fill-rule="evenodd" clip-rule="evenodd" d="M1303.91 810.127C1307.09 806.114 1310.73 802.34 1314.71 799.144C1317.87 796.613 1321.68 794.653 1325.51 793.259C1332.82 790.588 1340.31 788.521 1348.28 788.546C1358.28 788.578 1367.46 791.183 1375.6 796.836C1379.1 799.269 1382.5 801.855 1385.86 804.503C1385.11 806.004 1369.16 799.032 1359.7 797.293C1345.4 794.666 1331.84 795.492 1318.93 803.306C1312.21 807.373 1306.54 812.135 1302.17 818.562C1301.92 818.927 1301.67 819.29 1301.45 819.677C1295.89 829.604 1305.1 843.796 1316.31 835.962C1318.81 834.214 1320.6 830.986 1319.62 828.097C1318.63 825.207 1314.07 824.006 1312.42 826.573C1311.46 828.071 1311.81 830.471 1312.39 832.039C1308.2 831.299 1309.13 825.884 1312.14 823.96C1315.58 821.76 1321.02 823.408 1322.62 827.138C1325.72 834.325 1320.72 842.509 1312.94 842.599C1307.92 842.658 1303.42 840.987 1300.22 836.767C1298.65 834.692 1297.86 832.168 1297.65 829.473C1297.11 822.624 1300.32 814.666 1303.91 810.127Z" fill="#D85858"/>
<path fill-rule="evenodd" clip-rule="evenodd" d="M1467.6 676.036C1463.87 674.428 1462.22 668.988 1464.42 665.549C1466.35 662.543 1471.76 661.617 1472.5 665.804C1470.93 665.22 1468.53 664.869 1467.04 665.833C1464.47 667.486 1465.67 672.044 1468.56 673.029C1471.45 674.014 1474.68 672.226 1476.42 669.723C1484.26 658.508 1470.07 649.298 1460.14 654.86C1459.75 655.079 1459.39 655.335 1459.02 655.583C1452.6 659.954 1447.83 665.627 1443.77 672.346C1435.95 685.253 1435.13 698.814 1437.76 713.113C1439.49 722.576 1446.47 738.524 1444.97 739.27C1442.32 735.916 1439.73 732.516 1437.3 729.013C1431.65 720.872 1429.04 711.696 1429.01 701.697C1428.98 693.722 1431.05 686.237 1433.72 678.918C1435.12 675.097 1437.08 671.282 1439.61 668.127C1442.8 664.142 1446.58 660.498 1450.59 657.324C1455.13 653.732 1463.09 650.524 1469.93 651.058C1472.63 651.268 1475.15 652.058 1477.23 653.633C1481.45 656.835 1483.12 661.329 1483.06 666.356C1482.97 674.137 1474.79 679.135 1467.6 676.036Z" fill="#D85858"/>
</g>
<g clip-path="url(#clip2_64_188)">
<path fill-rule="evenodd" clip-rule="evenodd" d="M1479.09 624.646C1479.72 624.62 1480.33 624.636 1480.96 624.683C1480.89 623.288 1480.91 621.854 1481.07 620.364C1481.14 619.569 1479.77 581.196 1479.56 564.586C1479.46 555.807 1480 547.019 1479.98 538.237C1479.91 518.371 1479.28 498.496 1479.6 478.643C1480.23 438.917 1481.98 399.208 1482.1 359.485C1482.24 316.836 1480.7 231.484 1480.7 231.411C1480.7 231.377 1480.75 231.232 1480.77 231C1479.58 231.267 1478.34 231.431 1477.06 231.483C1476.83 231.492 1476.57 231.494 1476.34 231.492C1476.29 232.379 1476.27 233.154 1476.29 233.745C1476.76 263.355 1477.46 292.961 1477.76 322.576C1478.04 348.84 1478.13 375.114 1477.9 401.377C1477.74 420.232 1476.62 439.07 1476.38 457.925C1476.03 484.234 1476.08 510.551 1476.01 536.865C1475.99 552.141 1476.01 567.416 1476.1 582.691C1476.15 593.415 1477.25 620.014 1477.29 620.355C1477.46 621.88 1477.5 623.354 1477.41 624.779C1477.97 624.714 1478.53 624.668 1479.09 624.646Z" fill="#D85858"/>
<path fill-rule="evenodd" clip-rule="evenodd" d="M1490.09 624.646C1490.72 624.62 1491.33 624.636 1491.96 624.683C1491.89 623.288 1491.91 621.854 1492.07 620.364C1492.14 619.569 1490.77 581.196 1490.56 564.586C1490.46 555.807 1491 547.019 1490.98 538.237C1490.91 518.371 1490.28 498.496 1490.6 478.643C1491.23 438.917 1492.98 399.208 1493.1 359.485C1493.24 316.836 1491.7 231.484 1491.7 231.411C1491.72 231.377 1491.75 231.232 1491.77 231C1490.58 231.267 1489.34 231.431 1488.08 231.483C1487.83 231.492 1487.57 231.494 1487.34 231.492C1487.29 232.379 1487.27 233.154 1487.29 233.745C1487.76 263.355 1488.46 292.961 1488.76 322.576C1489.04 348.84 1489.13 375.114 1488.9 401.377C1488.74 420.232 1487.62 439.07 1487.38 457.925C1487.03 484.234 1487.08 510.551 1487.01 536.865C1486.99 552.141 1487.01 567.416 1487.1 582.691C1487.15 593.415 1488.25 620.014 1488.29 620.355C1488.46 621.88 1488.5 623.354 1488.41 624.779C1488.97 624.714 1489.53 624.668 1490.09 624.646Z" fill="#D85858"/>
</g>
<g clip-path="url(#clip3_64_188)">
<path fill-rule="evenodd" clip-rule="evenodd" d="M15.0884 624.646C15.7184 624.62 16.3251 624.636 16.9551 624.683C16.8851 623.288 16.9084 621.854 17.0717 620.364C17.1417 619.569 15.7651 581.196 15.5551 564.586C15.4617 555.807 15.9984 547.019 15.9751 538.237C15.9051 518.371 15.2751 498.496 15.6017 478.643C16.2317 438.917 17.9817 399.208 18.0984 359.485C18.2384 316.836 16.6984 231.484 16.6984 231.411C16.6984 231.377 16.7451 231.232 16.7684 231C15.5784 231.267 14.3417 231.431 13.0584 231.483C12.8251 231.492 12.5684 231.494 12.3351 231.492C12.2884 232.379 12.2651 233.154 12.2884 233.745C12.7551 263.355 13.4551 292.961 13.7584 322.576C14.0384 348.84 14.1317 375.114 13.8984 401.377C13.7351 420.232 12.6151 439.07 12.3817 457.925C12.0317 484.234 12.0784 510.551 12.0084 536.865C11.9851 552.141 12.0084 567.416 12.1017 582.691C12.1484 593.415 13.2451 620.014 13.2917 620.355C13.4551 621.88 13.5017 623.354 13.4084 624.779C13.9684 624.714 14.5284 624.668 15.0884 624.646Z" fill="#D85858"/>
<path fill-rule="evenodd" clip-rule="evenodd" d="M26.0884 624.646C26.7184 624.62 27.3251 624.636 27.9551 624.683C27.8851 623.288 27.9084 621.854 28.0717 620.364C28.1417 619.569 26.7651 581.196 26.5551 564.586C26.4618 555.807 26.9984 547.019 26.9751 538.237C26.9051 518.371 26.2751 498.496 26.6017 478.643C27.2317 438.917 28.9818 399.208 29.0984 359.485C29.2384 316.836 27.6984 231.484 27.6984 231.411C27.7217 231.377 27.7451 231.232 27.7684 231C26.5784 231.267 25.3417 231.431 24.0817 231.483C23.8251 231.492 23.5684 231.494 23.3351 231.492C23.2884 232.379 23.2651 233.154 23.2884 233.745C23.7551 263.355 24.4551 292.961 24.7584 322.576C25.0384 348.84 25.1318 375.114 24.8984 401.377C24.7351 420.232 23.6151 439.07 23.3817 457.925C23.0317 484.234 23.0784 510.551 23.0084 536.865C22.9851 552.141 23.0084 567.416 23.1017 582.691C23.1484 593.415 24.2451 620.014 24.2917 620.355C24.4551 621.88 24.5018 623.354 24.4084 624.779C24.9684 624.714 25.5284 624.668 26.0884 624.646Z" fill="#D85858"/>
</g>
<g clip-path="url(#clip4_64_188)">
<path fill-rule="evenodd" clip-rule="evenodd" d="M1273.06 849.912C1272.99 849.282 1273.04 848.675 1273.16 848.045C1269.47 848.115 1265.67 848.092 1261.73 847.928C1259.62 847.858 1158.04 849.235 1114.07 849.445C1090.83 849.538 1067.57 849.002 1044.32 849.025C991.732 849.095 939.117 849.725 886.564 849.398C781.399 848.768 676.281 847.018 571.126 846.902C458.224 846.762 232.281 848.302 232.088 848.302C231.998 848.302 231.614 848.255 231 848.232C231.706 849.422 232.142 850.658 232.278 851.942C232.304 852.175 232.307 852.432 232.304 852.665C234.65 852.712 236.702 852.735 238.266 852.712C316.65 852.245 395.024 851.545 473.421 851.242C542.946 850.962 612.499 850.868 682.024 851.102C731.936 851.265 781.806 852.385 831.717 852.618C901.363 852.968 971.031 852.922 1040.69 852.992C1081.13 853.015 1121.56 852.992 1162 852.898C1190.39 852.852 1260.8 851.755 1261.7 851.708C1265.74 851.545 1269.64 851.498 1273.41 851.592C1273.24 851.032 1273.12 850.472 1273.06 849.912Z" fill="#D85858"/>
<path fill-rule="evenodd" clip-rule="evenodd" d="M1273.06 838.912C1272.99 838.282 1273.04 837.675 1273.16 837.045C1269.47 837.115 1265.67 837.092 1261.73 836.928C1259.62 836.858 1158.04 838.235 1114.07 838.445C1090.83 838.538 1067.57 838.002 1044.32 838.025C991.732 838.095 939.117 838.725 886.564 838.398C781.399 837.768 676.281 836.018 571.126 835.902C458.225 835.762 232.281 837.302 232.088 837.302C231.998 837.278 231.614 837.255 231 837.232C231.706 838.422 232.142 839.658 232.278 840.918C232.304 841.175 232.307 841.432 232.304 841.665C234.65 841.712 236.702 841.735 238.266 841.712C316.65 841.245 395.024 840.545 473.421 840.242C542.946 839.962 612.499 839.868 682.024 840.102C731.936 840.265 781.806 841.385 831.717 841.618C901.363 841.968 971.031 841.922 1040.69 841.992C1081.13 842.015 1121.56 841.992 1162 841.898C1190.39 841.852 1260.8 840.755 1261.7 840.708C1265.74 840.545 1269.64 840.498 1273.41 840.592C1273.24 840.032 1273.12 839.472 1273.06 838.912Z" fill="#D85858"/>
</g>
<defs>
<clipPath id="clip0_64_188">
<rect width="207" height="213" fill="white" transform="translate(0 651)"/>
</clipPath>
<clipPath id="clip1_64_188">
<rect width="207" height="213" fill="white" transform="matrix(-1 0 0 1 1504 651)"/>
</clipPath>
<clipPath id="clip2_64_188">
<rect width="18" height="394" fill="white" transform="translate(1476 231)"/>
</clipPath>
<clipPath id="clip3_64_188">
<rect width="18" height="394" fill="white" transform="translate(12 231)"/>
</clipPath>
<clipPath id="clip4_64_188">
<rect width="18" height="1043" fill="white" transform="translate(231 853) rotate(-90)"/>
</clipPath>
</defs>
</svg>
