<svg width="83" height="72" viewBox="0 0 83 72" fill="none" xmlns="http://www.w3.org/2000/svg">
<path fill-rule="evenodd" clip-rule="evenodd" d="M77.6444 34.0788C80.6188 30.4755 82.408 25.8413 82.408 20.7854C82.408 9.30596 73.1842 0 61.806 0C50.4916 0 41.3074 9.20196 41.2049 20.5927L41.2032 20.5933C41.1009 9.20231 31.9166 0 20.602 0C9.22383 0 0 9.30596 0 20.7854C0 25.9433 1.86213 30.6624 4.94512 34.2957L4.94441 34.296L4.9523 34.3042C5.5128 34.964 6.11359 35.588 6.75083 36.1723L41.2448 72L75.7443 36.0919C76.3309 35.548 76.886 34.9702 77.4068 34.3615L77.6695 34.0881L77.6444 34.0788Z" fill="#1257BF"/>
</svg>
