<svg width="1460" height="144" viewBox="0 0 1460 144" fill="none" xmlns="http://www.w3.org/2000/svg">
<path d="M6.999 141C4.57967 141 2.797 140.491 1.651 139.472C0.632334 138.326 0.123001 136.543 0.123001 134.124V111.395C0.123001 108.976 0.632334 107.257 1.651 106.238C2.797 105.092 4.57967 104.519 6.999 104.519H25.908V40.343H6.999C4.57967 40.343 2.797 39.8337 1.651 38.815C0.632334 37.669 0.123001 35.8863 0.123001 33.467V10.356C0.123001 7.93666 0.632334 6.21766 1.651 5.199C2.797 4.05299 4.57967 3.47999 6.999 3.47999H88.365C90.7843 3.47999 92.5033 4.05299 93.522 5.199C94.668 6.21766 95.241 7.93666 95.241 10.356V33.467C95.241 35.8863 94.668 37.669 93.522 38.815C92.5033 39.8337 90.7843 40.343 88.365 40.343H69.838V104.519H88.365C90.7843 104.519 92.5033 105.092 93.522 106.238C94.668 107.257 95.241 108.976 95.241 111.395V134.124C95.241 136.543 94.668 138.326 93.522 139.472C92.5033 140.491 90.7843 141 88.365 141H6.999ZM146.71 141H118.06C115.64 141 113.858 140.491 112.712 139.472C111.693 138.326 111.184 136.543 111.184 134.124V10.356C111.184 7.93666 111.693 6.21766 112.712 5.199C113.858 4.05299 115.64 3.47999 118.06 3.47999H137.924C140.343 3.47999 142.38 3.86199 144.036 4.62599C145.818 5.39 147.537 6.727 149.193 8.637L186.247 51.039V10.356C186.247 7.93666 186.756 6.21766 187.775 5.199C188.921 4.05299 190.703 3.47999 193.123 3.47999H221.773C224.192 3.47999 225.911 4.05299 226.93 5.199C228.076 6.21766 228.649 7.93666 228.649 10.356V134.124C228.649 136.543 228.076 138.326 226.93 139.472C225.911 140.491 224.192 141 221.773 141H193.123C190.703 141 188.921 140.491 187.775 139.472C186.756 138.326 186.247 136.543 186.247 134.124V110.631L153.586 71.094V134.124C153.586 136.543 153.013 138.326 151.867 139.472C150.848 140.491 149.129 141 146.71 141ZM311.147 141H250.791C248.372 141 246.589 140.491 245.443 139.472C244.424 138.326 243.915 136.543 243.915 134.124V111.777C243.915 109.358 244.424 107.639 245.443 106.62C246.589 105.474 248.372 104.901 250.791 104.901H302.17C303.825 104.901 305.035 104.392 305.799 103.373C306.69 102.227 307.136 100.89 307.136 99.362C307.136 97.1973 306.69 95.6057 305.799 94.587C305.035 93.5683 303.825 92.9953 302.17 92.868L273.52 88.857C264.607 87.5837 257.412 84.655 251.937 80.071C246.589 75.487 243.915 67.847 243.915 57.151V37.096C243.915 26.2727 247.417 17.996 254.42 12.266C261.423 6.40866 271.101 3.47999 283.452 3.47999H336.932C339.351 3.47999 341.07 4.05299 342.089 5.199C343.235 6.21766 343.808 7.93666 343.808 10.356V33.085C343.808 35.5043 343.235 37.287 342.089 38.433C341.07 39.4517 339.351 39.961 336.932 39.961H292.429C290.774 39.961 289.5 40.534 288.609 41.68C287.718 42.6987 287.272 44.0357 287.272 45.691C287.272 47.3463 287.718 48.747 288.609 49.893C289.5 51.039 290.774 51.6757 292.429 51.803L320.888 55.623C329.801 56.8963 336.996 59.825 342.471 64.409C347.946 68.993 350.684 76.633 350.684 87.329V107.384C350.684 118.207 347.119 126.548 339.988 132.405C332.985 138.135 323.371 141 311.147 141ZM427.012 141H396.07C393.651 141 391.868 140.491 390.722 139.472C389.704 138.326 389.194 136.543 389.194 134.124V40.343H361.117C358.698 40.343 356.915 39.8337 355.769 38.815C354.751 37.669 354.241 35.8863 354.241 33.467V10.356C354.241 7.93666 354.751 6.21766 355.769 5.199C356.915 4.05299 358.698 3.47999 361.117 3.47999H461.965C464.385 3.47999 466.104 4.05299 467.122 5.199C468.268 6.21766 468.841 7.93666 468.841 10.356V33.467C468.841 35.8863 468.268 37.669 467.122 38.815C466.104 39.8337 464.385 40.343 461.965 40.343H433.888V134.124C433.888 136.543 433.315 138.326 432.169 139.472C431.151 140.491 429.432 141 427.012 141ZM522.942 37.86V62.308H537.267C540.578 62.308 542.806 61.4803 543.952 59.825C545.098 58.0423 545.671 55.8777 545.671 53.331V46.837C545.671 44.2903 545.098 42.1893 543.952 40.534C542.806 38.7513 540.578 37.86 537.267 37.86H522.942ZM516.066 141H486.652C484.233 141 482.45 140.491 481.304 139.472C480.286 138.326 479.776 136.543 479.776 134.124V10.356C479.776 7.93666 480.286 6.21766 481.304 5.199C482.45 4.05299 484.233 3.47999 486.652 3.47999H550.255C564.517 3.47999 574.321 6.47233 579.669 12.457C585.145 18.3143 587.882 25.9543 587.882 35.377V44.163C587.882 49.511 587.055 54.095 585.399 57.915C583.871 61.6077 581.134 64.2817 577.186 65.937C584.062 66.701 589.601 69.5023 593.803 74.341C598.133 79.1797 600.297 85.61 600.297 93.632V134.124C600.297 136.543 599.724 138.326 598.578 139.472C597.56 140.491 595.841 141 593.421 141H563.816C561.397 141 559.614 140.491 558.468 139.472C557.45 138.326 556.94 136.543 556.94 134.124V104.901C556.94 102.1 556.367 100.062 555.221 98.789C554.203 97.3883 552.356 96.688 549.682 96.688H522.942V134.124C522.942 136.543 522.369 138.326 521.223 139.472C520.205 140.491 518.486 141 516.066 141ZM731.164 104.901C731.164 110.758 730.272 116.106 728.49 120.945C726.834 125.656 723.778 129.731 719.322 133.169C714.992 136.48 709.008 139.09 701.368 141C693.728 142.91 683.987 143.865 672.145 143.865C660.303 143.865 650.562 142.91 642.922 141C635.282 139.09 629.233 136.48 624.777 133.169C620.447 129.731 617.391 125.656 615.609 120.945C613.953 116.106 613.126 110.758 613.126 104.901V10.356C613.126 7.93666 613.635 6.21766 614.654 5.199C615.8 4.05299 617.582 3.47999 620.002 3.47999H649.989C652.408 3.47999 654.127 4.05299 655.146 5.199C656.292 6.21766 656.865 7.93666 656.865 10.356V97.452C656.865 99.9987 657.82 102.163 659.73 103.946C661.64 105.601 665.905 106.429 672.527 106.429C679.275 106.429 683.605 105.601 685.515 103.946C687.425 102.163 688.38 99.9987 688.38 97.452V10.356C688.38 7.93666 688.889 6.21766 689.908 5.199C691.054 4.05299 692.836 3.47999 695.256 3.47999H724.288C726.707 3.47999 728.426 4.05299 729.445 5.199C730.591 6.21766 731.164 7.93666 731.164 10.356V104.901ZM840.433 141H793.829C777.913 141 766.071 137.817 758.303 131.45C750.663 125.083 746.843 115.279 746.843 102.036V42.635C746.843 29.3923 750.663 19.5877 758.303 13.221C766.071 6.72699 777.913 3.47999 793.829 3.47999H840.433C842.853 3.47999 844.572 4.05299 845.59 5.199C846.736 6.21766 847.309 7.93666 847.309 10.356V33.467C847.309 35.8863 846.736 37.669 845.59 38.815C844.572 39.8337 842.853 40.343 840.433 40.343H802.042C798.095 40.343 795.166 41.1707 793.256 42.826C791.346 44.354 790.391 46.7097 790.391 49.893V95.351C790.391 98.5343 791.346 100.89 793.256 102.418C795.166 103.819 798.095 104.519 802.042 104.519H840.433C842.853 104.519 844.572 105.092 845.59 106.238C846.736 107.257 847.309 108.976 847.309 111.395V134.124C847.309 136.543 846.736 138.326 845.59 139.472C844.572 140.491 842.853 141 840.433 141ZM926.179 141H895.237C892.818 141 891.035 140.491 889.889 139.472C888.87 138.326 888.361 136.543 888.361 134.124V40.343H860.284C857.865 40.343 856.082 39.8337 854.936 38.815C853.917 37.669 853.408 35.8863 853.408 33.467V10.356C853.408 7.93666 853.917 6.21766 854.936 5.199C856.082 4.05299 857.865 3.47999 860.284 3.47999H961.132C963.551 3.47999 965.27 4.05299 966.289 5.199C967.435 6.21766 968.008 7.93666 968.008 10.356V33.467C968.008 35.8863 967.435 37.669 966.289 38.815C965.27 39.8337 963.551 40.343 961.132 40.343H933.055V134.124C933.055 136.543 932.482 138.326 931.336 139.472C930.317 140.491 928.598 141 926.179 141ZM982.763 141C980.343 141 978.561 140.491 977.415 139.472C976.396 138.326 975.887 136.543 975.887 134.124V111.395C975.887 108.976 976.396 107.257 977.415 106.238C978.561 105.092 980.343 104.519 982.763 104.519H1001.67V40.343H982.763C980.343 40.343 978.561 39.8337 977.415 38.815C976.396 37.669 975.887 35.8863 975.887 33.467V10.356C975.887 7.93666 976.396 6.21766 977.415 5.199C978.561 4.05299 980.343 3.47999 982.763 3.47999H1064.13C1066.55 3.47999 1068.27 4.05299 1069.29 5.199C1070.43 6.21766 1071 7.93666 1071 10.356V33.467C1071 35.8863 1070.43 37.669 1069.29 38.815C1068.27 39.8337 1066.55 40.343 1064.13 40.343H1045.6V104.519H1064.13C1066.55 104.519 1068.27 105.092 1069.29 106.238C1070.43 107.257 1071 108.976 1071 111.395V134.124C1071 136.543 1070.43 138.326 1069.29 139.472C1068.27 140.491 1066.55 141 1064.13 141H982.763ZM1203.46 104.901C1203.46 110.758 1202.57 116.106 1200.78 120.945C1199.13 125.656 1196.07 129.731 1191.62 133.169C1187.29 136.48 1181.24 139.09 1173.47 141C1165.83 142.91 1156.09 143.865 1144.25 143.865C1132.41 143.865 1122.6 142.91 1114.83 141C1107.07 139.09 1100.95 136.48 1096.5 133.169C1092.17 129.731 1089.11 125.656 1087.33 120.945C1085.67 116.106 1084.85 110.758 1084.85 104.901V39.77C1084.85 33.9127 1085.67 28.6283 1087.33 23.917C1089.11 19.0783 1092.17 14.94 1096.5 11.502C1100.95 8.06399 1107.07 5.38999 1114.83 3.47999C1122.6 1.57 1132.41 0.614997 1144.25 0.614997C1156.09 0.614997 1165.83 1.57 1173.47 3.47999C1181.24 5.38999 1187.29 8.06399 1191.62 11.502C1196.07 14.94 1199.13 19.0783 1200.78 23.917C1202.57 28.6283 1203.46 33.9127 1203.46 39.77V104.901ZM1128.2 98.025C1128.2 100.572 1129.16 102.736 1131.07 104.519C1132.98 106.174 1137.37 107.002 1144.25 107.002C1151.12 107.002 1155.52 106.174 1157.43 104.519C1159.34 102.736 1160.29 100.572 1160.29 98.025V46.646C1160.29 44.2267 1159.34 42.1893 1157.43 40.534C1155.52 38.7513 1151.12 37.86 1144.25 37.86C1137.37 37.86 1132.98 38.7513 1131.07 40.534C1129.16 42.1893 1128.2 44.2267 1128.2 46.646V98.025ZM1255.66 141H1227.01C1224.59 141 1222.81 140.491 1221.66 139.472C1220.64 138.326 1220.13 136.543 1220.13 134.124V10.356C1220.13 7.93666 1220.64 6.21766 1221.66 5.199C1222.81 4.05299 1224.59 3.47999 1227.01 3.47999H1246.87C1249.29 3.47999 1251.33 3.86199 1252.98 4.62599C1254.77 5.39 1256.49 6.727 1258.14 8.637L1295.2 51.039V10.356C1295.2 7.93666 1295.7 6.21766 1296.72 5.199C1297.87 4.05299 1299.65 3.47999 1302.07 3.47999H1330.72C1333.14 3.47999 1334.86 4.05299 1335.88 5.199C1337.02 6.21766 1337.6 7.93666 1337.6 10.356V134.124C1337.6 136.543 1337.02 138.326 1335.88 139.472C1334.86 140.491 1333.14 141 1330.72 141H1302.07C1299.65 141 1297.87 140.491 1296.72 139.472C1295.7 138.326 1295.2 136.543 1295.2 134.124V110.631L1262.53 71.094V134.124C1262.53 136.543 1261.96 138.326 1260.82 139.472C1259.8 140.491 1258.08 141 1255.66 141ZM1420.1 141H1359.74C1357.32 141 1355.54 140.491 1354.39 139.472C1353.37 138.326 1352.86 136.543 1352.86 134.124V111.777C1352.86 109.358 1353.37 107.639 1354.39 106.62C1355.54 105.474 1357.32 104.901 1359.74 104.901H1411.12C1412.77 104.901 1413.98 104.392 1414.75 103.373C1415.64 102.227 1416.09 100.89 1416.09 99.362C1416.09 97.1973 1415.64 95.6057 1414.75 94.587C1413.98 93.5683 1412.77 92.9953 1411.12 92.868L1382.47 88.857C1373.56 87.5837 1366.36 84.655 1360.89 80.071C1355.54 75.487 1352.86 67.847 1352.86 57.151V37.096C1352.86 26.2727 1356.37 17.996 1363.37 12.266C1370.37 6.40866 1380.05 3.47999 1392.4 3.47999H1445.88C1448.3 3.47999 1450.02 4.05299 1451.04 5.199C1452.18 6.21766 1452.76 7.93666 1452.76 10.356V33.085C1452.76 35.5043 1452.18 37.287 1451.04 38.433C1450.02 39.4517 1448.3 39.961 1445.88 39.961H1401.38C1399.72 39.961 1398.45 40.534 1397.56 41.68C1396.67 42.6987 1396.22 44.0357 1396.22 45.691C1396.22 47.3463 1396.67 48.747 1397.56 49.893C1398.45 51.039 1399.72 51.6757 1401.38 51.803L1429.84 55.623C1438.75 56.8963 1445.94 59.825 1451.42 64.409C1456.9 68.993 1459.63 76.633 1459.63 87.329V107.384C1459.63 118.207 1456.07 126.548 1448.94 132.405C1441.93 138.135 1432.32 141 1420.1 141Z" fill="#D85858"/>
</svg>
