<svg width="1460" height="327" viewBox="0 0 1460 327" fill="none" xmlns="http://www.w3.org/2000/svg">
<path d="M159.864 152.146C154.414 152.146 150.478 150.935 148.056 148.513C145.634 146.09 141.849 140.943 136.702 133.071L81.2944 48.5958C79.4778 45.5681 77.3584 43.6 74.9362 42.6917C72.514 41.4805 70.0919 40.875 67.6697 40.875H59.949C56.0129 40.875 52.9852 42.0861 50.8658 44.5083C49.0492 46.6278 48.1408 50.1097 48.1408 54.9542V286.125H52.6824V54.9542C52.6824 52.5319 53.1366 50.4125 54.0449 48.5958C54.9532 46.4764 56.9212 45.4167 59.949 45.4167H66.7614C68.8808 45.4167 70.6974 45.7195 72.2113 46.325C74.0279 46.9305 75.8445 48.7472 77.6612 51.775L133.069 135.342C138.518 143.517 142.606 149.118 145.331 152.146C148.359 155.174 153.203 156.688 159.864 156.688C166.525 156.688 171.218 155.174 173.943 152.146C176.971 149.118 181.209 143.517 186.659 135.342L242.067 51.775C243.883 48.7472 245.549 46.9305 247.062 46.325C248.576 45.7195 250.393 45.4167 252.512 45.4167H259.325C262.352 45.4167 264.32 46.4764 265.229 48.5958C266.44 50.4125 267.045 52.5319 267.045 54.9542V286.125H271.587V54.9542C271.587 50.1097 270.527 46.6278 268.408 44.5083C266.591 42.0861 263.564 40.875 259.325 40.875H251.604C249.182 40.875 246.76 41.4805 244.337 42.6917C242.218 43.6 240.25 45.5681 238.433 48.5958L183.026 133.071C177.879 140.943 174.094 146.09 171.672 148.513C169.25 150.935 165.314 152.146 159.864 152.146ZM84.0194 327H16.3497C10.597 327 6.35822 325.789 3.63327 323.367C1.21109 320.642 0 316.403 0 310.65V16.35C0 10.5972 1.21109 6.50973 3.63327 4.0875C6.35822 1.3625 10.597 0 16.3497 0H89.4693C94.3137 0 98.2497 1.05972 101.277 3.17915C104.608 5.29861 107.636 8.78055 110.361 13.625L151.235 87.6542C152.749 90.3792 153.96 92.3472 154.868 93.5583C156.079 94.7694 157.593 95.375 159.41 95.375H163.497C165.314 95.375 166.676 94.7694 167.585 93.5583C168.796 92.3472 170.158 90.3792 171.672 87.6542L212.092 13.625C214.817 8.78055 217.693 5.29861 220.721 3.17915C224.052 1.05972 228.139 0 232.983 0H306.557C312.31 0 316.397 1.3625 318.819 4.0875C321.544 6.50973 322.907 10.5972 322.907 16.35V310.65C322.907 316.403 321.544 320.642 318.819 323.367C316.397 325.789 312.31 327 306.557 327H236.617C230.864 327 226.625 325.789 223.9 323.367C221.478 320.642 220.267 316.403 220.267 310.65V150.783L193.472 200.288C190.747 205.435 187.416 209.219 183.48 211.642C179.847 213.761 175.154 214.821 169.401 214.821H151.235C145.482 214.821 140.638 213.761 136.702 211.642C133.069 209.219 129.889 205.435 127.164 200.288L100.369 150.783V310.65C100.369 316.403 99.0066 320.642 96.2817 323.367C93.8595 325.789 89.7721 327 84.0194 327Z" fill="#D85858"/>
<path d="M394.951 189.387C394.951 181.212 395.557 173.643 396.768 166.679C398.282 159.715 400.099 153.206 402.218 147.15L431.284 72.6667C434.312 65.0972 437.642 58.7389 441.276 53.5917C444.909 48.1417 451.267 45.4167 460.35 45.4167H504.858C513.336 45.4167 519.391 48.1417 523.024 53.5917C526.657 58.7389 530.139 65.2486 533.47 73.1208L564.807 147.15C566.926 153.206 568.591 159.715 569.803 166.679C571.316 173.643 572.073 181.212 572.073 189.387V203.467H394.951V189.387ZM467.617 95.375L446.271 164.408H517.574L496.229 95.375C495.018 92.65 493.655 90.6819 492.141 89.4708C490.93 88.2597 489.416 87.6542 487.6 87.6542H476.246C474.429 87.6542 472.764 88.2597 471.25 89.4708C470.039 90.6819 468.828 92.65 467.617 95.375ZM572.073 286.125H576.615V189.387C576.615 180.91 575.858 173.189 574.344 166.225C573.133 158.958 571.316 151.994 568.894 145.333L537.557 71.3042C533.924 62.5236 529.988 55.257 525.749 49.5042C521.813 43.7514 514.849 40.875 504.858 40.875H460.35C450.056 40.875 442.789 43.7514 438.551 49.5042C434.312 55.257 430.527 62.3722 427.197 70.85L398.131 145.333C395.708 151.994 393.74 158.958 392.226 166.225C391.015 173.189 390.41 180.91 390.41 189.387V286.125H394.951V208.008H572.073V286.125ZM441.73 310.65C441.73 316.403 440.367 320.642 437.642 323.367C435.22 325.789 431.133 327 425.38 327H358.619C352.866 327 348.627 325.789 345.902 323.367C343.48 320.642 342.269 316.403 342.269 310.65V190.75C342.269 181.667 343.631 171.221 346.356 159.412C349.384 147.604 353.926 133.828 359.981 118.083L399.493 14.9875C401.31 9.84027 404.035 6.05555 407.668 3.63334C411.604 1.21112 416.6 0 422.655 0H544.824C550.577 0 555.27 1.21112 558.903 3.63334C562.839 6.05555 565.715 9.84027 567.532 14.9875L607.044 118.083C613.099 133.828 617.489 147.604 620.214 159.412C623.242 171.221 624.756 181.667 624.756 190.75V310.65C624.756 316.403 623.393 320.642 620.668 323.367C618.246 325.789 614.159 327 608.406 327H539.828C533.773 327 529.231 325.789 526.203 323.367C523.478 320.642 522.116 316.403 522.116 310.65V247.067H441.73V310.65Z" fill="#D85858"/>
<path d="M797.095 45.4167C813.142 45.4167 824.95 49.807 832.519 58.5875C840.391 67.3681 844.327 78.7222 844.327 92.65V124.442C844.327 141.094 841.148 153.962 834.79 163.046C828.432 172.129 815.867 176.671 797.095 176.671H698.088V45.4167H797.095ZM747.137 81.75V139.883H781.199C789.071 139.883 794.37 137.915 797.095 133.979C799.82 129.74 801.182 124.593 801.182 118.538V103.096C801.182 97.0403 799.82 92.0445 797.095 88.1083C794.37 83.8695 789.071 81.75 781.199 81.75H747.137ZM698.088 286.125V180.758H826.615C843.873 180.758 856.59 184.543 864.765 192.113C872.939 199.379 877.027 210.431 877.027 225.267V286.125H881.568V225.267C881.568 209.522 877.027 197.562 867.944 189.387C858.861 180.91 845.084 176.671 826.615 176.671H821.62C832.519 173.34 839.786 167.285 843.419 158.504C847.052 149.421 848.869 137.915 848.869 123.988V92.65C848.869 77.8139 844.63 65.5514 836.153 55.8625C827.675 45.8708 814.656 40.875 797.095 40.875H693.547V286.125H698.088ZM730.788 327H660.847C655.095 327 650.856 325.789 648.131 323.367C645.709 320.642 644.497 316.403 644.497 310.65V16.35C644.497 10.5972 645.709 6.50973 648.131 4.0875C650.856 1.3625 655.095 0 660.847 0H812.082C845.993 0 869.306 7.11528 882.023 21.3458C895.042 35.2736 901.552 53.4403 901.552 75.8458V96.7375C901.552 109.454 899.583 120.354 895.647 129.438C892.014 138.218 885.505 144.576 876.119 148.513C892.468 150.329 905.639 156.99 915.63 168.496C925.925 180.001 931.072 195.292 931.072 214.367V310.65C931.072 316.403 929.709 320.642 926.984 323.367C924.562 325.789 920.475 327 914.722 327H844.327C838.575 327 834.336 325.789 831.611 323.367C829.189 320.642 827.978 316.403 827.978 310.65V241.162C827.978 234.501 826.615 229.657 823.89 226.629C821.468 223.299 817.078 221.633 810.72 221.633H747.137V310.65C747.137 316.403 745.775 320.642 743.05 323.367C740.628 325.789 736.54 327 730.788 327Z" fill="#D85858"/>
<path d="M954.763 327C949.01 327 944.771 325.789 942.046 323.367C939.624 320.642 938.413 316.403 938.413 310.65V256.604C938.413 250.851 939.624 246.764 942.046 244.342C944.771 241.617 949.01 240.254 954.763 240.254H999.724V87.6542H954.763C949.01 87.6542 944.771 86.4431 942.046 84.0208C939.624 81.2958 938.413 77.0569 938.413 71.3042V16.35C938.413 10.5972 939.624 6.50973 942.046 4.0875C944.771 1.3625 949.01 0 954.763 0H1148.23C1153.99 0 1158.07 1.3625 1160.5 4.0875C1163.22 6.50973 1164.58 10.5972 1164.58 16.35V71.3042C1164.58 77.0569 1163.22 81.2958 1160.5 84.0208C1158.07 86.4431 1153.99 87.6542 1148.23 87.6542H1104.18V240.254H1148.23C1153.99 240.254 1158.07 241.617 1160.5 244.342C1163.22 246.764 1164.58 250.851 1164.58 256.604V310.65C1164.58 316.403 1163.22 320.642 1160.5 323.367C1158.07 325.789 1153.99 327 1148.23 327H954.763ZM1123.71 286.125V281.583H1054.22V45.4167H1123.71V40.875H979.287V45.4167H1049.68V281.583H979.287V286.125H1123.71Z" fill="#D85858"/>
<path d="M1230.2 189.387C1230.2 181.212 1230.8 173.643 1232.01 166.679C1233.53 159.715 1235.34 153.206 1237.46 147.15L1266.53 72.6667C1269.56 65.0972 1272.89 58.7389 1276.52 53.5917C1280.15 48.1417 1286.51 45.4167 1295.59 45.4167H1340.1C1348.58 45.4167 1354.64 48.1417 1358.27 53.5917C1361.9 58.7389 1365.38 65.2486 1368.71 73.1208L1400.05 147.15C1402.17 153.206 1403.84 159.715 1405.05 166.679C1406.56 173.643 1407.32 181.212 1407.32 189.387V203.467H1230.2V189.387ZM1302.86 95.375L1281.52 164.408H1352.82L1331.47 95.375C1330.26 92.65 1328.9 90.6819 1327.39 89.4708C1326.17 88.2597 1324.66 87.6542 1322.84 87.6542H1311.49C1309.67 87.6542 1308.01 88.2597 1306.49 89.4708C1305.28 90.6819 1304.07 92.65 1302.86 95.375ZM1407.32 286.125H1411.86V189.387C1411.86 180.91 1411.1 173.189 1409.59 166.225C1408.38 158.958 1406.56 151.994 1404.14 145.333L1372.8 71.3042C1369.17 62.5236 1365.23 55.257 1360.99 49.5042C1357.06 43.7514 1350.09 40.875 1340.1 40.875H1295.59C1285.3 40.875 1278.03 43.7514 1273.79 49.5042C1269.56 55.257 1265.77 62.3722 1262.44 70.85L1233.37 145.333C1230.95 151.994 1228.98 158.958 1227.47 166.225C1226.26 173.189 1225.65 180.91 1225.65 189.387V286.125H1230.2V208.008H1407.32V286.125ZM1276.97 310.65C1276.97 316.403 1275.61 320.642 1272.89 323.367C1270.46 325.789 1266.38 327 1260.62 327H1193.86C1188.11 327 1183.87 325.789 1181.15 323.367C1178.72 320.642 1177.51 316.403 1177.51 310.65V190.75C1177.51 181.667 1178.88 171.221 1181.6 159.412C1184.63 147.604 1189.17 133.828 1195.23 118.083L1234.74 14.9875C1236.55 9.84027 1239.28 6.05555 1242.91 3.63334C1246.85 1.21112 1251.84 0 1257.9 0H1380.07C1385.82 0 1390.51 1.21112 1394.15 3.63334C1398.08 6.05555 1400.96 9.84027 1402.78 14.9875L1442.29 118.083C1448.34 133.828 1452.73 147.604 1455.46 159.412C1458.49 171.221 1460 181.667 1460 190.75V310.65C1460 316.403 1458.64 320.642 1455.91 323.367C1453.49 325.789 1449.4 327 1443.65 327H1375.07C1369.02 327 1364.48 325.789 1361.45 323.367C1358.72 320.642 1357.36 316.403 1357.36 310.65V247.067H1276.97V310.65Z" fill="#D85858"/>
</svg>
