<svg width="411" height="28" viewBox="0 0 411 28" fill="none" xmlns="http://www.w3.org/2000/svg">
<path fill-rule="evenodd" clip-rule="evenodd" d="M410.862 24.9659C410.836 24.347 410.852 23.751 410.901 23.1321C409.449 23.2008 407.955 23.1779 406.404 23.0175C405.576 22.9487 366.795 23.2937 349.5 23.5C340.36 23.5917 330.038 24.0719 320.894 24.0948C300.21 24.1636 279.171 23.8209 258.501 23.5C217.138 22.8811 176.138 22.1235 134.778 22.0089C90.3721 21.8713 1.50476 23.3842 1.42847 23.3842C1.39345 23.3842 1.24211 23.3384 1.00073 23.3155C1.0001 24.5001 0.946781 25.7393 1.00056 27.0001C1.01057 27.2293 1.01182 27.4814 1.01057 27.7107C1.93358 27.7565 3.24323 27.7396 3.85858 27.7167C34.6884 27.2582 65.5144 26.5705 96.3492 26.2725C123.695 25.9975 151.051 25.9058 178.396 26.135C198.028 26.2954 220.87 27.2708 240.501 27.5C267.894 27.8439 291.536 27.0083 319.001 27.5001C334.906 27.523 351.096 26.8226 367 26.7309C378.166 26.6851 406.039 26.7768 406.394 26.731C407.983 26.5705 409.517 26.5247 411.001 26.6164C410.933 26.0662 410.886 25.5161 410.862 24.9659Z" fill="#D85858"/>
<path fill-rule="evenodd" clip-rule="evenodd" d="M410.861 13.8496C410.835 13.2306 410.851 12.6346 410.9 12.0157C409.448 12.0845 407.955 12.0616 406.404 11.9011C405.576 11.8323 365.622 12.3011 348.327 12.5074C339.187 12.5991 330.037 13.0719 320.893 13.0948C300.209 13.1636 279.515 12.7825 258.845 12.4616C217.481 11.8427 175.789 11.4759 134.429 11.3613C90.0229 11.2238 1.50403 11.3842 1.42774 11.3842C1.39272 11.3613 1.24139 11.3384 1 11.3155C1 12.5 1.09373 12.4965 1.14751 13.7344C1.15752 13.9865 1.1486 15.4874 1.14735 15.7167C2.07036 15.7625 3.24251 15.7396 3.85785 15.7167C34.6876 15.2582 65.1652 15.923 96 15.625C123.345 15.3499 150.702 15.2582 178.047 15.4874C197.678 15.6479 217.642 15.3957 237.273 15.625C264.665 15.9688 292.067 15.923 319.465 15.9917C335.37 16.0146 351.274 15.9917 367.178 15.9C378.344 15.8542 406.038 15.6605 406.394 15.6146C407.982 15.4542 409.517 15.4083 411 15.5C410.932 14.9499 410.885 14.3997 410.861 13.8496Z" fill="#D85858"/>
<path fill-rule="evenodd" clip-rule="evenodd" d="M410.861 2.96589C410.835 2.34697 410.851 1.75098 410.9 1.13206C409.448 1.20083 407.955 1.1779 406.404 1.01744C405.576 0.948675 365.622 2.30113 348.327 2.50743C339.187 2.59913 330.037 2.0719 320.893 2.09482C300.209 2.16359 279.515 1.78251 258.845 1.46159C217.481 0.842677 176.137 0.123459 134.778 0.00884629C90.3714 -0.128689 1.50403 1.38423 1.42774 1.38423C1.39272 1.3613 1.24139 1.33838 1 1.31546C1.27766 2.48453 1.449 3.69944 1.50278 4.93728C1.51279 5.18943 1.51404 5.44158 1.51279 5.67081C2.43581 5.71666 3.24251 5.73958 3.85785 5.71666C34.6876 5.2582 65.5137 4.57051 96.3485 4.27251C123.694 3.99743 151.05 3.90574 178.396 4.13497C198.027 4.29543 217.642 4.39573 237.273 4.62496C264.665 4.9688 292.067 5.92295 319.465 5.99172C335.37 6.01464 351.274 5.99172 367.178 5.90002C378.344 5.85418 406.038 4.7768 406.394 4.73095C407.982 4.57049 409.517 4.52465 411 4.61634C410.932 4.06619 410.885 3.51604 410.861 2.96589Z" fill="#D85858"/>
</svg>
