<svg width="321" height="86" viewBox="0 0 321 86" fill="none" xmlns="http://www.w3.org/2000/svg">
<path fill-rule="evenodd" clip-rule="evenodd" d="M165.03 45.5392C164.72 46.3224 164.753 47.2427 164.639 48.0993C164.981 48.1369 165.324 48.1744 165.667 48.2103C166.303 46.8837 166.841 45.4919 167.608 44.2404C173.809 34.1289 182.195 26.3981 192.769 21.0494C196.538 19.1436 200.307 19.4635 204.044 21.2469C207.78 23.0368 208.498 26.3034 205.953 29.5782C204.647 31.2637 202.787 31.626 200.943 31.8022C199.997 31.8919 198.757 31.3796 198.006 30.7318C196.913 29.7805 196.538 28.4426 197.892 26.9724C198.398 27.1845 198.936 27.413 199.475 27.63C200.062 27.8633 200.633 28.0869 201.515 28.4344C200.323 25.3505 198.48 24.4645 195.999 25.2086C193.715 25.8906 193.128 27.8568 192.328 29.6728C191.349 31.8511 191.692 33.8744 193.34 35.5828C195.053 37.3678 197.125 38.634 199.703 38.1755C205.398 37.1622 209.95 30.9455 209.673 24.7338C209.396 18.3392 203.897 13.1293 198.463 13.0559C193.813 12.9922 189.571 14.1556 185.736 16.8658C181.575 19.8061 178.361 23.6291 175.228 27.568C170.872 33.0276 167.592 39.0778 165.03 45.5392Z" fill="#D85858"/>
<path fill-rule="evenodd" clip-rule="evenodd" d="M130.402 35.5828C132.05 33.8744 132.377 31.8511 131.414 29.6728C130.614 27.8568 130.027 25.8906 127.743 25.2086C125.262 24.4645 123.419 25.3505 122.228 28.4344C123.109 28.0869 123.68 27.8633 124.267 27.63C124.806 27.413 125.344 27.1845 125.85 26.9724C127.204 28.4426 126.829 29.7805 125.736 30.7318C124.969 31.3796 123.745 31.8919 122.799 31.8022C120.955 31.626 119.095 31.2637 117.789 29.5782C115.244 26.3034 115.962 23.0368 119.698 21.2469C123.435 19.4635 127.188 19.1436 130.957 21.0494C141.547 26.3981 149.933 34.1289 156.117 44.2404C156.884 45.4919 157.423 46.8837 158.075 48.2103C158.418 48.1744 158.761 48.1369 159.103 48.0993C158.973 47.2427 159.022 46.3224 158.712 45.5392C156.15 39.0778 152.87 33.0276 148.514 27.568C145.381 23.6291 142.167 19.8061 138.006 16.8658C134.155 14.1556 129.929 12.9922 125.279 13.0559C119.845 13.1293 114.347 18.3392 114.069 24.7338C113.792 30.9455 118.344 37.1622 124.039 38.1755C126.617 38.634 128.673 37.3678 130.402 35.5828Z" fill="#D85858"/>
<path fill-rule="evenodd" clip-rule="evenodd" d="M160.071 72.5309C160.708 72.836 162.176 72.4509 162.666 71.8652C164.053 70.1943 163.547 67.6799 161.834 67.0517C160.12 66.4235 158.048 67.7844 158.113 70.1128C158.13 70.971 159.19 72.123 160.071 72.5309Z" fill="#D85858"/>
<path fill-rule="evenodd" clip-rule="evenodd" d="M179.03 53.8523C176.37 55.8315 173.71 57.8124 171.165 59.9189C169.533 61.2634 168.097 62.8412 166.27 64.605C167.298 65.0815 167.575 65.336 167.771 65.2805C168.163 65.1778 168.571 64.9591 168.864 64.685C174.216 59.7459 180.188 55.8005 187.139 53.4558C193.796 51.2123 200.584 49.9591 207.568 51.3558C211.941 52.2337 216.297 53.3905 220.539 54.766C230.362 57.9462 240.315 60.6417 250.432 62.6731C258.296 64.251 265.982 64.0258 273.683 60.8636C278.611 58.8403 280.944 55.2001 282.364 50.8223C283.506 47.3305 283.049 43.5923 280.177 40.732C278.529 39.1052 276.832 37.516 275.005 36.1062C270.045 32.2669 262.229 34.7487 260.45 40.6243C259.602 43.3916 260.76 45.3855 262.751 47.1037C264.513 48.6407 267.369 49.1335 269.131 47.6666C270.306 46.6941 271.48 44.8389 271.382 43.4667C271.285 42.0227 269.947 40.267 268.658 39.4055C267.124 38.3938 265.672 39.7791 264.595 40.9882C263.942 41.6996 263.436 42.522 262.669 43.545C263.094 39.505 263.567 38.836 266.422 37.8798C272.247 35.9316 278.758 40.0304 279.247 46.2046C279.394 48.0958 279.215 50.5824 278.121 51.8698C276.408 53.849 273.944 55.4122 271.513 56.4646C266.618 58.5776 261.348 58.2856 256.143 57.8483C246.858 57.0667 238.178 53.7152 229.253 51.4227C219.756 48.9883 210.407 45.7967 200.372 46.5228C192.589 47.0857 185.361 49.1384 179.03 53.8523Z" fill="#D85858"/>
<path fill-rule="evenodd" clip-rule="evenodd" d="M71.5109 62.6731C81.6273 60.6417 91.5642 57.9462 101.387 54.766C105.646 53.3905 109.986 52.2337 114.375 51.3558C121.342 49.9591 128.146 51.2123 134.787 53.4558C141.754 55.8005 147.71 59.7459 153.078 64.685C153.372 64.9591 153.78 65.1778 154.172 65.2805C154.367 65.336 154.645 65.0815 155.673 64.605C153.845 62.8412 152.409 61.2634 150.778 59.9189C148.232 57.8124 145.573 55.8315 142.913 53.8523C136.582 49.1384 129.354 47.0857 121.571 46.5228C111.536 45.7967 102.186 48.9883 92.69 51.4227C83.7648 53.7152 75.0843 57.0667 65.8 57.8483C60.5787 58.2856 55.3247 58.5776 50.4297 56.4646C47.9985 55.4122 45.5346 53.849 43.8214 51.8698C42.7282 50.5824 42.5487 48.0958 42.6955 46.2046C43.185 40.0304 49.6791 35.9316 55.5205 37.8798C58.3759 38.836 58.8491 39.505 59.2733 43.545C58.5064 42.522 57.9843 41.6996 57.348 40.9882C56.2547 39.7791 54.8189 38.3938 53.2851 39.4055C51.9961 40.267 50.6581 42.0227 50.5602 43.4667C50.4623 44.8389 51.6371 46.6941 52.8119 47.6666C54.5741 49.1335 57.4295 48.6407 59.1918 47.1037C61.1824 45.3855 62.3409 43.3916 61.4924 40.6243C59.7139 34.7487 51.8982 32.2669 46.9379 36.1062C45.1104 37.516 43.4135 39.1052 41.7655 40.732C38.8937 43.5923 38.4369 47.3305 39.579 50.8223C40.9986 55.2001 43.3319 58.8403 48.2595 60.8636C55.961 64.0258 63.6462 64.251 71.5109 62.6731Z" fill="#D85858"/>
<path fill-rule="evenodd" clip-rule="evenodd" d="M161.905 27.4684C162.644 27.4993 163.013 26.9774 163.223 26.3679C163.6 25.279 163.919 24.1684 164.289 23.0753C165.9 18.2822 166.815 13.4098 166.32 8.31692C166.11 6.21765 165.548 4.23695 164.885 2.26543C164.767 1.90971 164.532 1.58154 164.314 1.26756C163.231 -0.291444 161.511 -0.44342 160.244 0.984488C159.312 2.02912 158.582 3.20902 158.481 4.6745C158.389 6.05732 158.263 7.4393 158.112 9.37324C158.154 10.3669 158.154 11.9109 158.322 13.4374C158.792 17.8113 159.58 22.1276 160.957 26.3211C161.125 26.8238 161.209 27.4392 161.905 27.4684Z" fill="#D85858"/>
<path fill-rule="evenodd" clip-rule="evenodd" d="M149.474 18.0089C150.246 18.5124 151.044 19.0009 151.774 19.5646C153.679 21.0334 155.374 22.706 156.566 24.8328C157.011 25.6269 157.489 26.4394 158.714 26.5521C158.723 26.1638 158.832 25.773 158.714 25.4799C156.994 21.354 155.106 17.3066 152.58 13.5932C151.539 12.0643 150.381 10.6272 148.904 9.47317C148.098 8.84272 147.208 8.38596 146.201 8.20392C144.565 7.90748 143.205 9.09407 143.457 10.714C143.583 11.519 143.952 12.3315 144.388 13.0363C145.656 15.108 147.435 16.692 149.474 18.0089Z" fill="#D85858"/>
<path fill-rule="evenodd" clip-rule="evenodd" d="M151.778 5.73893C152.416 6.40028 153.154 6.98146 153.708 7.70042C154.262 8.41104 154.648 9.24941 155.311 10.3826C155.655 9.89406 155.949 9.66442 155.949 9.4398C155.898 6.53722 154.765 4.10811 152.6 2.16749C152.382 1.96958 152.088 1.83013 151.803 1.72575C151.249 1.52034 150.737 1.65728 150.326 2.07814C149.915 2.50818 149.839 3.02256 150.124 3.55364C150.301 3.88933 150.502 4.2175 150.737 4.51811C151.064 4.94064 151.408 5.35314 151.778 5.73893Z" fill="#D85858"/>
<path fill-rule="evenodd" clip-rule="evenodd" d="M166.325 25.4799C166.207 25.773 166.316 26.1638 166.316 26.5521C167.55 26.4394 168.028 25.6269 168.473 24.8328C169.665 22.706 171.352 21.0334 173.265 19.5646C173.995 19.0009 174.793 18.5124 175.565 18.0089C177.604 16.692 179.383 15.108 180.65 13.0363C181.078 12.3315 181.456 11.519 181.582 10.714C181.834 9.09407 180.466 7.90748 178.838 8.20392C177.831 8.38596 176.941 8.84272 176.135 9.47317C174.658 10.6272 173.492 12.0643 172.459 13.5932C169.933 17.3066 168.045 21.354 166.325 25.4799Z" fill="#D85858"/>
<path fill-rule="evenodd" clip-rule="evenodd" d="M172.065 5.73893C172.443 5.35314 172.787 4.94064 173.114 4.51811C173.349 4.2175 173.55 3.88933 173.727 3.55364C174.012 3.02256 173.937 2.50818 173.525 2.07814C173.114 1.65728 172.602 1.52034 172.048 1.72575C171.763 1.83013 171.469 1.96958 171.251 2.16749C169.086 4.10811 167.953 6.53722 167.902 9.4398C167.902 9.66442 168.196 9.89406 168.54 10.3826C169.203 9.24941 169.589 8.41104 170.135 7.70042C170.697 6.98146 171.427 6.40028 172.065 5.73893Z" fill="#D85858"/>
<path fill-rule="evenodd" clip-rule="evenodd" d="M319.707 58.5487C317.919 52.1632 310.873 48.5737 304.248 48.0622C297.277 47.5237 288.518 50.4367 287.842 58.5772C287.437 63.3652 291.087 68.2912 295.865 68.8447C298.178 69.1102 300.642 68.3572 302.205 66.6382C303.767 64.9177 304.233 62.2087 303.106 60.1837C301.964 58.1587 299.185 57.1492 297.112 58.2052C296.526 58.5112 295.985 58.9837 295.745 59.6062C295.339 60.6592 295.88 61.8892 296.736 62.6227C297.592 63.3562 298.704 63.6997 299.801 64.0192C299.05 66.9487 294.528 67.5697 292.499 65.3332C290.456 63.0982 290.892 59.3647 292.8 57.0232C296.105 52.9777 305.179 50.4727 310.032 52.4497C314.374 54.2167 316.327 59.6257 315.44 64.2202C313.833 72.6307 306.516 78.4567 298.329 79.7512C296.075 80.1097 293.716 80.0857 291.418 80.0197C266.599 79.3177 54.4074 79.3177 29.5886 80.0197C27.29 80.0857 24.9314 80.1097 22.6778 79.7512C14.49 78.4567 7.15855 72.6307 5.55104 64.2202C4.67968 59.6257 6.63288 54.2167 10.9596 52.4497C15.8122 50.4727 24.9014 52.9777 28.2066 57.0232C30.1145 59.3647 30.5351 63.0982 28.507 65.3332C26.4788 67.5697 21.9567 66.9487 21.2056 64.0192C22.2873 63.6997 23.4141 63.3562 24.2704 62.6227C25.1268 61.8892 25.6675 60.6592 25.2618 59.6062C25.0215 58.9837 24.4807 58.5112 23.8798 58.2052C21.8216 57.1492 19.0423 58.1587 17.9005 60.1837C16.7737 62.2087 17.2394 64.9177 18.8018 66.6382C20.3643 68.3572 22.8281 69.1102 25.1267 68.8447C29.9192 68.2912 33.5698 63.3652 33.1642 58.5772C32.4881 50.4367 23.7296 47.5237 16.7587 48.0622C10.1333 48.5737 3.07224 52.1632 1.29947 58.5487C0.322939 62.0392 1.0891 65.7727 2.20084 69.2197C5.17548 78.3697 11.1849 82.6132 20.4544 84.2512C30.7905 86.0767 42.1784 84.6502 52.6347 84.2062C73.262 83.3287 93.844 83.5642 114.471 83.2747C119.94 83.1982 125.408 82.9417 130.877 82.9387C136.691 82.9372 142.505 83.0932 148.304 83.2867C149.476 83.3257 171.53 83.3257 172.702 83.2867C178.501 83.0932 184.316 82.9372 190.13 82.9387C195.598 82.9417 201.067 83.1982 206.535 83.2747C227.162 83.5642 247.745 83.3287 268.357 84.2062C278.813 84.6502 290.201 86.0767 300.552 84.2512C309.822 82.6132 315.831 78.3697 318.806 69.2197C319.917 65.7727 320.669 62.0392 319.707 58.5487Z" fill="#D85858"/>
</svg>
