<svg width="642" height="160" viewBox="0 0 642 160" fill="none" xmlns="http://www.w3.org/2000/svg">
<rect width="642" height="160" fill="url(#paint0_radial_136_224)"/>
<path d="M70 9L70.0766 10.6552C70.3149 15.8084 74.0638 20.0556 79 20.7647C73.9818 21.8744 70.3136 26.3416 70.0637 31.6476L70 33L69.9478 31.7171C69.7304 26.3796 66.0482 21.8724 61 20.7647C65.9657 20.0568 69.7293 15.7697 69.9366 10.5849L70 9Z" fill="#FAF2E6" fill-opacity="0.3"/>
<path d="M424 33L424.051 34.1035C424.21 37.5389 426.709 40.3704 430 40.8431C426.655 41.5829 424.209 44.5611 424.042 48.0984L424 49L423.965 48.1447C423.82 44.5864 421.365 41.5816 418 40.8431C421.31 40.3712 423.82 37.5131 423.958 34.0566L424 33Z" fill="#FAF2E6" fill-opacity="0.5"/>
<path d="M516.5 128L516.572 129.724C516.797 135.092 520.338 139.516 525 140.255C520.261 141.411 516.796 146.064 516.56 151.591L516.5 153L516.451 151.664C516.245 146.104 512.768 141.409 508 140.255C512.69 139.518 516.244 135.052 516.44 129.651L516.5 128Z" fill="#FAF2E6" fill-opacity="0.45"/>
<path d="M144 123L144.077 124.655C144.315 129.808 148.064 134.056 153 134.765C147.982 135.874 144.314 140.342 144.064 145.648L144 147L143.948 145.717C143.73 140.38 140.048 135.872 135 134.765C139.966 134.057 143.729 129.77 143.937 124.585L144 123Z" fill="#FAF2E6" fill-opacity="0.8"/>
<path d="M240 123L240.043 123.966C240.175 126.972 242.258 129.449 245 129.863C242.212 130.51 240.174 133.116 240.035 136.211L240 137L239.971 136.252C239.85 133.138 237.805 130.509 235 129.863C237.759 129.45 239.85 126.949 239.965 123.925L240 123Z" fill="#FAF2E6" fill-opacity="0.3"/>
<path d="M461.5 80L461.538 80.9655C461.657 83.9716 463.532 86.4491 466 86.8627C463.491 87.51 461.657 90.116 461.532 93.2111L461.5 94L461.474 93.2516C461.365 90.1381 459.524 87.5089 457 86.8627C459.483 86.4498 461.365 83.949 461.468 80.9245L461.5 80Z" fill="#FAF2E6" fill-opacity="0.8"/>
<path d="M559 124L559.068 125.655C559.28 130.808 562.612 135.056 567 135.765C562.539 136.874 559.279 141.342 559.057 146.648L559 148L558.954 146.717C558.76 141.38 555.487 136.872 551 135.765C555.414 135.057 558.759 130.77 558.944 125.585L559 124Z" fill="#FAF2E6" fill-opacity="0.3"/>
<path d="M136 50L136.043 50.9655C136.175 53.9716 138.258 56.4491 141 56.8627C138.212 57.51 136.174 60.116 136.035 63.2111L136 64L135.971 63.2516C135.85 60.1381 133.805 57.5089 131 56.8627C133.759 56.4498 135.85 53.949 135.965 50.9245L136 50Z" fill="#FAF2E6" fill-opacity="0.3"/>
<path d="M21 24L21.0425 24.9655C21.175 27.9716 23.2577 30.4491 26 30.8627C23.2121 31.51 21.1742 34.116 21.0354 37.2111L21 38L20.971 37.2516C20.8502 34.1381 18.8046 31.5089 16 30.8627C18.7587 30.4498 20.8496 27.949 20.9648 24.9245L21 24Z" fill="#FAF2E6" fill-opacity="0.3"/>
<path d="M462 3L462.077 4.72417C462.315 10.0921 466.064 14.5162 471 15.2549C465.982 16.4108 462.314 21.0642 462.064 26.5912L462 28L461.948 26.6636C461.73 21.1037 458.048 16.4088 453 15.2549C457.966 14.5175 461.729 10.0517 461.937 4.65098L462 3Z" fill="#FAF2E6" fill-opacity="0.3"/>
<path d="M517 3L517.051 4.17244C517.21 7.82261 519.709 10.831 523 11.3333C519.655 12.1193 517.209 15.2837 517.042 19.042L517 20L516.965 19.0913C516.82 15.3105 514.365 12.118 511 11.3333C514.31 10.8319 516.82 7.79519 516.958 4.12267L517 3Z" fill="#FAF2E6" fill-opacity="0.7"/>
<path d="M342 8L342.043 8.96554C342.175 11.9716 344.258 14.4491 347 14.8627C344.212 15.51 342.174 18.116 342.035 21.2111L342 22L341.971 21.2516C341.85 18.1381 339.805 15.5089 337 14.8627C339.759 14.4498 341.85 11.949 341.965 8.92455L342 8Z" fill="#FAF2E6" fill-opacity="0.6"/>
<path d="M230 24L230.051 25.1035C230.21 28.5389 232.709 31.3704 236 31.8431C232.655 32.5829 230.209 35.5611 230.042 39.0984L230 40L229.965 39.1447C229.82 35.5864 227.365 32.5816 224 31.8431C227.31 31.3712 229.82 28.5131 229.958 25.0566L230 24Z" fill="#FAF2E6" fill-opacity="0.3"/>
<path d="M453 125L453.077 126.724C453.315 132.092 457.064 136.516 462 137.255C456.982 138.411 453.314 143.064 453.064 148.591L453 150L452.948 148.664C452.73 143.104 449.048 138.409 444 137.255C448.966 136.518 452.729 132.052 452.937 126.651L453 125Z" fill="#FAF2E6" fill-opacity="0.3"/>
<path d="M477.5 109L477.521 109.483C477.587 110.986 478.629 112.225 480 112.431C478.606 112.755 477.587 114.058 477.518 115.606L477.5 116L477.485 115.626C477.425 114.069 476.402 112.754 475 112.431C476.379 112.225 477.425 110.974 477.482 109.462L477.5 109Z" fill="#FAF2E6" fill-opacity="0.3"/>
<path d="M489.5 147L489.521 147.483C489.587 148.986 490.629 150.225 492 150.431C490.606 150.755 489.587 152.058 489.518 153.606L489.5 154L489.485 153.626C489.425 152.069 488.402 150.754 487 150.431C488.379 150.225 489.425 148.974 489.482 147.462L489.5 147Z" fill="#FAF2E6" fill-opacity="0.9"/>
<path d="M595.5 151L595.521 151.483C595.587 152.986 596.629 154.225 598 154.431C596.606 154.755 595.587 156.058 595.518 157.606L595.5 158L595.485 157.626C595.425 156.069 594.402 154.754 593 154.431C594.379 154.225 595.425 152.974 595.482 151.462L595.5 151Z" fill="#FAF2E6" fill-opacity="0.9"/>
<path d="M19 69L19.0255 69.4828C19.105 70.9858 20.3546 72.2245 22 72.4314C20.3273 72.755 19.1045 74.058 19.0212 75.6055L19 76L18.9826 75.6258C18.9101 74.069 17.6827 72.7545 16 72.4314C17.6552 72.2249 18.9098 70.9745 18.9789 69.4623L19 69Z" fill="#FAF2E6" fill-opacity="0.85"/>
<path d="M627 71L627.043 71.9655C627.175 74.9716 629.258 77.4491 632 77.8627C629.212 78.51 627.174 81.116 627.035 84.2111L627 85L626.971 84.2516C626.85 81.1381 624.805 78.5089 622 77.8627C624.759 77.4498 626.85 74.949 626.965 71.9245L627 71Z" fill="#FAF2E6" fill-opacity="0.6"/>
<path d="M566 4L566.043 4.96554C566.175 7.97156 568.258 10.4491 571 10.8627C568.212 11.51 566.174 14.116 566.035 17.2111L566 18L565.971 17.2516C565.85 14.1381 563.805 11.5089 561 10.8627C563.759 10.4498 565.85 7.94898 565.965 4.92455L566 4Z" fill="#FAF2E6" fill-opacity="0.9"/>
<path d="M626 134L626.051 135.172C626.21 138.823 628.709 141.831 632 142.333C628.655 143.119 626.209 146.284 626.042 150.042L626 151L625.965 150.091C625.82 146.311 623.365 143.118 620 142.333C623.31 141.832 625.82 138.795 625.958 135.123L626 134Z" fill="#FAF2E6" fill-opacity="0.5"/>
<path d="M372 36L372.043 36.9655C372.175 39.9716 374.258 42.4491 377 42.8627C374.212 43.51 372.174 46.116 372.035 49.2111L372 50L371.971 49.2516C371.85 46.1381 369.805 43.5089 367 42.8627C369.759 42.4498 371.85 39.949 371.965 36.9245L372 36Z" fill="#FAF2E6" fill-opacity="0.3"/>
<path d="M617 108L617.077 109.724C617.315 115.092 621.064 119.516 626 120.255C620.982 121.411 617.314 126.064 617.064 131.591L617 133L616.948 131.664C616.73 126.104 613.048 121.409 608 120.255C612.966 119.518 616.729 115.052 616.937 109.651L617 108Z" fill="#FAF2E6" fill-opacity="0.3"/>
<path d="M214.5 97L214.555 98.3104C214.727 102.39 217.435 105.752 221 106.314C217.376 107.192 214.726 110.729 214.546 114.929L214.5 116L214.462 114.984C214.305 110.759 211.646 107.191 208 106.314C211.586 105.753 214.304 102.359 214.454 98.2547L214.5 97Z" fill="#FAF2E6" fill-opacity="0.3"/>
<path d="M534 123L534.043 123.966C534.175 126.972 536.258 129.449 539 129.863C536.212 130.51 534.174 133.116 534.035 136.211L534 137L533.971 136.252C533.85 133.138 531.805 130.509 529 129.863C531.759 129.45 533.85 126.949 533.965 123.925L534 123Z" fill="#FAF2E6" fill-opacity="0.4"/>
<path d="M531 101L531.051 102.172C531.21 105.823 533.709 108.831 537 109.333C533.655 110.119 531.209 113.284 531.042 117.042L531 118L530.965 117.091C530.82 113.311 528.365 110.118 525 109.333C528.31 108.832 530.82 105.795 530.958 102.123L531 101Z" fill="#FAF2E6" fill-opacity="0.9"/>
<path d="M288 35L288.043 35.9655C288.175 38.9716 290.258 41.4491 293 41.8627C290.212 42.51 288.174 45.116 288.035 48.2111L288 49L287.971 48.2516C287.85 45.1381 285.805 42.5089 283 41.8627C285.759 41.4498 287.85 38.949 287.965 35.9245L288 35Z" fill="#FAF2E6" fill-opacity="0.3"/>
<path d="M201 52L201.043 52.9655C201.175 55.9716 203.258 58.4491 206 58.8627C203.212 59.51 201.174 62.116 201.035 65.2111L201 66L200.971 65.2516C200.85 62.1381 198.805 59.5089 196 58.8627C198.759 58.4498 200.85 55.949 200.965 52.9245L201 52Z" fill="#FAF2E6" fill-opacity="0.3"/>
<path d="M567 51L567.043 51.9655C567.175 54.9716 569.258 57.4491 572 57.8627C569.212 58.51 567.174 61.116 567.035 64.2111L567 65L566.971 64.2516C566.85 61.1381 564.805 58.5089 562 57.8627C564.759 57.4498 566.85 54.949 566.965 51.9245L567 51Z" fill="#FAF2E6" fill-opacity="0.45"/>
<path d="M564.5 92L564.547 93.1724C564.692 96.8226 566.983 99.831 570 100.333C566.933 101.119 564.692 104.284 564.539 108.042L564.5 109L564.468 108.091C564.335 104.311 562.085 101.118 559 100.333C562.035 99.8319 564.335 96.7952 564.461 93.1227L564.5 92Z" fill="#FAF2E6" fill-opacity="0.65"/>
<path d="M612.5 8L612.572 9.72417C612.797 15.0921 616.338 19.5162 621 20.2549C616.261 21.4108 612.796 26.0642 612.56 31.5912L612.5 33L612.451 31.6636C612.245 26.1037 608.768 21.4088 604 20.2549C608.69 19.5175 612.244 15.0517 612.44 9.65098L612.5 8Z" fill="#FAF2E6" fill-opacity="0.65"/>
<path d="M94 5L94.0425 5.96554C94.175 8.97156 96.2577 11.4491 99 11.8627C96.2121 12.51 94.1742 15.116 94.0354 18.2111L94 19L93.971 18.2516C93.8502 15.1381 91.8046 12.5089 89 11.8627C91.7587 11.4498 93.8496 8.94898 93.9648 5.92455L94 5Z" fill="#FAF2E6" fill-opacity="0.3"/>
<path d="M73 94L73.051 95.1035C73.2099 98.5389 75.7092 101.37 79 101.843C75.6545 102.583 73.2091 105.561 73.0425 109.098L73 110L72.9652 109.145C72.8203 105.586 70.3655 102.582 67 101.843C70.3105 101.371 72.8195 98.5131 72.9577 95.0566L73 94Z" fill="#FAF2E6" fill-opacity="0.35"/>
<path d="M65.5 75L65.5808 76.7242C65.8324 82.0921 69.7896 86.5162 75 87.2549C69.703 88.4108 65.831 93.0642 65.5672 98.5912L65.5 100L65.4449 98.6636C65.2155 93.1037 61.3287 88.4088 56 87.2549C61.2416 86.5175 65.2143 82.0517 65.4331 76.651L65.5 75Z" fill="#FAF2E6" fill-opacity="0.6"/>
<path d="M298.5 58L298.538 58.9655C298.657 61.9716 300.532 64.4491 303 64.8627C300.491 65.51 298.657 68.116 298.532 71.2111L298.5 72L298.474 71.2516C298.365 68.1381 296.524 65.5089 294 64.8627C296.483 64.4498 298.365 61.949 298.468 58.9245L298.5 58Z" fill="#FAF2E6" fill-opacity="0.5"/>
<path d="M319 134L319.043 134.966C319.175 137.972 321.258 140.449 324 140.863C321.212 141.51 319.174 144.116 319.035 147.211L319 148L318.971 147.252C318.85 144.138 316.805 141.509 314 140.863C316.759 140.45 318.85 137.949 318.965 134.925L319 134Z" fill="#FAF2E6" fill-opacity="0.65"/>
<path d="M149.5 41L149.572 42.7242C149.797 48.0921 153.338 52.5162 158 53.2549C153.261 54.4108 149.796 59.0642 149.56 64.5912L149.5 66L149.451 64.6636C149.245 59.1037 145.768 54.4088 141 53.2549C145.69 52.5175 149.244 48.0517 149.44 42.651L149.5 41Z" fill="#FAF2E6" fill-opacity="0.65"/>
<path d="M185 73L185.043 73.9655C185.175 76.9716 187.258 79.4491 190 79.8627C187.212 80.51 185.174 83.116 185.035 86.2111L185 87L184.971 86.2516C184.85 83.1381 182.805 80.5089 180 79.8627C182.759 79.4498 184.85 76.949 184.965 73.9245L185 73Z" fill="#FAF2E6" fill-opacity="0.65"/>
<path d="M170 116L170.043 116.966C170.175 119.972 172.258 122.449 175 122.863C172.212 123.51 170.174 126.116 170.035 129.211L170 130L169.971 129.252C169.85 126.138 167.805 123.509 165 122.863C167.759 122.45 169.85 119.949 169.965 116.925L170 116Z" fill="#FAF2E6" fill-opacity="0.65"/>
<path d="M80 111L80.0425 111.966C80.175 114.972 82.2577 117.449 85 117.863C82.2121 118.51 80.1742 121.116 80.0354 124.211L80 125L79.971 124.252C79.8502 121.138 77.8046 118.509 75 117.863C77.7587 117.45 79.8496 114.949 79.9648 111.925L80 111Z" fill="#FAF2E6" fill-opacity="0.65"/>
<path d="M99 86L99.0425 86.9655C99.175 89.9716 101.258 92.4491 104 92.8627C101.212 93.51 99.1742 96.116 99.0354 99.2111L99 100L98.971 99.2516C98.8502 96.1381 96.8046 93.5089 94 92.8627C96.7587 92.4498 98.8496 89.949 98.9648 86.9245L99 86Z" fill="#FAF2E6" fill-opacity="0.65"/>
<path d="M182 14L182.043 14.9655C182.175 17.9716 184.258 20.4491 187 20.8627C184.212 21.51 182.174 24.116 182.035 27.2111L182 28L181.971 27.2516C181.85 24.1381 179.805 21.5089 177 20.8627C179.759 20.4498 181.85 17.949 181.965 14.9245L182 14Z" fill="#FAF2E6" fill-opacity="0.65"/>
<path d="M259.5 68L259.538 68.9655C259.657 71.9716 261.532 74.4491 264 74.8627C261.491 75.51 259.657 78.116 259.532 81.2111L259.5 82L259.474 81.2516C259.365 78.1381 257.524 75.5089 255 74.8627C257.483 74.4498 259.365 71.949 259.468 68.9245L259.5 68Z" fill="#FAF2E6" fill-opacity="0.65"/>
<path d="M196 137L196.026 137.483C196.105 138.986 197.355 140.225 199 140.431C197.327 140.755 196.105 142.058 196.021 143.606L196 144L195.983 143.626C195.91 142.069 194.683 140.754 193 140.431C194.655 140.225 195.91 138.974 195.979 137.462L196 137Z" fill="#FAF2E6" fill-opacity="0.65"/>
<path d="M214 82L214.026 82.4828C214.105 83.9858 215.355 85.2245 217 85.4314C215.327 85.755 214.105 87.058 214.021 88.6055L214 89L213.983 88.6258C213.91 87.069 212.683 85.7545 211 85.4314C212.655 85.2249 213.91 83.9745 213.979 82.4623L214 82Z" fill="#FAF2E6" fill-opacity="0.65"/>
<path d="M546.5 33L546.581 35.069C546.832 41.5105 550.79 46.8195 556 47.7058C550.703 49.093 546.831 54.677 546.567 61.3094L546.5 63L546.445 61.3964C546.215 54.7245 542.329 49.0905 537 47.7058C542.242 46.821 546.214 41.4621 546.433 34.9812L546.5 33Z" fill="#FAF2E6" fill-opacity="0.65"/>
<path d="M344.5 60L344.521 60.5517C344.587 62.2695 345.629 63.6852 347 63.9216C345.606 64.2915 344.587 65.7805 344.518 67.5492L344.5 68L344.485 67.5724C344.425 65.7932 343.402 64.2908 342 63.9216C343.379 63.6856 344.425 62.2566 344.482 60.5283L344.5 60Z" fill="#FAF2E6" fill-opacity="0.65"/>
<path d="M395 104L395.06 105.517C395.245 110.241 398.161 114.134 402 114.784C398.097 115.801 395.244 119.896 395.05 124.76L395 126L394.959 124.824C394.79 119.931 391.926 115.8 388 114.784C391.862 114.135 394.789 110.206 394.951 105.453L395 104Z" fill="#FAF2E6" fill-opacity="0.65"/>
<path d="M627.5 45L627.521 45.5517C627.587 47.2695 628.629 48.6852 630 48.9216C628.606 49.2915 627.587 50.7805 627.518 52.5492L627.5 53L627.485 52.5724C627.425 50.7932 626.402 49.2908 625 48.9216C626.379 48.6856 627.425 47.2566 627.482 45.5283L627.5 45Z" fill="#FAF2E6" fill-opacity="0.65"/>
<path d="M386.5 55L386.555 56.1724C386.727 59.8226 389.435 62.831 393 63.3333C389.376 64.1193 386.726 67.2837 386.546 71.042L386.5 72L386.462 71.0913C386.305 67.3105 383.646 64.118 380 63.3333C383.586 62.8319 386.304 59.7952 386.454 56.1227L386.5 55Z" fill="#FAF2E6" fill-opacity="0.65"/>
<path d="M519.5 81L519.521 81.5517C519.587 83.2695 520.629 84.6852 522 84.9216C520.606 85.2915 519.587 86.7805 519.518 88.5492L519.5 89L519.485 88.5724C519.425 86.7932 518.402 85.2908 517 84.9216C518.379 84.6856 519.425 83.2566 519.482 81.5283L519.5 81Z" fill="#FAF2E6" fill-opacity="0.8"/>
<path d="M416.5 72L416.538 72.9655C416.657 75.9716 418.532 78.4491 421 78.8627C418.491 79.51 416.657 82.116 416.532 85.2111L416.5 86L416.474 85.2516C416.365 82.1381 414.524 79.5089 412 78.8627C414.483 78.4498 416.365 75.949 416.468 72.9245L416.5 72Z" fill="#FAF2E6" fill-opacity="0.3"/>
<path d="M367 90L367.043 90.9655C367.175 93.9716 369.258 96.4491 372 96.8627C369.212 97.51 367.174 100.116 367.035 103.211L367 104L366.971 103.252C366.85 100.138 364.805 97.5089 362 96.8627C364.759 96.4498 366.85 93.949 366.965 90.9245L367 90Z" fill="#FAF2E6" fill-opacity="0.7"/>
<path d="M174.5 85L174.589 87C174.867 93.2268 179.241 98.3588 185 99.2156C179.145 100.557 174.866 105.954 174.574 112.366L174.5 114L174.439 112.45C174.186 106 169.89 100.554 164 99.2156C169.793 98.3603 174.184 93.18 174.426 86.9151L174.5 85Z" fill="#FAF2E6" fill-opacity="0.3"/>
<path d="M154.5 2L154.589 4.00004C154.867 10.2268 159.241 15.3588 165 16.2156C159.145 17.5565 154.866 22.9545 154.574 29.3658L154.5 31L154.439 29.4498C154.186 23.0003 149.89 17.5542 144 16.2156C149.793 15.3603 154.184 10.18 154.426 3.91514L154.5 2Z" fill="#FAF2E6" fill-opacity="0.6"/>
<path d="M357.5 123L357.538 123.966C357.657 126.972 359.532 129.449 362 129.863C359.491 130.51 357.657 133.116 357.532 136.211L357.5 137L357.474 136.252C357.365 133.138 355.524 130.509 353 129.863C355.483 129.45 357.365 126.949 357.468 123.925L357.5 123Z" fill="#FAF2E6" fill-opacity="0.3"/>
<path d="M593 72L593.043 72.9655C593.175 75.9716 595.258 78.4491 598 78.8627C595.212 79.51 593.174 82.116 593.035 85.2111L593 86L592.971 85.2516C592.85 82.1381 590.805 79.5089 588 78.8627C590.759 78.4498 592.85 75.949 592.965 72.9245L593 72Z" fill="#FAF2E6" fill-opacity="0.3"/>
<path d="M337 82L337.043 82.9655C337.175 85.9716 339.258 88.4491 342 88.8627C339.212 89.51 337.174 92.116 337.035 95.2111L337 96L336.971 95.2516C336.85 92.1381 334.805 89.5089 332 88.8627C334.759 88.4498 336.85 85.949 336.965 82.9245L337 82Z" fill="#FAF2E6" fill-opacity="0.3"/>
<path d="M300 80L300.068 81.5862C300.28 86.5247 303.612 90.5949 308 91.2745C303.539 92.3379 300.279 96.6191 300.057 101.704L300 103L299.954 101.771C299.76 96.6554 296.487 92.3361 292 91.2745C296.414 90.5961 299.759 86.4876 299.944 81.5189L300 80Z" fill="#FAF2E6" fill-opacity="0.3"/>
<path d="M19 90L19.0595 91.3793C19.2449 95.6737 22.1608 99.213 26 99.8039C22.097 100.729 19.2439 104.451 19.0495 108.873L19 110L18.9594 108.931C18.7903 104.483 15.9264 100.727 12 99.8039C15.8622 99.214 18.7895 95.6414 18.9507 91.3208L19 90Z" fill="#FAF2E6" fill-opacity="0.3"/>
<path d="M480.5 66L480.564 67.4483C480.762 71.9573 483.887 75.6736 488 76.2941C483.818 77.2651 480.761 81.1739 480.553 85.8166L480.5 87L480.456 85.8775C480.275 81.2071 477.207 77.2634 473 76.2941C477.138 75.6747 480.274 71.9235 480.447 67.3868L480.5 66Z" fill="#FAF2E6" fill-opacity="0.3"/>
<path d="M266 8L266.043 8.96554C266.175 11.9716 268.258 14.4491 271 14.8627C268.212 15.51 266.174 18.116 266.035 21.2111L266 22L265.971 21.2516C265.85 18.1381 263.805 15.5089 261 14.8627C263.759 14.4498 265.85 11.949 265.965 8.92455L266 8Z" fill="#FAF2E6" fill-opacity="0.45"/>
<path d="M425.5 116L425.538 116.966C425.657 119.972 427.532 122.449 430 122.863C427.491 123.51 425.657 126.116 425.532 129.211L425.5 130L425.474 129.252C425.365 126.138 423.524 123.509 421 122.863C423.483 122.45 425.365 119.949 425.468 116.925L425.5 116Z" fill="#FAF2E6" fill-opacity="0.65"/>
<path d="M293.5 100L293.555 101.172C293.727 104.823 296.435 107.831 300 108.333C296.376 109.119 293.726 112.284 293.546 116.042L293.5 117L293.462 116.091C293.305 112.311 290.646 109.118 287 108.333C290.586 107.832 293.304 104.795 293.454 101.123L293.5 100Z" fill="#FAF2E6" fill-opacity="0.65"/>
<path d="M14 43L14.051 44.1724C14.2099 47.8226 16.7092 50.831 20 51.3333C16.6545 52.1193 14.2091 55.2837 14.0425 59.042L14 60L13.9652 59.0913C13.8203 55.3105 11.3655 52.118 8 51.3333C11.3105 50.8319 13.8195 47.7952 13.9577 44.1227L14 43Z" fill="#FAF2E6" fill-opacity="0.7"/>
<path d="M313 36L313.043 36.9655C313.175 39.9716 315.258 42.4491 318 42.8627C315.212 43.51 313.174 46.116 313.035 49.2111L313 50L312.971 49.2516C312.85 46.1381 310.805 43.5089 308 42.8627C310.759 42.4498 312.85 39.949 312.965 36.9245L313 36Z" fill="#FAF2E6" fill-opacity="0.8"/>
<path d="M397 146L397.043 146.966C397.175 149.972 399.258 152.449 402 152.863C399.212 153.51 397.174 156.116 397.035 159.211L397 160L396.971 159.252C396.85 156.138 394.805 153.509 392 152.863C394.759 152.45 396.85 149.949 396.965 146.925L397 146Z" fill="#FAF2E6" fill-opacity="0.3"/>
<path d="M593 123L593.043 123.966C593.175 126.972 595.258 129.449 598 129.863C595.212 130.51 593.174 133.116 593.035 136.211L593 137L592.971 136.252C592.85 133.138 590.805 130.509 588 129.863C590.759 129.45 592.85 126.949 592.965 123.925L593 123Z" fill="#FAF2E6" fill-opacity="0.8"/>
<path d="M582 18L582.051 19.2414C582.21 23.1063 584.709 26.2917 588 26.8235C584.655 27.6558 582.209 31.0062 582.042 34.9857L582 36L581.965 35.0378C581.82 31.0347 579.365 27.6543 576 26.8235C579.31 26.2926 581.82 23.0773 581.958 19.1887L582 18Z" fill="#FAF2E6" fill-opacity="0.45"/>
<path d="M245 43L245.043 43.9655C245.175 46.9716 247.258 49.4491 250 49.8627C247.212 50.51 245.174 53.116 245.035 56.2111L245 57L244.971 56.2516C244.85 53.1381 242.805 50.5089 240 49.8627C242.759 49.4498 244.85 46.949 244.965 43.9245L245 43Z" fill="#FAF2E6" fill-opacity="0.7"/>
<path d="M604 49L604.026 49.6207C604.105 51.5531 605.355 53.1458 607 53.4117C605.327 53.8279 604.105 55.5031 604.021 57.4928L604 58L603.983 57.5189C603.91 55.5173 602.683 53.8272 601 53.4117C602.655 53.1463 603.91 51.5386 603.979 49.5944L604 49Z" fill="#FAF2E6" fill-opacity="0.3"/>
<path d="M313.5 8L313.53 8.6207C313.622 10.5531 315.08 12.1458 317 12.4117C315.048 12.8279 313.622 14.5031 313.525 16.4928L313.5 17L313.48 16.5189C313.395 14.5173 311.963 12.8272 310 12.4117C311.931 12.1463 313.395 10.5386 313.475 8.59435L313.5 8Z" fill="#FAF2E6" fill-opacity="0.45"/>
<path d="M490 50L490.043 50.9655C490.175 53.9716 492.258 56.4491 495 56.8627C492.212 57.51 490.174 60.116 490.035 63.2111L490 64L489.971 63.2516C489.85 60.1381 487.805 57.5089 485 56.8627C487.759 56.4498 489.85 53.949 489.965 50.9245L490 50Z" fill="#FAF2E6" fill-opacity="0.6"/>
<path d="M392 6L392.043 6.96554C392.175 9.97156 394.258 12.4491 397 12.8627C394.212 13.51 392.174 16.116 392.035 19.2111L392 20L391.971 19.2516C391.85 16.1381 389.805 13.5089 387 12.8627C389.759 12.4498 391.85 9.94898 391.965 6.92455L392 6Z" fill="#FAF2E6" fill-opacity="0.8"/>
<path d="M579 157L578.923 155.345C578.685 150.192 574.936 145.944 570 145.235C575.018 144.126 578.686 139.658 578.936 134.352L579 133L579.052 134.283C579.27 139.62 582.952 144.128 588 145.235C583.034 145.943 579.271 150.23 579.063 155.415L579 157Z" fill="#FAF2E6" fill-opacity="0.3"/>
<path d="M217 134L216.949 132.897C216.79 129.461 214.291 126.63 211 126.157C214.345 125.417 216.791 122.439 216.958 118.902L217 118L217.035 118.855C217.18 122.414 219.635 125.418 223 126.157C219.69 126.629 217.18 129.487 217.042 132.943L217 134Z" fill="#FAF2E6" fill-opacity="0.5"/>
<path d="M127.5 34L127.428 32.2758C127.203 26.9079 123.662 22.4838 119 21.7451C123.739 20.5892 127.204 15.9358 127.44 10.4088L127.5 9L127.549 10.3364C127.755 15.8963 131.232 20.5912 136 21.7451C131.31 22.4825 127.756 26.9483 127.56 32.349L127.5 34Z" fill="#FAF2E6" fill-opacity="0.45"/>
<path d="M520 44L519.923 42.3448C519.685 37.1916 515.936 32.9444 511 32.2353C516.018 31.1256 519.686 26.6584 519.936 21.3524L520 20L520.052 21.2829C520.27 26.6204 523.952 31.1276 529 32.2353C524.034 32.9432 520.271 37.2303 520.063 42.4151L520 44Z" fill="#FAF2E6" fill-opacity="0.8"/>
<path d="M404 39L403.957 38.0345C403.825 35.0284 401.742 32.5509 399 32.1373C401.788 31.49 403.826 28.884 403.965 25.7889L404 25L404.029 25.7484C404.15 28.8619 406.195 31.4911 409 32.1373C406.241 32.5502 404.15 35.051 404.035 38.0755L404 39Z" fill="#FAF2E6" fill-opacity="0.3"/>
<path d="M174.5 64L174.462 63.0345C174.343 60.0284 172.468 57.5509 170 57.1373C172.509 56.49 174.343 53.884 174.468 50.7889L174.5 50L174.526 50.7484C174.635 53.8619 176.476 56.4911 179 57.1373C176.517 57.5502 174.635 60.051 174.532 63.0755L174.5 64Z" fill="#FAF2E6" fill-opacity="0.8"/>
<path d="M91 51L90.9319 49.3448C90.7201 44.1916 87.3877 39.9444 83 39.2353C87.4606 38.1256 90.7212 33.6584 90.9434 28.3524L91 27L91.0464 28.2829C91.2396 33.6204 94.5127 38.1276 99 39.2353C94.5861 39.9432 91.2406 44.2303 91.0563 49.4151L91 51Z" fill="#FAF2E6" fill-opacity="0.3"/>
<path d="M508 112L507.957 111.034C507.825 108.028 505.742 105.551 503 105.137C505.788 104.49 507.826 101.884 507.965 98.7889L508 98L508.029 98.7484C508.15 101.862 510.195 104.491 513 105.137C510.241 105.55 508.15 108.051 508.035 111.075L508 112Z" fill="#FAF2E6" fill-opacity="0.3"/>
<path d="M623 138L622.957 137.034C622.825 134.028 620.742 131.551 618 131.137C620.788 130.49 622.826 127.884 622.965 124.789L623 124L623.029 124.748C623.15 127.862 625.195 130.491 628 131.137C625.241 131.55 623.15 134.051 623.035 137.075L623 138Z" fill="#FAF2E6" fill-opacity="0.3"/>
<path d="M182 159L181.923 157.276C181.685 151.908 177.936 147.484 173 146.745C178.018 145.589 181.686 140.936 181.936 135.409L182 134L182.052 135.336C182.27 140.896 185.952 145.591 191 146.745C186.034 147.482 182.271 151.948 182.063 157.349L182 159Z" fill="#FAF2E6" fill-opacity="0.3"/>
<path d="M127 159L126.949 157.828C126.79 154.177 124.291 151.169 121 150.667C124.345 149.881 126.791 146.716 126.958 142.958L127 142L127.035 142.909C127.18 146.689 129.635 149.882 133 150.667C129.69 151.168 127.18 154.205 127.042 157.877L127 159Z" fill="#FAF2E6" fill-opacity="0.7"/>
<path d="M302 154L301.957 153.034C301.825 150.028 299.742 147.551 297 147.137C299.788 146.49 301.826 143.884 301.965 140.789L302 140L302.029 140.748C302.15 143.862 304.195 146.491 307 147.137C304.241 147.55 302.15 150.051 302.035 153.075L302 154Z" fill="#FAF2E6" fill-opacity="0.6"/>
<path d="M414 138L413.949 136.897C413.79 133.461 411.291 130.63 408 130.157C411.345 129.417 413.791 126.439 413.958 122.902L414 122L414.035 122.855C414.18 126.414 416.635 129.418 420 130.157C416.69 130.629 414.18 133.487 414.042 136.943L414 138Z" fill="#FAF2E6" fill-opacity="0.3"/>
<path d="M204 17L203.957 16.0345C203.825 13.0284 201.742 10.5509 199 10.1373C201.788 9.48996 203.826 6.88405 203.965 3.78893L204 3L204.029 3.74836C204.15 6.86191 206.195 9.49109 209 10.1373C206.241 10.5502 204.15 13.051 204.035 16.0755L204 17Z" fill="#FAF2E6" fill-opacity="0.3"/>
<path d="M166.5 53L166.479 52.5172C166.413 51.0142 165.371 49.7755 164 49.5686C165.394 49.245 166.413 47.942 166.482 46.3945L166.5 46L166.515 46.3742C166.575 47.931 167.598 49.2455 169 49.5686C167.621 49.7751 166.575 51.0255 166.518 52.5377L166.5 53Z" fill="#FAF2E6" fill-opacity="0.3"/>
<path d="M146.5 11L146.479 10.5172C146.413 9.01422 145.371 7.77546 144 7.56864C145.394 7.24498 146.413 5.94202 146.482 4.39446L146.5 4L146.515 4.37418C146.575 5.93095 147.598 7.24555 149 7.56864C147.621 7.77509 146.575 9.02551 146.518 10.5377L146.5 11Z" fill="#FAF2E6" fill-opacity="0.9"/>
<path d="M48.5 11L48.4787 10.5172C48.4125 9.01422 47.3712 7.77546 46 7.56864C47.3939 7.24498 48.4129 5.94202 48.4823 4.39446L48.5 4L48.5145 4.37418C48.5749 5.93095 49.5977 7.24555 51 7.56864C49.6206 7.77509 48.5752 9.02551 48.5176 10.5377L48.5 11Z" fill="#FAF2E6" fill-opacity="0.9"/>
<path d="M625 93L624.974 92.5172C624.895 91.0142 623.645 89.7755 622 89.5686C623.673 89.245 624.895 87.942 624.979 86.3945L625 86L625.017 86.3742C625.09 87.931 626.317 89.2455 628 89.5686C626.345 89.7751 625.09 91.0255 625.021 92.5377L625 93Z" fill="#FAF2E6" fill-opacity="0.85"/>
<path d="M17 91L16.9575 90.0345C16.825 87.0284 14.7423 84.5509 12 84.1373C14.7879 83.49 16.8258 80.884 16.9646 77.7889L17 77L17.029 77.7484C17.1498 80.8619 19.1954 83.4911 22 84.1373C19.2413 84.5502 17.1504 87.051 17.0352 90.0755L17 91Z" fill="#FAF2E6" fill-opacity="0.6"/>
<path d="M18 28L17.949 26.8276C17.7901 23.1774 15.2908 20.169 12 19.6667C15.3455 18.8807 17.7909 15.7163 17.9575 11.958L18 11L18.0348 11.9087C18.1797 15.6895 20.6345 18.882 24 19.6667C20.6895 20.1681 18.1805 23.2048 18.0423 26.8773L18 28Z" fill="#FAF2E6" fill-opacity="0.5"/>
<path d="M272 126L271.957 125.034C271.825 122.028 269.742 119.551 267 119.137C269.788 118.49 271.826 115.884 271.965 112.789L272 112L272.029 112.748C272.15 115.862 274.195 118.491 277 119.137C274.241 119.55 272.15 122.051 272.035 125.075L272 126Z" fill="#FAF2E6" fill-opacity="0.3"/>
<path d="M39 48L38.9405 46.6896C38.7551 42.61 35.8392 39.2477 32 38.6863C35.903 37.8078 38.7561 34.2712 38.9505 30.0707L39 29L39.0406 30.0156C39.2097 34.2412 42.0736 37.8093 46 38.6863C42.1378 39.2467 39.2105 42.6407 39.0493 46.7453L39 48Z" fill="#FAF2E6" fill-opacity="0.3"/>
<path d="M429 28L428.932 26.4138C428.72 21.4753 425.388 17.4051 421 16.7255C425.461 15.6621 428.721 11.3809 428.943 6.29609L429 5L429.046 6.22946C429.24 11.3446 432.513 15.6639 437 16.7255C432.586 17.4039 429.241 21.5124 429.056 26.4811L429 28Z" fill="#FAF2E6" fill-opacity="0.3"/>
<path d="M110 39L109.957 38.0345C109.825 35.0284 107.742 32.5509 105 32.1373C107.788 31.49 109.826 28.884 109.965 25.7889L110 25L110.029 25.7484C110.15 28.8619 112.195 31.4911 115 32.1373C112.241 32.5502 110.15 35.051 110.035 38.0755L110 39Z" fill="#FAF2E6" fill-opacity="0.4"/>
<path d="M99.5 57L99.4617 56.1034C99.3425 53.3121 97.4681 51.0116 95 50.6275C97.5091 50.0264 99.3432 47.6066 99.4682 44.7326L99.5 44L99.5261 44.6949C99.6348 47.5861 101.476 50.0274 104 50.6275C101.517 51.0109 99.6353 53.3331 99.5317 56.1415L99.5 57Z" fill="#FAF2E6" fill-opacity="0.9"/>
<path d="M351 126L350.957 125.034C350.825 122.028 348.742 119.551 346 119.137C348.788 118.49 350.826 115.884 350.965 112.789L351 112L351.029 112.748C351.15 115.862 353.195 118.491 356 119.137C353.241 119.55 351.15 122.051 351.035 125.075L351 126Z" fill="#FAF2E6" fill-opacity="0.3"/>
<path d="M443 110L442.957 109.034C442.825 106.028 440.742 103.551 438 103.137C440.788 102.49 442.826 99.884 442.965 96.7889L443 96L443.029 96.7484C443.15 99.8619 445.195 102.491 448 103.137C445.241 103.55 443.15 106.051 443.035 109.075L443 110Z" fill="#FAF2E6" fill-opacity="0.3"/>
<path d="M133 48L132.957 47.0345C132.825 44.0284 130.742 41.5509 128 41.1373C130.788 40.49 132.826 37.884 132.965 34.7889L133 34L133.029 34.7484C133.15 37.8619 135.195 40.4911 138 41.1373C135.241 41.5502 133.15 44.051 133.035 47.0755L133 48Z" fill="#FAF2E6" fill-opacity="0.45"/>
<path d="M79.5 70L79.4532 68.8276C79.3076 65.1774 77.0165 62.169 74 61.6667C77.0667 60.8807 79.3084 57.7163 79.4611 53.958L79.5 53L79.5319 53.9087C79.6647 57.6895 81.915 60.882 85 61.6667C81.9654 62.1681 79.6654 65.2048 79.5387 68.8773L79.5 70Z" fill="#FAF2E6" fill-opacity="0.65"/>
<path d="M31.5 154L31.4277 152.276C31.2026 146.908 27.6619 142.484 23 141.745C27.7394 140.589 31.2038 135.936 31.4398 130.409L31.5 129L31.5493 130.336C31.7546 135.896 35.2322 140.591 40 141.745C35.3102 142.482 31.7557 146.948 31.5599 152.349L31.5 154Z" fill="#FAF2E6" fill-opacity="0.65"/>
<path d="M532 154L531.957 153.034C531.825 150.028 529.742 147.551 527 147.137C529.788 146.49 531.826 143.884 531.965 140.789L532 140L532.029 140.748C532.15 143.862 534.195 146.491 537 147.137C534.241 147.55 532.15 150.051 532.035 153.075L532 154Z" fill="#FAF2E6" fill-opacity="0.9"/>
<path d="M577 71L576.949 69.8965C576.79 66.4611 574.291 63.6296 571 63.1569C574.345 62.4171 576.791 59.4389 576.958 55.9016L577 55L577.035 55.8553C577.18 59.4136 579.635 62.4184 583 63.1569C579.69 63.6288 577.18 66.4869 577.042 69.9434L577 71Z" fill="#FAF2E6" fill-opacity="0.35"/>
<path d="M574.5 99L574.428 97.4138C574.203 92.4753 570.662 88.4051 566 87.7255C570.739 86.6621 574.204 82.3809 574.44 77.2961L574.5 76L574.549 77.2295C574.755 82.3446 578.232 86.6639 583 87.7255C578.31 88.4039 574.756 92.5124 574.56 97.4811L574.5 99Z" fill="#FAF2E6" fill-opacity="0.6"/>
<path d="M345.5 104L345.462 103.034C345.343 100.028 343.468 97.5509 341 97.1373C343.509 96.49 345.343 93.884 345.468 90.7889L345.5 90L345.526 90.7484C345.635 93.8619 347.476 96.4911 350 97.1373C347.517 97.5502 345.635 100.051 345.532 103.075L345.5 104Z" fill="#FAF2E6" fill-opacity="0.5"/>
<path d="M325 28L324.957 27.0345C324.825 24.0284 322.742 21.5509 320 21.1373C322.788 20.49 324.826 17.884 324.965 14.7889L325 14L325.029 14.7484C325.15 17.8619 327.195 20.4911 330 21.1373C327.241 21.5502 325.15 24.051 325.035 27.0755L325 28Z" fill="#FAF2E6" fill-opacity="0.65"/>
<path d="M494.5 121L494.428 119.276C494.203 113.908 490.662 109.484 486 108.745C490.739 107.589 494.204 102.936 494.44 97.4088L494.5 96L494.549 97.3364C494.755 102.896 498.232 107.591 503 108.745C498.31 109.482 494.756 113.948 494.56 119.349L494.5 121Z" fill="#FAF2E6" fill-opacity="0.65"/>
<path d="M456 72L455.957 71.0345C455.825 68.0284 453.742 65.5509 451 65.1373C453.788 64.49 455.826 61.884 455.965 58.7889L456 58L456.029 58.7484C456.15 61.8619 458.195 64.4911 461 65.1373C458.241 65.5502 456.15 68.051 456.035 71.0755L456 72Z" fill="#FAF2E6" fill-opacity="0.65"/>
<path d="M474 46L473.957 45.0345C473.825 42.0284 471.742 39.5509 469 39.1373C471.788 38.49 473.826 35.884 473.965 32.7889L474 32L474.029 32.7484C474.15 35.8619 476.195 38.4911 479 39.1373C476.241 39.5502 474.15 42.051 474.035 45.0755L474 46Z" fill="#FAF2E6" fill-opacity="0.65"/>
<path d="M556 34L555.957 33.0345C555.825 30.0284 553.742 27.5509 551 27.1373C553.788 26.49 555.826 23.884 555.965 20.7889L556 20L556.029 20.7484C556.15 23.8619 558.195 26.4911 561 27.1373C558.241 27.5502 556.15 30.051 556.035 33.0755L556 34Z" fill="#FAF2E6" fill-opacity="0.65"/>
<path d="M549 83L548.957 82.0345C548.825 79.0284 546.742 76.5509 544 76.1373C546.788 75.49 548.826 72.884 548.965 69.7889L549 69L549.029 69.7484C549.15 72.8619 551.195 75.4911 554 76.1373C551.241 76.5502 549.15 79.051 549.035 82.0755L549 83Z" fill="#FAF2E6" fill-opacity="0.65"/>
<path d="M462 148L461.957 147.034C461.825 144.028 459.742 141.551 457 141.137C459.788 140.49 461.826 137.884 461.965 134.789L462 134L462.029 134.748C462.15 137.862 464.195 140.491 467 141.137C464.241 141.55 462.15 144.051 462.035 147.075L462 148Z" fill="#FAF2E6" fill-opacity="0.65"/>
<path d="M384.5 94L384.462 93.0345C384.343 90.0284 382.468 87.5509 380 87.1373C382.509 86.49 384.343 83.884 384.468 80.7889L384.5 80L384.526 80.7484C384.635 83.8619 386.476 86.4911 389 87.1373C386.517 87.5502 384.635 90.051 384.532 93.0755L384.5 94Z" fill="#FAF2E6" fill-opacity="0.65"/>
<path d="M448 25L447.974 24.5172C447.895 23.0142 446.645 21.7755 445 21.5686C446.673 21.245 447.895 19.942 447.979 18.3945L448 18L448.017 18.3742C448.09 19.931 449.317 21.2455 451 21.5686C449.345 21.7751 448.09 23.0255 448.021 24.5377L448 25Z" fill="#FAF2E6" fill-opacity="0.65"/>
<path d="M430 80L429.974 79.5172C429.895 78.0142 428.645 76.7755 427 76.5686C428.673 76.245 429.895 74.942 429.979 73.3945L430 73L430.017 73.3742C430.09 74.931 431.317 76.2455 433 76.5686C431.345 76.7751 430.09 78.0255 430.021 79.5377L430 80Z" fill="#FAF2E6" fill-opacity="0.65"/>
<path d="M109.5 139L109.419 136.931C109.168 130.49 105.21 125.181 100 124.294C105.297 122.907 109.169 117.323 109.433 110.691L109.5 109L109.555 110.604C109.785 117.276 113.671 122.909 119 124.294C113.758 125.179 109.786 130.538 109.567 137.019L109.5 139Z" fill="#FAF2E6" fill-opacity="0.65"/>
<path d="M299.5 102L299.479 101.448C299.413 99.7305 298.371 98.3148 297 98.0784C298.394 97.7085 299.413 96.2195 299.482 94.4508L299.5 94L299.515 94.4276C299.575 96.2068 300.598 97.7092 302 98.0784C300.621 98.3144 299.575 99.7434 299.518 101.472L299.5 102Z" fill="#FAF2E6" fill-opacity="0.65"/>
<path d="M223.5 72L223.445 70.6207C223.273 66.3263 220.565 62.787 217 62.1961C220.624 61.2714 223.274 57.5486 223.454 53.127L223.5 52L223.538 53.0691C223.695 57.517 226.354 61.273 230 62.1961C226.414 62.786 223.696 66.3586 223.546 70.6792L223.5 72Z" fill="#FAF2E6" fill-opacity="0.65"/>
<path d="M16.5 117L16.4787 116.448C16.4125 114.731 15.3712 113.315 14 113.078C15.3939 112.709 16.4129 111.219 16.4823 109.451L16.5 109L16.5145 109.428C16.5749 111.207 17.5977 112.709 19 113.078C17.6206 113.314 16.5752 114.743 16.5176 116.472L16.5 117Z" fill="#FAF2E6" fill-opacity="0.65"/>
<path d="M257.5 107L257.445 105.828C257.273 102.177 254.565 99.169 251 98.6667C254.624 97.8807 257.274 94.7163 257.454 90.958L257.5 90L257.538 90.9087C257.695 94.6895 260.354 97.882 264 98.6667C260.414 99.1681 257.696 102.205 257.546 105.877L257.5 107Z" fill="#FAF2E6" fill-opacity="0.65"/>
<path d="M124.5 81L124.479 80.4483C124.413 78.7305 123.371 77.3148 122 77.0784C123.394 76.7085 124.413 75.2195 124.482 73.4508L124.5 73L124.515 73.4276C124.575 75.2068 125.598 76.7092 127 77.0784C125.621 77.3144 124.575 78.7434 124.518 80.4717L124.5 81Z" fill="#FAF2E6" fill-opacity="0.8"/>
<path d="M227.5 90L227.462 89.0345C227.343 86.0284 225.468 83.5509 223 83.1373C225.509 82.49 227.343 79.884 227.468 76.7889L227.5 76L227.526 76.7484C227.635 79.8619 229.476 82.4911 232 83.1373C229.517 83.5502 227.635 86.051 227.532 89.0755L227.5 90Z" fill="#FAF2E6" fill-opacity="0.3"/>
<path d="M277 72L276.957 71.0345C276.825 68.0284 274.742 65.5509 272 65.1373C274.788 64.49 276.826 61.884 276.965 58.7889L277 58L277.029 58.7484C277.15 61.8619 279.195 64.4911 282 65.1373C279.241 65.5502 277.15 68.051 277.035 71.0755L277 72Z" fill="#FAF2E6" fill-opacity="0.7"/>
<path d="M500.5 75L500.411 73C500.133 66.7732 495.759 61.6412 490 60.7844C495.855 59.4435 500.134 54.0455 500.426 47.6342L500.5 46L500.561 47.5502C500.814 53.9997 505.11 59.4458 511 60.7844C505.207 61.6397 500.816 66.82 500.574 73.0849L500.5 75Z" fill="#FAF2E6" fill-opacity="0.3"/>
<path d="M485.5 145L485.436 143.552C485.238 139.043 482.113 135.326 478 134.706C482.182 133.735 485.239 129.826 485.447 125.183L485.5 124L485.544 125.123C485.725 129.793 488.793 133.737 493 134.706C488.862 135.325 485.726 139.077 485.553 143.613L485.5 145Z" fill="#FAF2E6" fill-opacity="0.6"/>
<path d="M286.5 39L286.462 38.0345C286.343 35.0284 284.468 32.5509 282 32.1373C284.509 31.49 286.343 28.884 286.468 25.7889L286.5 25L286.526 25.7484C286.635 28.8619 288.476 31.4911 291 32.1373C288.517 32.5502 286.635 35.051 286.532 38.0755L286.5 39Z" fill="#FAF2E6" fill-opacity="0.3"/>
<path d="M51 90L50.9575 89.0345C50.825 86.0284 48.7423 83.5509 46 83.1373C48.7879 82.49 50.8258 79.884 50.9646 76.7889L51 76L51.029 76.7484C51.1498 79.8619 53.1954 82.4911 56 83.1373C53.2413 83.5502 51.1504 86.051 51.0352 89.0755L51 90Z" fill="#FAF2E6" fill-opacity="0.3"/>
<path d="M307 80L306.957 79.0345C306.825 76.0284 304.742 73.5509 302 73.1373C304.788 72.49 306.826 69.884 306.965 66.7889L307 66L307.029 66.7484C307.15 69.8619 309.195 72.4911 312 73.1373C309.241 73.5502 307.15 76.051 307.035 79.0755L307 80Z" fill="#FAF2E6" fill-opacity="0.3"/>
<path d="M337.5 75L337.428 73.3448C337.203 68.1916 333.662 63.9444 329 63.2353C333.739 62.1256 337.204 57.6584 337.44 52.3524L337.5 51L337.549 52.2829C337.755 57.6204 341.232 62.1276 346 63.2353C341.31 63.9432 337.756 68.2303 337.56 73.4151L337.5 75Z" fill="#FAF2E6" fill-opacity="0.3"/>
<path d="M602 23L601.94 21.6207C601.755 17.3263 598.839 13.787 595 13.1961C598.903 12.2714 601.756 8.54864 601.95 4.12704L602 3L602.041 4.06909C602.21 8.51701 605.074 12.273 609 13.1961C605.138 13.786 602.211 17.3586 602.049 21.6792L602 23Z" fill="#FAF2E6" fill-opacity="0.3"/>
<path d="M126.5 107L126.411 104.931C126.133 98.4895 121.759 93.1805 116 92.2942C121.855 90.907 126.134 85.323 126.426 78.6906L126.5 77L126.561 78.6036C126.814 85.2755 131.11 90.9095 137 92.2942C131.207 93.179 126.816 98.5379 126.574 105.019L126.5 107Z" fill="#FAF2E6" fill-opacity="0.3"/>
<path d="M378 154L377.957 153.034C377.825 150.028 375.742 147.551 373 147.137C375.788 146.49 377.826 143.884 377.965 140.789L378 140L378.029 140.748C378.15 143.862 380.195 146.491 383 147.137C380.241 147.55 378.15 150.051 378.035 153.075L378 154Z" fill="#FAF2E6" fill-opacity="0.45"/>
<path d="M218.5 46L218.462 45.0345C218.343 42.0284 216.468 39.5509 214 39.1373C216.509 38.49 218.343 35.884 218.468 32.7889L218.5 32L218.526 32.7484C218.635 35.8619 220.476 38.4911 223 39.1373C220.517 39.5502 218.635 42.051 218.532 45.0755L218.5 46Z" fill="#FAF2E6" fill-opacity="0.65"/>
<path d="M375.5 32L375.445 30.8276C375.273 27.1774 372.565 24.169 369 23.6667C372.624 22.8807 375.274 19.7163 375.454 15.958L375.5 15L375.538 15.9087C375.695 19.6895 378.354 22.882 382 23.6667C378.414 24.1681 375.696 27.2048 375.546 30.8773L375.5 32Z" fill="#FAF2E6" fill-opacity="0.65"/>
<path d="M604 121L603.949 119.828C603.79 116.177 601.291 113.169 598 112.667C601.345 111.881 603.791 108.716 603.958 104.958L604 104L604.035 104.909C604.18 108.689 606.635 111.882 610 112.667C606.69 113.168 604.18 116.205 604.042 119.877L604 121Z" fill="#FAF2E6" fill-opacity="0.7"/>
<path d="M331 126L330.957 125.034C330.825 122.028 328.742 119.551 326 119.137C328.788 118.49 330.826 115.884 330.965 112.789L331 112L331.029 112.748C331.15 115.862 333.195 118.491 336 119.137C333.241 119.55 331.15 122.051 331.035 125.075L331 126Z" fill="#FAF2E6" fill-opacity="0.8"/>
<path d="M247 16L246.957 15.0345C246.825 12.0284 244.742 9.55091 242 9.13728C244.788 8.48996 246.826 5.88405 246.965 2.78893L247 2L247.029 2.74836C247.15 5.86191 249.195 8.49109 252 9.13728C249.241 9.55018 247.15 12.051 247.035 15.0755L247 16Z" fill="#FAF2E6" fill-opacity="0.3"/>
<path d="M51 39L50.9575 38.0345C50.825 35.0284 48.7423 32.5509 46 32.1373C48.7879 31.49 50.8258 28.884 50.9646 25.7889L51 25L51.029 25.7484C51.1498 28.8619 53.1954 31.4911 56 32.1373C53.2413 32.5502 51.1504 35.051 51.0352 38.0755L51 39Z" fill="#FAF2E6" fill-opacity="0.8"/>
<path d="M62 144L61.949 142.759C61.7901 138.894 59.2908 135.708 56 135.177C59.3455 134.344 61.7909 130.994 61.9575 127.014L62 126L62.0348 126.962C62.1797 130.965 64.6345 134.346 68 135.177C64.6895 135.707 62.1805 138.923 62.0423 142.811L62 144Z" fill="#FAF2E6" fill-opacity="0.45"/>
<path d="M388 132L387.957 131.034C387.825 128.028 385.742 125.551 383 125.137C385.788 124.49 387.826 121.884 387.965 118.789L388 118L388.029 118.748C388.15 121.862 390.195 124.491 393 125.137C390.241 125.55 388.15 128.051 388.035 131.075L388 132Z" fill="#FAF2E6" fill-opacity="0.7"/>
<path d="M40 113L39.9745 112.379C39.895 110.447 38.6454 108.854 37 108.588C38.6727 108.172 39.8955 106.497 39.9788 104.507L40 104L40.0174 104.481C40.0899 106.483 41.3173 108.173 43 108.588C41.3448 108.854 40.0902 110.461 40.0211 112.406L40 113Z" fill="#FAF2E6" fill-opacity="0.3"/>
<path d="M330.5 154L330.47 153.379C330.378 151.447 328.92 149.854 327 149.588C328.952 149.172 330.378 147.497 330.475 145.507L330.5 145L330.52 145.481C330.605 147.483 332.037 149.173 334 149.588C332.069 149.854 330.605 151.461 330.525 153.406L330.5 154Z" fill="#FAF2E6" fill-opacity="0.45"/>
<path d="M154 112L153.957 111.034C153.825 108.028 151.742 105.551 149 105.137C151.788 104.49 153.826 101.884 153.965 98.7889L154 98L154.029 98.7484C154.15 101.862 156.195 104.491 159 105.137C156.241 105.55 154.15 108.051 154.035 111.075L154 112Z" fill="#FAF2E6" fill-opacity="0.6"/>
<path d="M252 156L251.957 155.034C251.825 152.028 249.742 149.551 247 149.137C249.788 148.49 251.826 145.884 251.965 142.789L252 142L252.029 142.748C252.15 145.862 254.195 148.491 257 149.137C254.241 149.55 252.15 152.051 252.035 155.075L252 156Z" fill="#FAF2E6" fill-opacity="0.8"/>
<defs>
<radialGradient id="paint0_radial_136_224" cx="0" cy="0" r="1" gradientUnits="userSpaceOnUse" gradientTransform="translate(305.676 69.697) rotate(170.185) scale(341.32 790.654)">
<stop stop-color="#FAF2E6" stop-opacity="0.15"/>
<stop offset="0.572917" stop-color="#FAF2E6" stop-opacity="0.07"/>
<stop offset="1" stop-color="#FAF2E6" stop-opacity="0.03"/>
</radialGradient>
</defs>
</svg>
