<svg width="642" height="160" viewBox="0 0 642 160" fill="none" xmlns="http://www.w3.org/2000/svg">
<rect width="642" height="160" fill="url(#paint0_radial_136_224)"/>
<path d="M52.1622 7.19995L52.2168 8.41377C52.3868 12.1928 55.0611 15.3074 58.5822 15.8274C55.0026 16.6411 52.3859 19.9171 52.2076 23.8082L52.1622 24.8L52.1249 23.8592C51.9699 19.945 49.3433 16.6397 45.7422 15.8274C49.2844 15.3083 51.9691 12.1644 52.117 8.36224L52.1622 7.19995Z" fill="#FAF2E6" fill-opacity="0.3"/>
<path d="M312.574 24.8L312.611 25.6277C312.728 28.2042 314.567 30.3278 316.988 30.6824C314.527 31.2372 312.728 33.4709 312.605 36.1238L312.574 36.8L312.548 36.1586C312.442 33.4898 310.636 31.2363 308.16 30.6824C310.595 30.3285 312.441 28.1849 312.543 25.5925L312.574 24.8Z" fill="#FAF2E6" fill-opacity="0.3"/>
<path d="M380.385 95.2L380.439 96.4689C380.609 100.42 383.284 103.676 386.805 104.22C383.225 105.07 380.609 108.495 380.43 112.563L380.385 113.6L380.348 112.616C380.193 108.524 377.566 105.069 373.965 104.22C377.507 103.677 380.192 100.39 380.34 96.4151L380.385 95.2Z" fill="#FAF2E6" fill-opacity="0.45"/>
<path d="M90.6827 113.6L90.7373 114.814C90.9073 118.593 93.5816 121.707 97.1027 122.227C93.5231 123.041 90.9064 126.317 90.7281 130.208L90.6827 131.2L90.6454 130.259C90.4904 126.345 87.8638 123.04 84.2627 122.227C87.8049 121.708 90.4896 118.564 90.6375 114.762L90.6827 113.6Z" fill="#FAF2E6" fill-opacity="0.3"/>
<path d="M176.951 91.2L176.982 91.9172C177.077 94.1503 178.582 95.9907 180.562 96.298C178.549 96.7788 177.077 98.7147 176.977 101.014L176.951 101.6L176.93 101.044C176.843 98.7311 175.365 96.778 173.34 96.298C175.332 95.9912 176.842 94.1335 176.926 91.8868L176.951 91.2Z" fill="#FAF2E6" fill-opacity="0.3"/>
<path d="M350.291 53.6L350.322 54.3172C350.417 56.5503 351.922 58.3907 353.902 58.698C351.889 59.1789 350.417 61.1147 350.316 63.4139L350.291 64L350.27 63.444C350.183 61.1311 348.705 59.178 346.68 58.698C348.672 58.3913 350.182 56.5335 350.266 54.2868L350.291 53.6Z" fill="#FAF2E6" fill-opacity="0.3"/>
<path d="M530.854 113.6L530.905 114.814C531.064 118.593 533.571 121.707 536.872 122.227C533.517 123.041 531.063 126.317 530.896 130.208L530.854 131.2L530.819 130.259C530.673 126.345 528.211 123.04 524.835 122.227C528.156 121.708 530.673 118.564 530.811 114.762L530.854 113.6Z" fill="#FAF2E6" fill-opacity="0.3"/>
<path d="M100.714 37.6L100.745 38.3172C100.84 40.5503 102.344 42.3907 104.325 42.698C102.311 43.1789 100.84 45.1147 100.739 47.4139L100.714 48L100.693 47.444C100.606 45.1311 99.1281 43.178 97.1025 42.698C99.095 42.3913 100.605 40.5335 100.688 38.2868L100.714 37.6Z" fill="#FAF2E6" fill-opacity="0.3"/>
<path d="M161.704 139.2L161.735 139.917C161.83 142.15 163.335 143.991 165.315 144.298C163.302 144.779 161.83 146.715 161.73 149.014L161.704 149.6L161.683 149.044C161.596 146.731 160.118 144.778 158.093 144.298C160.085 143.991 161.595 142.133 161.679 139.887L161.704 139.2Z" fill="#FAF2E6" fill-opacity="0.3"/>
<path d="M340.26 3.19995L340.314 4.46894C340.484 8.41972 343.159 11.6759 346.68 12.2195C343.1 13.0703 340.484 16.4952 340.305 20.5631L340.26 21.6L340.223 20.6164C340.068 16.5243 337.441 13.0688 333.84 12.2195C337.382 11.6769 340.067 8.39004 340.215 4.41507L340.26 3.19995Z" fill="#FAF2E6" fill-opacity="0.3"/>
<path d="M493.939 18.4L493.977 19.2828C494.094 22.0312 495.932 24.2963 498.353 24.6745C495.892 25.2664 494.093 27.6489 493.97 30.4787L493.939 31.2L493.914 30.5158C493.807 27.6691 492.001 25.2653 489.525 24.6745C491.961 24.297 493.806 22.0105 493.908 19.2453L493.939 18.4Z" fill="#FAF2E6" fill-opacity="0.7"/>
<path d="M371.959 128.8L371.99 129.517C372.085 131.75 373.59 133.591 375.57 133.898C373.557 134.379 372.085 136.315 371.984 138.614L371.959 139.2L371.938 138.644C371.851 136.331 370.373 134.378 368.348 133.898C370.34 133.591 371.85 131.734 371.933 129.487L371.959 128.8Z" fill="#FAF2E6" fill-opacity="0.3"/>
<path d="M169.729 18.4L169.767 19.2276C169.884 21.8042 171.722 23.9278 174.143 24.2824C171.682 24.8372 169.883 27.0708 169.76 29.7238L169.729 30.4L169.704 29.7586C169.597 27.0898 167.791 24.8362 165.315 24.2824C167.751 23.9284 169.596 21.7849 169.698 19.1925L169.729 18.4Z" fill="#FAF2E6" fill-opacity="0.3"/>
<path d="M316.185 131.2L316.239 132.469C316.409 136.42 319.084 139.676 322.605 140.22C319.025 141.07 316.408 144.495 316.23 148.563L316.185 149.6L316.147 148.616C315.992 144.524 313.366 141.069 309.765 140.22C313.307 139.677 315.992 136.39 316.139 132.415L316.185 131.2Z" fill="#FAF2E6" fill-opacity="0.3"/>
<path d="M351.896 80.8L351.913 81.1863C351.966 82.3887 352.802 83.3797 353.902 83.5451C352.784 83.8041 351.966 84.8464 351.91 86.0845L351.896 86.4L351.884 86.1007C351.836 84.8553 351.015 83.8036 349.89 83.5451C350.997 83.38 351.836 82.3796 351.882 81.1699L351.896 80.8Z" fill="#FAF2E6" fill-opacity="0.3"/>
<path d="M14.8461 51.2L14.8632 51.5862C14.9163 52.7886 15.752 53.7796 16.8523 53.945C15.7337 54.204 14.916 55.2463 14.8603 56.4844L14.8461 56.8L14.8344 56.5006C14.786 55.2552 13.9652 54.2035 12.8398 53.945C13.9468 53.7799 14.7858 52.7795 14.832 51.5698L14.8461 51.2Z" fill="#FAF2E6" fill-opacity="0.45"/>
<path d="M523.631 43.2L523.662 43.9172C523.757 46.1503 525.261 47.9907 527.242 48.298C525.228 48.7788 523.757 50.7147 523.656 53.0139L523.631 53.6L523.61 53.044C523.523 50.7311 522.045 48.778 520.02 48.298C522.012 47.9912 523.522 46.1335 523.605 43.8868L523.631 43.2Z" fill="#FAF2E6" fill-opacity="0.3"/>
<path d="M596.659 114.4L596.696 115.228C596.813 117.804 598.652 119.928 601.073 120.282C598.612 120.837 596.813 123.071 596.69 125.724L596.659 126.4L596.633 125.759C596.527 123.09 594.721 120.836 592.245 120.282C594.68 119.928 596.526 117.785 596.628 115.192L596.659 114.4Z" fill="#FAF2E6" fill-opacity="0.3"/>
<path d="M274.054 27.2L274.084 27.9172C274.18 30.1503 275.684 31.9907 277.665 32.298C275.651 32.7788 274.179 34.7147 274.079 37.0139L274.054 37.6L274.033 37.044C273.945 34.7311 272.468 32.778 270.442 32.298C272.435 31.9912 273.945 30.1335 274.028 27.8868L274.054 27.2Z" fill="#FAF2E6" fill-opacity="0.3"/>
<path d="M469.863 80.8L469.949 82.7863C470.214 88.9701 474.393 94.0667 479.895 94.9176C474.301 96.2493 470.213 101.61 469.934 107.977L469.863 109.6L469.805 108.061C469.563 101.656 465.459 96.2469 459.832 94.9176C465.367 94.0682 469.562 88.9237 469.793 82.702L469.863 80.8Z" fill="#FAF2E6" fill-opacity="0.3"/>
<path d="M611.031 37L611.117 38.9862C611.382 45.1701 615.561 50.2667 621.062 51.1176C615.469 52.4492 611.381 57.81 611.102 64.1771L611.031 65.8L610.973 64.2605C610.731 57.8555 606.627 52.4469 601 51.1176C606.535 50.2682 610.73 45.1236 610.961 38.9019L611.031 37Z" fill="#FAF2E6" fill-opacity="0.3"/>
<path d="M393.626 91.2L393.657 91.9172C393.752 94.1503 395.257 95.9907 397.237 96.298C395.224 96.7788 393.752 98.7147 393.651 101.014L393.626 101.6L393.605 101.044C393.518 98.7311 392.04 96.778 390.015 96.298C392.007 95.9912 393.517 94.1335 393.6 91.8868L393.626 91.2Z" fill="#FAF2E6" fill-opacity="0.4"/>
<path d="M566.967 53.6L566.997 54.3172C567.093 56.5503 568.597 58.3907 570.578 58.698C568.564 59.1789 567.093 61.1147 566.992 63.4139L566.967 64L566.946 63.444C566.859 61.1311 565.381 59.178 563.355 58.698C565.348 58.3913 566.858 56.5335 566.941 54.2868L566.967 53.6Z" fill="#FAF2E6" fill-opacity="0.3"/>
<path d="M562.611 11L562.642 11.7173C562.738 13.9503 564.242 15.7907 566.222 16.098C564.209 16.5789 562.737 18.5147 562.637 20.8139L562.611 21.4L562.59 20.8441C562.503 18.5312 561.026 16.578 559 16.098C560.992 15.7913 562.503 13.9335 562.586 11.6868L562.611 11Z" fill="#FAF2E6" fill-opacity="0.3"/>
<path d="M477.611 59L477.642 59.7173C477.738 61.9503 479.242 63.7907 481.222 64.098C479.209 64.5789 477.737 66.5147 477.637 68.8139L477.611 69.4L477.59 68.8441C477.503 66.5312 476.026 64.578 474 64.098C475.992 63.7913 477.503 61.9335 477.586 59.6868L477.611 59Z" fill="#FAF2E6" fill-opacity="0.45"/>
<path d="M487.118 133.6L487.152 134.483C487.258 137.231 488.93 139.496 491.13 139.874C488.893 140.466 487.258 142.849 487.146 145.679L487.118 146.4L487.095 145.716C486.998 142.869 485.356 140.465 483.105 139.874C485.319 139.497 486.997 137.21 487.09 134.445L487.118 133.6Z" fill="#FAF2E6" fill-opacity="0.65"/>
<path d="M521.625 76.8L521.68 78.069C521.85 82.0198 524.524 85.276 528.045 85.8196C524.465 86.6704 521.849 90.0953 521.671 94.1632L521.625 95.2L521.588 94.2165C521.433 90.1244 518.806 86.6689 515.205 85.8196C518.747 85.277 521.432 81.9901 521.58 78.0152L521.625 76.8Z" fill="#FAF2E6" fill-opacity="0.65"/>
<path d="M378.379 139.2L378.41 139.917C378.505 142.15 380.009 143.991 381.99 144.298C379.977 144.779 378.505 146.715 378.404 149.014L378.379 149.6L378.358 149.044C378.271 146.731 376.793 144.778 374.768 144.298C376.76 143.991 378.27 142.133 378.353 139.887L378.379 139.2Z" fill="#FAF2E6" fill-opacity="0.3"/>
<path d="M54.1686 69.6L54.2062 70.4276C54.3231 73.0042 56.1616 75.1278 58.5824 75.4823C56.1214 76.0372 54.3224 78.2708 54.1999 80.9238L54.1686 81.6L54.143 80.9585C54.0364 78.2898 52.2306 76.0362 49.7549 75.4823C52.1901 75.1284 54.0359 72.9848 54.1376 70.3924L54.1686 69.6Z" fill="#FAF2E6" fill-opacity="0.35"/>
<path d="M220.286 43.2L220.317 43.9172C220.412 46.1503 221.917 47.9907 223.897 48.298C221.884 48.7788 220.412 50.7147 220.312 53.0139L220.286 53.6L220.265 53.044C220.178 50.7311 218.7 48.778 216.675 48.298C218.667 47.9912 220.177 46.1335 220.261 43.8868L220.286 43.2Z" fill="#FAF2E6" fill-opacity="0.3"/>
<path d="M198.619 118.4L198.65 119.117C198.745 121.35 200.25 123.191 202.23 123.498C200.217 123.979 198.745 125.915 198.645 128.214L198.619 128.8L198.598 128.244C198.511 125.931 197.033 123.978 195.008 123.498C197 123.191 198.51 121.334 198.594 119.087L198.619 118.4Z" fill="#FAF2E6" fill-opacity="0.65"/>
<path d="M621.536 70.4L621.588 71.669C621.747 75.6198 624.254 78.876 627.555 79.4196C624.199 80.2704 621.746 83.6953 621.579 87.7632L621.536 88.8L621.501 87.8165C621.356 83.7244 618.894 80.2689 615.518 79.4196C618.838 78.8769 621.355 75.5901 621.494 71.6151L621.536 70.4Z" fill="#FAF2E6" fill-opacity="0.65"/>
<path d="M31.6991 128.8L31.7299 129.517C31.8255 131.75 33.3298 133.591 35.3104 133.898C33.2968 134.379 31.825 136.315 31.7247 138.614L31.6991 139.2L31.6782 138.644C31.591 136.331 30.1135 134.378 28.0879 133.898C30.0804 133.591 31.5905 131.734 31.6737 129.487L31.6991 128.8Z" fill="#FAF2E6" fill-opacity="0.65"/>
<path d="M125.611 86L125.642 86.7173C125.738 88.9503 127.242 90.7907 129.223 91.098C127.209 91.5789 125.737 93.5147 125.637 95.8139L125.611 96.4L125.59 95.8441C125.503 93.5312 124.026 91.578 122 91.098C123.992 90.7913 125.503 88.9335 125.586 86.6868L125.611 86Z" fill="#FAF2E6" fill-opacity="0.65"/>
<path d="M65.6113 95L65.642 95.7173C65.7376 97.9503 67.2419 99.7907 69.2225 100.098C67.209 100.579 65.7371 102.515 65.6368 104.814L65.6113 105.4L65.5903 104.844C65.5031 102.531 64.0256 100.578 62 100.098C63.9925 99.7913 65.5026 97.9335 65.5858 95.6868L65.6113 95Z" fill="#FAF2E6" fill-opacity="0.65"/>
<path d="M72.6113 41L72.642 41.7173C72.7376 43.9503 74.2419 45.7907 76.2225 46.098C74.209 46.5789 72.7371 48.5147 72.6368 50.8139L72.6113 51.4L72.5903 50.8441C72.5031 48.5312 71.0256 46.578 69 46.098C70.9925 45.7913 72.5026 43.9335 72.5858 41.6868L72.6113 41Z" fill="#FAF2E6" fill-opacity="0.65"/>
<path d="M134.611 11L134.642 11.7173C134.738 13.9503 136.242 15.7907 138.223 16.098C136.209 16.5789 134.737 18.5147 134.637 20.8139L134.611 21.4L134.59 20.8441C134.503 18.5312 133.026 16.578 131 16.098C132.992 15.7913 134.503 13.9335 134.586 11.6868L134.611 11Z" fill="#FAF2E6" fill-opacity="0.65"/>
<path d="M191.611 51L191.642 51.7173C191.738 53.9503 193.242 55.7907 195.223 56.098C193.209 56.5789 191.737 58.5147 191.637 60.8139L191.611 61.4L191.59 60.8441C191.503 58.5312 190.026 56.578 188 56.098C189.992 55.7913 191.503 53.9335 191.586 51.6868L191.611 51Z" fill="#FAF2E6" fill-opacity="0.65"/>
<path d="M136.827 116L136.844 116.386C136.897 117.589 137.732 118.58 138.833 118.745C137.714 119.004 136.896 120.046 136.841 121.284L136.827 121.6L136.815 121.301C136.766 120.055 135.946 119.004 134.82 118.745C135.927 118.58 136.766 117.58 136.812 116.37L136.827 116Z" fill="#FAF2E6" fill-opacity="0.65"/>
<path d="M158.006 61L158.023 61.3862C158.076 62.5886 158.912 63.5796 160.012 63.7451C158.894 64.004 158.076 65.0464 158.02 66.2844L158.006 66.6L157.995 66.3007C157.946 65.0552 157.125 64.0036 156 63.7451C157.107 63.5799 157.946 62.5796 157.992 61.3698L158.006 61Z" fill="#FAF2E6" fill-opacity="0.65"/>
<path d="M390.006 125L390.023 125.386C390.076 126.589 390.912 127.58 392.012 127.745C390.894 128.004 390.076 129.046 390.02 130.284L390.006 130.6L389.995 130.301C389.946 129.055 389.125 128.004 388 127.745C389.107 127.58 389.946 126.58 389.992 125.37L390.006 125Z" fill="#FAF2E6" fill-opacity="0.65"/>
<path d="M254.006 45L254.023 45.3862C254.076 46.5886 254.912 47.5796 256.012 47.7451C254.894 48.004 254.076 49.0464 254.02 50.2844L254.006 50.6L253.995 50.3007C253.946 49.0552 253.125 48.0036 252 47.7451C253.107 47.5799 253.946 46.5796 253.992 45.3698L254.006 45Z" fill="#FAF2E6" fill-opacity="0.65"/>
<path d="M618.006 114L618.023 114.386C618.076 115.589 618.912 116.58 620.012 116.745C618.894 117.004 618.076 118.046 618.02 119.284L618.006 119.6L617.995 119.301C617.946 118.055 617.125 117.004 616 116.745C617.107 116.58 617.946 115.58 617.992 114.37L618.006 114Z" fill="#FAF2E6" fill-opacity="0.65"/>
<path d="M462.006 34L462.023 34.3862C462.076 35.5886 462.912 36.5796 464.012 36.7451C462.894 37.004 462.076 38.0464 462.02 39.2844L462.006 39.6L461.995 39.3007C461.946 38.0552 461.125 37.0036 460 36.7451C461.107 36.5799 461.946 35.5796 461.992 34.3698L462.006 34Z" fill="#FAF2E6" fill-opacity="0.65"/>
<path d="M500.006 95L500.023 95.3862C500.076 96.5886 500.912 97.5796 502.012 97.7451C500.894 98.004 500.076 99.0464 500.02 100.284L500.006 100.6L499.995 100.301C499.946 99.0552 499.125 98.0036 498 97.7451C499.107 97.5799 499.946 96.5796 499.992 95.3698L500.006 95Z" fill="#FAF2E6" fill-opacity="0.65"/>
<path d="M533.261 10.4L533.278 10.7862C533.331 11.9886 534.167 12.9797 535.267 13.1451C534.149 13.404 533.331 14.4464 533.275 15.6845L533.261 16L533.249 15.7007C533.201 14.4553 532.38 13.4036 531.255 13.1451C532.362 12.98 533.201 11.9796 533.247 10.7698L533.261 10.4Z" fill="#FAF2E6" fill-opacity="0.45"/>
<path d="M306.956 53.6L306.987 54.3172C307.082 56.5503 308.587 58.3907 310.567 58.698C308.554 59.1789 307.082 61.1147 306.982 63.4139L306.956 64L306.935 63.444C306.848 61.1311 305.37 59.178 303.345 58.698C305.337 58.3913 306.847 56.5335 306.931 54.2868L306.956 53.6Z" fill="#FAF2E6" fill-opacity="0.3"/>
<path d="M285.289 128.8L285.32 129.517C285.415 131.75 286.92 133.591 288.9 133.898C286.887 134.379 285.415 136.315 285.315 138.614L285.289 139.2L285.268 138.644C285.181 136.331 283.703 134.378 281.678 133.898C283.67 133.591 285.18 131.734 285.264 129.487L285.289 128.8Z" fill="#FAF2E6" fill-opacity="0.7"/>
<path d="M106.331 64.8L106.396 66.2897C106.598 70.9276 109.773 74.7501 113.955 75.3882C109.704 76.387 106.596 80.4075 106.385 85.1828L106.331 86.4L106.287 85.2454C106.102 80.4417 102.983 76.3852 98.707 75.3882C102.913 74.7512 106.101 70.8928 106.277 66.2265L106.331 64.8Z" fill="#FAF2E6" fill-opacity="0.3"/>
<path d="M118.369 139.2L118.4 139.917C118.495 142.15 120 143.991 121.98 144.298C119.967 144.779 118.495 146.715 118.395 149.014L118.369 149.6L118.348 149.044C118.261 146.731 116.783 144.778 114.758 144.298C116.75 143.991 118.26 142.133 118.344 139.887L118.369 139.2Z" fill="#FAF2E6" fill-opacity="0.3"/>
<path d="M263.621 91.2L263.652 91.9172C263.747 94.1503 265.252 95.9907 267.232 96.298C265.219 96.7788 263.747 98.7147 263.647 101.014L263.621 101.6L263.6 101.044C263.513 98.7311 262.035 96.778 260.01 96.298C262.002 95.9912 263.512 94.1335 263.596 91.8868L263.621 91.2Z" fill="#FAF2E6" fill-opacity="0.3"/>
<path d="M436.961 53.6L436.992 54.3172C437.087 56.5503 438.591 58.3907 440.572 58.698C438.559 59.1789 437.087 61.1147 436.986 63.4139L436.961 64L436.94 63.444C436.853 61.1311 435.375 59.178 433.35 58.698C435.342 58.3913 436.852 56.5335 436.935 54.2868L436.961 53.6Z" fill="#FAF2E6" fill-opacity="0.3"/>
<path d="M415.294 128.8L415.325 129.517C415.42 131.75 416.924 133.591 418.905 133.898C416.892 134.379 415.42 136.315 415.319 138.614L415.294 139.2L415.273 138.644C415.186 136.331 413.708 134.378 411.683 133.898C413.675 133.591 415.185 131.734 415.268 129.487L415.294 128.8Z" fill="#FAF2E6" fill-opacity="0.3"/>
<path d="M211.459 66.4L211.538 68.2208C211.782 73.8893 215.626 78.5612 220.688 79.3412C215.542 80.5618 211.781 85.4758 211.525 91.3123L211.459 92.8L211.406 91.3888C211.183 85.5176 207.407 80.5597 202.23 79.3412C207.322 78.5625 211.182 73.8467 211.394 68.1435L211.459 66.4Z" fill="#FAF2E6" fill-opacity="0.3"/>
<path d="M19.26 83.2L19.3965 86.4C19.8216 96.3628 26.5071 104.574 35.31 105.945C26.3609 108.09 19.8192 116.727 19.3736 126.985L19.26 129.6L19.1668 127.12C18.7792 116.8 12.2126 108.087 3.20996 105.945C12.0654 104.576 18.7772 96.288 19.1469 86.2642L19.26 83.2Z" fill="#FAF2E6" fill-opacity="0.3"/>
<path d="M377.175 33.6L377.312 36.8C377.737 46.7629 384.422 54.9741 393.225 56.345C384.276 58.4904 377.734 67.1271 377.289 77.3853L377.175 80L377.082 77.5197C376.694 67.2005 370.128 58.4866 361.125 56.345C369.98 54.9765 376.692 46.688 377.062 36.6642L377.175 33.6Z" fill="#FAF2E6" fill-opacity="0.3"/>
<path d="M248.374 139.2L248.405 139.917C248.5 142.15 250.005 143.991 251.985 144.298C249.972 144.779 248.5 146.715 248.4 149.014L248.374 149.6L248.353 149.044C248.266 146.731 246.788 144.778 244.763 144.298C246.755 143.991 248.265 142.133 248.349 139.887L248.374 139.2Z" fill="#FAF2E6" fill-opacity="0.45"/>
<path d="M306.956 80.8L306.987 81.5173C307.082 83.7504 308.587 85.5908 310.567 85.8981C308.554 86.3789 307.082 88.3148 306.982 90.614L306.956 91.2L306.935 90.6441C306.848 88.3312 305.37 86.3781 303.345 85.8981C305.337 85.5913 306.847 83.7336 306.931 81.4869L306.956 80.8Z" fill="#FAF2E6" fill-opacity="0.65"/>
<path d="M570.979 24.8L571.017 25.6277C571.134 28.2042 572.972 30.3278 575.393 30.6824C572.932 31.2372 571.133 33.4709 571.01 36.1238L570.979 36.8L570.954 36.1586C570.847 33.4898 569.041 31.2363 566.565 30.6824C569.001 30.3285 570.846 28.1849 570.948 25.5925L570.979 24.8Z" fill="#FAF2E6" fill-opacity="0.65"/>
<path d="M562.151 76.8L562.189 77.6277C562.305 80.2042 564.144 82.3278 566.565 82.6824C564.104 83.2372 562.305 85.4709 562.182 88.1238L562.151 88.8L562.125 88.1586C562.019 85.4898 560.213 83.2363 557.737 82.6824C560.173 82.3285 562.018 80.1849 562.12 77.5925L562.151 76.8Z" fill="#FAF2E6" fill-opacity="0.7"/>
<path d="M230.719 27.2L230.749 27.9172C230.845 30.1503 232.349 31.9907 234.33 32.298C232.316 32.7788 230.845 34.7147 230.744 37.0139L230.719 37.6L230.698 37.044C230.611 34.7311 229.133 32.778 227.107 32.298C229.1 31.9912 230.61 30.1335 230.693 27.8868L230.719 27.2Z" fill="#FAF2E6" fill-opacity="0.4"/>
<path d="M292.512 108L292.542 108.717C292.638 110.95 294.142 112.791 296.123 113.098C294.109 113.579 292.637 115.515 292.537 117.814L292.512 118.4L292.491 117.844C292.403 115.531 290.926 113.578 288.9 113.098C290.893 112.791 292.403 110.934 292.486 108.687L292.512 108Z" fill="#FAF2E6" fill-opacity="0.3"/>
<path d="M436.961 91.2L436.992 91.9172C437.087 94.1503 438.591 95.9907 440.572 96.298C438.559 96.7788 437.087 98.7147 436.986 101.014L436.961 101.6L436.94 101.044C436.853 98.7311 435.375 96.778 433.35 96.298C435.342 95.9912 436.852 94.1335 436.935 91.8868L436.961 91.2Z" fill="#FAF2E6" fill-opacity="0.3"/>
<path d="M428.936 14.4L428.974 15.2828C429.091 18.0312 430.929 20.2963 433.35 20.6745C430.889 21.2664 429.09 23.6489 428.967 26.4787L428.936 27.2L428.911 26.5158C428.804 23.6691 426.998 21.2653 424.522 20.6745C426.958 20.297 428.803 18.0105 428.905 15.2453L428.936 14.4Z" fill="#FAF2E6" fill-opacity="0.45"/>
<path d="M588.634 128.8L588.664 129.517C588.76 131.75 590.264 133.591 592.245 133.898C590.231 134.379 588.76 136.315 588.659 138.614L588.634 139.2L588.613 138.644C588.526 136.331 587.048 134.378 585.022 133.898C587.015 133.591 588.525 131.734 588.608 129.487L588.634 128.8Z" fill="#FAF2E6" fill-opacity="0.7"/>
<path d="M605.888 20.8L605.908 21.2414C605.972 22.6156 606.975 23.7482 608.295 23.9373C606.953 24.2332 605.972 25.4245 605.905 26.8394L605.888 27.2L605.874 26.8579C605.816 25.4346 604.831 24.2327 603.48 23.9373C604.809 23.7485 605.816 22.6053 605.871 21.2227L605.888 20.8Z" fill="#FAF2E6" fill-opacity="0.3"/>
<path d="M625.148 146.4L625.168 146.841C625.232 148.216 626.235 149.348 627.555 149.537C626.213 149.833 625.232 151.024 625.165 152.439L625.148 152.8L625.134 152.458C625.076 151.035 624.091 149.833 622.74 149.537C624.069 149.349 625.075 148.205 625.131 146.823L625.148 146.4Z" fill="#FAF2E6" fill-opacity="0.45"/>
<path d="M360.724 37.6L360.754 38.3172C360.85 40.5503 362.354 42.3907 364.335 42.698C362.321 43.1789 360.849 45.1147 360.749 47.4139L360.724 48L360.703 47.444C360.615 45.1311 359.138 43.178 357.112 42.698C359.105 42.3913 360.615 40.5335 360.698 38.2868L360.724 37.6Z" fill="#FAF2E6" fill-opacity="0.3"/>
<path d="M451.406 144.8L451.437 145.517C451.533 147.75 453.037 149.591 455.017 149.898C453.004 150.379 451.532 152.315 451.432 154.614L451.406 155.2L451.385 154.644C451.298 152.331 449.821 150.378 447.795 149.898C449.787 149.591 451.298 147.734 451.381 145.487L451.406 144.8Z" fill="#FAF2E6" fill-opacity="0.3"/>
<defs>
<radialGradient id="paint0_radial_136_224" cx="0" cy="0" r="1" gradientUnits="userSpaceOnUse" gradientTransform="translate(305.676 69.697) rotate(170.185) scale(341.32 790.654)">
<stop stop-color="#FAF2E6" stop-opacity="0.15"/>
<stop offset="0.572917" stop-color="#FAF2E6" stop-opacity="0.07"/>
<stop offset="1" stop-color="#FAF2E6" stop-opacity="0.03"/>
</radialGradient>
</defs>
</svg>
