<svg width="1504" height="864" viewBox="0 0 1504 864" fill="none" xmlns="http://www.w3.org/2000/svg">
<g clip-path="url(#clip0_64_155)">
<path fill-rule="evenodd" clip-rule="evenodd" d="M78.8195 82.5626C75.3365 78.8996 72.3645 74.6456 68.5205 70.7166C70.4575 69.4716 80.4915 76.9956 83.7565 80.8636C86.6085 84.2426 90.3935 86.8636 93.9055 89.6436C97.2055 92.2546 100.684 94.6406 104.09 97.1166C105.915 98.4426 107.718 99.8006 109.592 101.055C112.671 103.116 115.42 105.563 118.246 107.944C121.386 110.589 124.208 113.421 126.123 117.032C126.798 118.304 127.179 119.867 127.221 121.311C127.315 124.543 124.157 127.382 121.109 126.673C117.77 125.896 114.484 124.688 112.037 122.118C107.436 117.287 102.704 112.591 98.6355 107.248C93.3045 100.245 87.6255 93.5076 82.0995 86.6526C81.0025 85.2916 80.0205 83.8236 78.8195 82.5626Z" fill="#D85858"/>
<path fill-rule="evenodd" clip-rule="evenodd" d="M124.331 90.9686C125.866 92.7906 125.895 94.5396 124.913 96.5686C123.98 98.4976 122.353 99.2916 120.42 99.2046C118.354 99.1126 116.191 98.9386 114.272 98.2426C109.826 96.6276 105.422 94.9516 101.637 91.8466C97.6766 88.5986 93.2986 85.8646 89.1736 82.8126C85.8666 80.3646 82.6526 77.7886 79.4226 75.2396C78.5406 74.5426 75.9126 71.9016 74.9746 71.0526C76.5016 68.7716 90.6416 77.4576 96.3766 78.9326C103.104 80.6636 109.963 82.0396 116.209 85.2476C119.163 86.7646 122.106 88.3286 124.331 90.9686Z" fill="#D85858"/>
<path fill-rule="evenodd" clip-rule="evenodd" d="M69.0006 73.8746C69.8506 74.8116 72.4916 77.4386 73.1876 78.3216C75.7376 81.5526 78.3126 84.7656 80.7606 88.0726C83.8136 92.1976 86.5466 96.5756 89.7956 100.536C92.9006 104.322 94.5756 108.725 96.1906 113.171C96.8876 115.089 97.0606 117.253 97.1536 119.319C97.2396 121.252 96.4456 122.879 94.5176 123.813C92.4876 124.794 90.7386 124.765 88.9176 123.23C86.2766 121.005 84.7126 118.062 83.1956 115.108C79.9876 108.863 78.6116 102.002 76.8806 95.2756C75.4056 89.5416 66.7196 75.4006 69.0006 73.8746Z" fill="#D85858"/>
<path fill-rule="evenodd" clip-rule="evenodd" d="M73.2206 122.574C71.7486 121.906 70.5746 120.797 69.8546 119.331C68.5506 116.674 68.3126 113.78 67.9236 110.888C67.5416 108.038 68.0286 87.0745 69.0596 86.7495C71.5056 92.6616 75.0896 99.7185 77.5176 105.849C79.2656 110.262 79.2786 114.836 78.1676 119.418C77.6866 121.397 74.7846 123.284 73.2206 122.574Z" fill="#D85858"/>
<path fill-rule="evenodd" clip-rule="evenodd" d="M104.056 79.3106C97.926 76.8826 90.869 73.2986 84.957 70.8526C85.282 69.8216 106.245 69.3336 109.095 69.7166C111.987 70.1056 114.881 70.3436 117.538 71.6476C119.005 72.3676 120.113 73.5416 120.781 75.0136C121.491 76.5776 119.605 79.4796 117.625 79.9596C113.043 81.0716 108.469 81.0586 104.056 79.3106Z" fill="#D85858"/>
<path fill-rule="evenodd" clip-rule="evenodd" d="M166.421 45.7796C168.017 46.1246 169.376 46.9976 170.379 48.2646C171.445 49.6116 170.314 52.8826 168.508 53.8266C164.329 56.0086 159.886 57.0986 155.183 56.4656C148.649 55.5866 140.935 53.8096 134.608 52.8596C134.675 51.7806 154.902 46.2556 157.761 45.9406C160.661 45.6206 163.528 45.1546 166.421 45.7796Z" fill="#D85858"/>
<path fill-rule="evenodd" clip-rule="evenodd" d="M55.1803 173.209C53.8333 174.275 50.5613 173.144 49.6183 171.338C47.4363 167.159 46.3463 162.717 46.9793 158.013C47.8583 151.479 49.6353 143.766 50.5853 137.438C51.6643 137.505 57.1893 157.733 57.5043 160.591C57.8243 163.492 58.2903 166.358 57.6653 169.251C57.3193 170.847 56.4473 172.207 55.1803 173.209Z" fill="#D85858"/>
<path fill-rule="evenodd" clip-rule="evenodd" d="M172.558 9.93254C165.997 11.0035 159.384 11.8665 152.91 13.3325C146.728 14.7335 140.873 17.1375 135.277 20.2705C129.322 23.6045 123.855 27.5215 118.704 31.9575C115.981 34.3025 113.014 36.3685 110.338 38.7625C108.112 40.7525 106.217 43.1065 104.057 45.1765C100.859 48.2405 97.6206 51.2695 94.2656 54.1565C92.9986 55.2475 91.3576 55.9035 89.9566 56.9705C92.7496 56.8335 95.4396 56.4065 98.1076 55.6035C102.898 54.1605 107.046 51.5465 111.328 49.0755C114.431 47.2845 117.294 45.1285 120.384 43.4115C124.76 40.9795 128.412 37.7175 132.291 34.6845C134.233 33.1655 136.456 32.0085 138.515 30.6345C141.437 28.6835 144.251 26.5625 147.246 24.7335C150.884 22.5125 154.66 20.5165 158.382 18.4325C159.95 17.5545 161.495 16.6225 163.115 15.8515C167.207 13.9055 171.336 12.0375 175.943 9.91054C174.574 9.91054 173.542 9.77154 172.558 9.93254ZM97.5746 39.9695C98.7066 38.2545 99.5296 36.3565 100.625 34.6195C101.441 33.3255 102.374 32.1055 103.187 30.8115C104.508 28.7085 105.698 26.5205 107.085 24.4645C108.459 22.4245 109.943 20.4505 111.5 18.5445C112.902 16.8285 114.461 15.2385 115.963 13.6035C118.314 11.0415 120.674 8.48854 123.279 5.66254C120.727 5.80554 118.579 6.58254 116.571 7.74854C113.704 9.41554 110.631 10.7755 108.287 13.2395C107.532 14.0335 106.668 14.7295 105.959 15.5595C103.111 18.8915 100.502 22.3985 98.6116 26.3765C95.2576 33.4375 91.1466 40.0615 87.0296 46.6855C85.3736 49.3515 83.7856 52.0585 81.9946 55.0325C84.2676 54.4365 86.2106 53.4685 87.6106 52.0735C91.3906 48.3085 94.6216 44.4445 97.5746 39.9695ZM67.3556 48.5575C72.4556 45.3795 74.5246 40.0915 77.0926 35.1215C78.5356 32.3285 79.9746 29.5285 81.5426 26.8045C83.1946 23.9325 85.0306 21.1665 86.7256 18.3185C88.5666 15.2255 90.9356 12.5625 93.3736 9.95253C94.5236 8.72153 95.7336 7.54553 97.3466 5.90953C96.6006 6.66653 93.8146 6.61553 92.7606 6.92253C91.5496 7.27553 90.5796 7.80553 89.4936 8.41353C87.1506 9.72553 84.5156 11.0115 83.0196 13.3445C80.4426 17.3645 77.2626 21.0165 75.5126 25.5645C73.6136 30.5005 70.2736 34.7595 68.4566 39.8005C66.5536 45.0805 65.4666 46.8335 61.6436 50.5665C63.6876 50.2505 65.5656 49.6735 67.3556 48.5575ZM39.0246 69.2325C33.9836 71.0495 29.7246 74.3905 24.7886 76.2895C20.2406 78.0395 16.5886 81.2195 12.5676 83.7955C10.2346 85.2915 8.94962 87.9275 7.63762 90.2705C7.02862 91.3555 6.49962 92.3265 6.14662 93.5365C5.83862 94.5905 5.88962 97.3775 5.13262 98.1235C6.76962 96.5105 7.94462 95.2995 9.17662 94.1495C11.7866 91.7115 14.4496 89.3425 17.5426 87.5015C20.3906 85.8065 23.1566 83.9715 26.0286 82.3185C28.7526 80.7515 31.5516 79.3125 34.3446 77.8695C39.3156 75.3015 44.6036 73.2315 47.7816 68.1325C48.8966 66.3425 49.4736 64.4635 49.7906 62.4195C46.0576 66.2425 44.3036 67.3305 39.0246 69.2325ZM53.3796 95.0415C50.4926 98.3975 47.4636 101.636 44.4006 104.834C42.3306 106.994 39.9766 108.889 37.9856 111.114C35.5916 113.791 33.5256 116.758 31.1806 119.481C26.7456 124.631 22.8276 130.098 19.4936 136.053C16.3606 141.649 13.9566 147.505 12.5566 153.687C11.0896 160.161 10.2276 166.773 9.15562 173.334C8.99562 174.318 9.13362 175.351 9.13362 176.72C11.2606 172.112 13.1296 167.983 15.0756 163.891C15.8456 162.271 16.7776 160.727 17.6556 159.159C19.7396 155.437 21.7366 151.661 23.9576 148.022C25.7856 145.028 27.9076 142.213 29.8576 139.292C31.2326 137.232 32.3886 135.01 33.9076 133.067C36.9406 129.188 40.2036 125.536 42.6356 121.16C44.3526 118.07 46.5076 115.208 48.2986 112.105C50.7706 107.822 53.3836 103.674 54.8266 98.8835C55.6306 96.2155 56.0566 93.5255 56.1936 90.7335C55.1276 92.1335 54.4706 93.7745 53.3796 95.0415ZM45.9096 87.8055C39.2846 91.9225 32.6606 96.0335 25.6006 99.3885C21.6226 101.278 18.1146 103.888 14.7826 106.735C13.9526 107.445 13.2566 108.309 12.4626 109.064C9.99962 111.408 8.63862 114.48 6.97262 117.348C5.80562 119.355 5.02862 121.503 4.88562 124.056C7.71262 121.45 10.2656 119.09 12.8266 116.739C14.4626 115.238 16.0516 113.678 17.7686 112.276C19.6736 110.72 21.6486 109.236 23.6876 107.861C25.7446 106.475 27.9326 105.284 30.0346 103.963C31.3296 103.15 32.5486 102.217 33.8426 101.401C35.5796 100.306 37.4786 99.4825 39.1926 98.3515C43.6686 95.3975 47.5326 92.1665 51.2966 88.3875C52.6926 86.9865 53.6606 85.0435 54.2556 82.7715C51.2826 84.5625 48.5746 86.1495 45.9096 87.8055ZM161.63 19.2705C156.6 21.9705 151.485 24.3945 146.78 27.8105C140.428 32.4225 134.486 37.4335 128.861 42.8425C124.728 46.8165 120.411 50.5755 115.685 53.7695C111.168 56.8225 106.48 59.6375 101.285 61.5635C97.4156 62.9985 93.4026 63.8765 89.4126 64.3555C85.0226 64.8825 80.5056 64.4225 76.0476 64.2875C71.1876 64.1405 67.0256 61.7015 62.6746 59.9425C60.8606 59.2105 59.1226 58.2255 57.4746 57.1625C56.1886 56.3325 54.9426 55.4495 53.7406 54.5165C54.6736 55.7185 55.5556 56.9645 56.3856 58.2505C57.4486 59.8985 58.4336 61.6375 59.1666 63.4505C60.9246 67.8025 63.3636 71.9635 63.5106 76.8245C63.6466 81.2825 64.1056 85.7985 63.5786 90.1885C63.0996 94.1795 62.2216 98.1915 60.7876 102.062C58.8606 107.256 56.0456 111.944 52.9926 116.461C49.7986 121.188 46.0406 125.504 42.0666 129.638C36.6576 135.263 31.6466 141.204 27.0336 147.557C23.6176 152.262 21.1946 157.377 18.4946 162.406C17.2036 164.81 15.7886 167.166 14.7236 169.669C11.2636 177.799 11.2096 188.332 6.68162 195.65C5.33362 193.919 5.51862 192.304 5.23962 190.116C4.97062 188.001 5.00562 185.85 4.77262 183.73C3.91162 175.914 4.40162 168.152 5.23962 160.356C5.93462 153.895 8.14762 148.068 11.0426 142.34C20.0516 124.511 35.1986 112.344 47.8986 97.6635C40.6506 103.349 27.5816 108.183 23.4046 110.645C20.1156 112.584 17.5516 115.363 14.6286 117.723C14.2956 117.992 14.0286 118.349 13.6796 118.59C9.81462 121.268 6.97262 124.917 4.14662 128.584C3.30762 129.672 2.40662 130.678 0.802618 131.075C0.556618 130.397 0.164618 129.791 0.141618 129.17C0.0276177 126.201 -0.207382 123.213 1.10262 120.381C1.64062 119.217 2.07762 117.997 2.46162 116.768C7.75562 99.8175 29.1586 93.5135 43.4526 86.5425C47.0736 84.7765 50.5016 82.6655 53.6856 80.1805C53.8816 80.0275 54.1026 79.8365 54.1836 79.6165C55.2236 76.8155 56.8436 74.1325 55.4536 70.9285C54.4776 68.6775 53.7246 66.3305 52.8716 64.0255C52.6606 64.0315 52.4506 64.0375 52.2406 64.0425C51.8206 65.1875 51.4626 66.3605 50.9696 67.4735C47.8346 74.5595 39.3076 77.8255 32.9016 81.2245C29.1276 83.2275 25.1766 84.8905 21.6426 87.3595C19.4816 88.8685 17.1176 90.0835 14.8686 91.4685C11.6866 93.4275 9.29762 96.2765 6.82962 98.9845C5.71562 100.208 5.18062 101.957 4.37762 103.463C3.97562 104.216 3.64762 105.034 3.11762 105.685C2.74462 106.144 2.08762 106.372 1.55662 106.703C1.27462 106.219 0.917618 105.763 0.723618 105.246C-0.498382 101.979 0.108618 98.6495 0.515618 95.3505C0.745618 93.4845 1.21062 91.6455 1.60362 89.8015C2.36162 86.2415 6.63462 82.0355 9.49362 79.8955C12.9126 77.3345 16.3776 74.8365 20.5036 73.4275C29.6126 70.3155 42.5176 68.5925 48.2586 60.2355C48.5496 59.8125 48.7966 59.3575 49.2846 58.5505C42.8836 50.8095 36.0026 43.9845 26.0666 40.8535C20.1336 38.9835 13.1616 39.2995 8.29662 43.1765C3.43262 47.0525 1.77962 55.0005 5.86162 59.6935C7.98562 62.1355 11.6396 63.3775 14.6136 62.1015C17.5876 60.8245 19.1646 56.7185 17.3216 54.0585C18.5796 56.1955 15.6646 59.0785 13.3916 58.0855C11.1186 57.0945 10.8396 53.5185 12.6926 51.8695C14.5456 50.2215 17.6566 50.5805 19.4456 52.2965C22.6986 55.4175 21.0546 61.5945 16.9986 63.5615C12.9426 65.5285 7.80162 63.8375 4.75662 60.5135C-0.994382 54.2335 0.910618 42.7085 8.37762 38.6135C11.0736 37.1355 14.1886 36.5755 17.2606 36.4505C24.5296 36.1545 30.4586 38.8105 37.1396 41.0555C40.2626 42.1045 42.8066 44.1075 45.3046 46.0815C43.3316 43.5825 41.3286 41.0385 40.2786 37.9165C38.0346 31.2345 35.3786 25.3055 35.6746 18.0375C35.7996 14.9645 36.3586 11.8505 37.8376 9.15353C41.9316 1.68753 53.4576 -0.218461 59.7366 5.53354C63.0616 8.57854 64.7526 13.7185 62.7856 17.7745C60.8176 21.8315 54.6416 23.4755 51.5206 20.2225C49.8036 18.4335 49.4446 15.3215 51.0936 13.4685C52.7416 11.6155 56.3176 11.8955 57.3096 14.1675C58.3016 16.4405 55.4186 19.3555 53.2816 18.0985C55.9426 19.9405 60.0486 18.3635 61.3246 15.3895C62.6016 12.4165 61.3586 8.76153 58.9176 6.63753C54.2236 2.55553 46.2766 4.20953 42.3996 9.07353C38.5226 13.9375 38.2076 20.9105 40.0766 26.8425C43.2086 36.7785 50.0326 43.6605 57.7746 50.0615C58.5806 49.5725 59.0356 49.3265 59.4596 49.0355C67.8156 43.2935 69.5396 30.3895 72.6516 21.2795C74.0606 17.1545 76.5586 13.6885 79.1186 10.2705C81.2586 7.41154 85.4646 3.13853 89.0246 2.37953C90.8686 1.98653 92.7076 1.52153 94.5746 1.29153C97.8726 0.884534 101.203 0.277534 104.469 1.50053C104.986 1.69353 105.442 2.05053 105.926 2.33253C105.595 2.86353 105.367 3.52053 104.908 3.89453C104.257 4.42353 103.44 4.75153 102.687 5.15353C101.18 5.95753 99.4306 6.49153 98.2086 7.60553C95.4996 10.0735 92.6506 12.4625 90.6926 15.6445C89.3076 17.8945 88.0916 20.2575 86.5826 22.4185C84.1136 25.9535 82.4516 29.9035 80.4476 33.6785C77.0486 40.0835 73.7826 48.6105 66.6976 51.7465C65.5836 52.2395 64.4116 52.5975 63.2666 53.0165C63.2606 53.2275 63.2546 53.4375 63.2496 53.6475C65.5536 54.5005 67.9016 55.2535 70.1516 56.2295C73.3566 57.6205 76.0396 56.0005 78.8396 54.9605C79.0606 54.8785 79.2516 54.6585 79.4046 54.4625C81.8896 51.2785 84.0006 47.8495 85.7656 44.2295C92.7366 29.9355 99.0416 8.53253 115.992 3.23753C117.22 2.85353 118.441 2.41654 119.605 1.87854C122.437 0.56954 125.425 0.804526 128.394 0.917526C129.015 0.940526 129.621 1.33354 130.298 1.57854C129.901 3.18354 128.896 4.08353 127.807 4.92253C124.141 7.74853 120.491 10.5905 117.814 14.4555C117.572 14.8045 117.215 15.0715 116.946 15.4055C114.587 18.3285 111.808 20.8925 109.869 24.1815C107.406 28.3575 102.572 41.4275 96.8876 48.6745C111.567 35.9745 123.734 20.8285 141.564 11.8185C147.292 8.92353 153.118 6.71054 159.58 6.01654C167.376 5.17854 175.137 4.68754 182.953 5.54854C185.073 5.78254 187.225 5.74754 189.339 6.01654C191.527 6.29454 193.143 6.10953 194.873 7.45853C187.555 11.9855 177.022 12.0405 168.892 15.5005C166.39 16.5655 164.033 17.9795 161.63 19.2705Z" fill="#D85858"/>
<path fill-rule="evenodd" clip-rule="evenodd" d="M200.089 53.8726C196.915 57.8856 193.271 61.6596 189.286 64.8556C186.131 67.3866 182.316 69.3466 178.495 70.7406C171.176 73.4116 163.691 75.4786 155.716 75.4536C145.717 75.4216 136.541 72.8166 128.4 67.1636C124.897 64.7306 121.497 62.1446 118.143 59.4966C118.889 57.9956 134.837 64.9676 144.3 66.7066C158.599 69.3336 172.16 68.5076 185.068 60.6936C191.786 56.6266 197.46 51.8646 201.829 45.4376C202.078 45.0726 202.334 44.7096 202.553 44.3226C208.115 34.3956 198.904 20.2036 187.69 28.0376C185.187 29.7856 183.4 33.0136 184.384 35.9026C185.369 38.7926 189.927 39.9936 191.58 37.4266C192.544 35.9286 192.193 33.5286 191.609 31.9606C195.796 32.7006 194.87 38.1156 191.864 40.0396C188.425 42.2396 182.985 40.5916 181.377 36.8616C178.278 29.6746 183.276 21.4906 191.057 21.4006C196.084 21.3416 200.578 23.0126 203.78 27.2326C205.355 29.3076 206.145 31.8316 206.355 34.5266C206.889 41.3756 203.68 49.3336 200.089 53.8726Z" fill="#D85858"/>
<path fill-rule="evenodd" clip-rule="evenodd" d="M36.4 187.964C40.129 189.572 41.777 195.012 39.577 198.451C37.653 201.457 32.237 202.383 31.498 198.196C33.066 198.78 35.466 199.131 36.964 198.167C39.53 196.514 38.33 191.956 35.44 190.971C32.551 189.986 29.323 191.774 27.575 194.277C19.741 205.492 33.933 214.702 43.859 209.14C44.247 208.921 44.609 208.665 44.975 208.417C51.402 204.046 56.165 198.373 60.232 191.654C68.045 178.747 68.871 165.186 66.244 150.887C64.505 141.424 57.533 125.476 59.034 124.73C61.682 128.084 64.268 131.484 66.701 134.987C72.354 143.128 74.959 152.304 74.991 162.303C75.016 170.278 72.949 177.763 70.278 185.082C68.884 188.903 66.924 192.718 64.393 195.873C61.196 199.858 57.422 203.502 53.41 206.676C48.87 210.268 40.913 213.476 34.065 212.942C31.369 212.732 28.845 211.942 26.77 210.367C22.55 207.165 20.879 202.671 20.938 197.644C21.028 189.863 29.212 184.865 36.4 187.964Z" fill="#D85858"/>
</g>
<g clip-path="url(#clip1_64_155)">
<path fill-rule="evenodd" clip-rule="evenodd" d="M1425.18 82.5626C1428.66 78.8996 1431.64 74.6456 1435.48 70.7166C1433.54 69.4716 1423.51 76.9956 1420.24 80.8636C1417.39 84.2426 1413.61 86.8636 1410.09 89.6436C1406.79 92.2546 1403.32 94.6406 1399.91 97.1166C1398.09 98.4426 1396.28 99.8006 1394.41 101.055C1391.33 103.116 1388.58 105.563 1385.75 107.944C1382.61 110.589 1379.79 113.421 1377.88 117.032C1377.2 118.304 1376.82 119.867 1376.78 121.311C1376.69 124.543 1379.84 127.382 1382.89 126.673C1386.23 125.896 1389.52 124.688 1391.96 122.118C1396.56 117.287 1401.3 112.591 1405.36 107.248C1410.7 100.245 1416.37 93.5076 1421.9 86.6526C1423 85.2916 1423.98 83.8236 1425.18 82.5626Z" fill="#D85858"/>
<path fill-rule="evenodd" clip-rule="evenodd" d="M1379.67 90.9686C1378.13 92.7906 1378.11 94.5396 1379.09 96.5686C1380.02 98.4976 1381.65 99.2916 1383.58 99.2046C1385.65 99.1126 1387.81 98.9386 1389.73 98.2426C1394.17 96.6276 1398.58 94.9516 1402.36 91.8466C1406.32 88.5986 1410.7 85.8646 1414.83 82.8126C1418.13 80.3646 1421.35 77.7886 1424.58 75.2396C1425.46 74.5426 1428.09 71.9016 1429.03 71.0526C1427.5 68.7716 1413.36 77.4576 1407.62 78.9326C1400.9 80.6636 1394.04 82.0396 1387.79 85.2476C1384.84 86.7646 1381.89 88.3286 1379.67 90.9686Z" fill="#D85858"/>
<path fill-rule="evenodd" clip-rule="evenodd" d="M1435 73.8746C1434.15 74.8116 1431.51 77.4386 1430.81 78.3216C1428.26 81.5526 1425.69 84.7656 1423.24 88.0726C1420.19 92.1976 1417.45 96.5756 1414.2 100.536C1411.1 104.322 1409.42 108.725 1407.81 113.171C1407.11 115.089 1406.94 117.253 1406.85 119.319C1406.76 121.252 1407.55 122.879 1409.48 123.813C1411.51 124.794 1413.26 124.765 1415.08 123.23C1417.72 121.005 1419.29 118.062 1420.8 115.108C1424.01 108.863 1425.39 102.002 1427.12 95.2756C1428.59 89.5416 1437.28 75.4006 1435 73.8746Z" fill="#D85858"/>
<path fill-rule="evenodd" clip-rule="evenodd" d="M1430.78 122.574C1432.25 121.906 1433.43 120.797 1434.15 119.331C1435.45 116.674 1435.69 113.78 1436.08 110.888C1436.46 108.038 1435.97 87.0745 1434.94 86.7495C1432.49 92.6616 1428.91 99.7185 1426.48 105.849C1424.73 110.262 1424.72 114.836 1425.83 119.418C1426.31 121.397 1429.22 123.284 1430.78 122.574Z" fill="#D85858"/>
<path fill-rule="evenodd" clip-rule="evenodd" d="M1399.94 79.3106C1406.07 76.8826 1413.13 73.2986 1419.04 70.8526C1418.72 69.8216 1397.75 69.3336 1394.9 69.7166C1392.01 70.1056 1389.12 70.3436 1386.46 71.6476C1384.99 72.3676 1383.89 73.5416 1383.22 75.0136C1382.51 76.5776 1384.39 79.4796 1386.37 79.9596C1390.96 81.0716 1395.53 81.0586 1399.94 79.3106Z" fill="#D85858"/>
<path fill-rule="evenodd" clip-rule="evenodd" d="M1337.58 45.7796C1335.98 46.1246 1334.62 46.9976 1333.62 48.2646C1332.55 49.6116 1333.69 52.8826 1335.49 53.8266C1339.67 56.0086 1344.11 57.0986 1348.82 56.4656C1355.35 55.5866 1363.06 53.8096 1369.39 52.8596C1369.32 51.7806 1349.1 46.2556 1346.24 45.9406C1343.34 45.6206 1340.47 45.1546 1337.58 45.7796Z" fill="#D85858"/>
<path fill-rule="evenodd" clip-rule="evenodd" d="M1448.82 173.209C1450.17 174.275 1453.44 173.144 1454.38 171.338C1456.56 167.159 1457.65 162.717 1457.02 158.013C1456.14 151.479 1454.36 143.766 1453.41 137.438C1452.34 137.505 1446.81 157.733 1446.5 160.591C1446.18 163.492 1445.71 166.358 1446.33 169.251C1446.68 170.847 1447.55 172.207 1448.82 173.209Z" fill="#D85858"/>
<path fill-rule="evenodd" clip-rule="evenodd" d="M1331.44 9.93254C1338 11.0035 1344.62 11.8665 1351.09 13.3325C1357.27 14.7335 1363.13 17.1375 1368.72 20.2705C1374.68 23.6045 1380.15 27.5215 1385.3 31.9575C1388.02 34.3025 1390.99 36.3685 1393.66 38.7625C1395.89 40.7525 1397.78 43.1065 1399.94 45.1765C1403.14 48.2405 1406.38 51.2695 1409.73 54.1565C1411 55.2475 1412.64 55.9035 1414.04 56.9705C1411.25 56.8335 1408.56 56.4065 1405.89 55.6035C1401.1 54.1605 1396.95 51.5465 1392.67 49.0755C1389.57 47.2845 1386.71 45.1285 1383.62 43.4115C1379.24 40.9795 1375.59 37.7175 1371.71 34.6845C1369.77 33.1655 1367.54 32.0085 1365.49 30.6345C1362.56 28.6835 1359.75 26.5625 1356.75 24.7335C1353.12 22.5125 1349.34 20.5165 1345.62 18.4325C1344.05 17.5545 1342.51 16.6225 1340.89 15.8515C1336.79 13.9055 1332.66 12.0375 1328.06 9.91054C1329.43 9.91054 1330.46 9.77154 1331.44 9.93254ZM1406.43 39.9695C1405.29 38.2545 1404.47 36.3565 1403.38 34.6195C1402.56 33.3255 1401.63 32.1055 1400.81 30.8115C1399.49 28.7085 1398.3 26.5205 1396.92 24.4645C1395.54 22.4245 1394.06 20.4505 1392.5 18.5445C1391.1 16.8285 1389.54 15.2385 1388.04 13.6035C1385.69 11.0415 1383.33 8.48854 1380.72 5.66254C1383.27 5.80554 1385.42 6.58254 1387.43 7.74854C1390.3 9.41554 1393.37 10.7755 1395.71 13.2395C1396.47 14.0335 1397.33 14.7295 1398.04 15.5595C1400.89 18.8915 1403.5 22.3985 1405.39 26.3765C1408.74 33.4375 1412.85 40.0615 1416.97 46.6855C1418.63 49.3515 1420.21 52.0585 1422.01 55.0325C1419.73 54.4365 1417.79 53.4685 1416.39 52.0735C1412.61 48.3085 1409.38 44.4445 1406.43 39.9695ZM1436.64 48.5575C1431.54 45.3795 1429.48 40.0915 1426.91 35.1215C1425.46 32.3285 1424.03 29.5285 1422.46 26.8045C1420.81 23.9325 1418.97 21.1665 1417.27 18.3185C1415.43 15.2255 1413.06 12.5625 1410.63 9.95253C1409.48 8.72153 1408.27 7.54553 1406.65 5.90953C1407.4 6.66653 1410.19 6.61553 1411.24 6.92253C1412.45 7.27553 1413.42 7.80553 1414.51 8.41353C1416.85 9.72553 1419.48 11.0115 1420.98 13.3445C1423.56 17.3645 1426.74 21.0165 1428.49 25.5645C1430.39 30.5005 1433.73 34.7595 1435.54 39.8005C1437.45 45.0805 1438.53 46.8335 1442.36 50.5665C1440.31 50.2505 1438.43 49.6735 1436.64 48.5575ZM1464.98 69.2325C1470.02 71.0495 1474.28 74.3905 1479.21 76.2895C1483.76 78.0395 1487.41 81.2195 1491.43 83.7955C1493.77 85.2915 1495.05 87.9275 1496.36 90.2705C1496.97 91.3555 1497.5 92.3265 1497.85 93.5365C1498.16 94.5905 1498.11 97.3775 1498.87 98.1235C1497.23 96.5105 1496.06 95.2995 1494.82 94.1495C1492.21 91.7115 1489.55 89.3425 1486.46 87.5015C1483.61 85.8065 1480.84 83.9715 1477.97 82.3185C1475.25 80.7515 1472.45 79.3125 1469.66 77.8695C1464.68 75.3015 1459.4 73.2315 1456.22 68.1325C1455.1 66.3425 1454.53 64.4635 1454.21 62.4195C1457.94 66.2425 1459.7 67.3305 1464.98 69.2325ZM1450.62 95.0415C1453.51 98.3975 1456.54 101.636 1459.6 104.834C1461.67 106.994 1464.02 108.889 1466.01 111.114C1468.41 113.791 1470.47 116.758 1472.82 119.481C1477.25 124.631 1481.17 130.098 1484.51 136.053C1487.64 141.649 1490.04 147.505 1491.44 153.687C1492.91 160.161 1493.77 166.773 1494.84 173.334C1495 174.318 1494.87 175.351 1494.87 176.72C1492.74 172.112 1490.87 167.983 1488.92 163.891C1488.15 162.271 1487.22 160.727 1486.34 159.159C1484.26 155.437 1482.26 151.661 1480.04 148.022C1478.21 145.028 1476.09 142.213 1474.14 139.292C1472.77 137.232 1471.61 135.01 1470.09 133.067C1467.06 129.188 1463.8 125.536 1461.36 121.16C1459.65 118.07 1457.49 115.208 1455.7 112.105C1453.23 107.822 1450.62 103.674 1449.17 98.8835C1448.37 96.2155 1447.94 93.5255 1447.81 90.7335C1448.87 92.1335 1449.53 93.7745 1450.62 95.0415ZM1458.09 87.8055C1464.72 91.9225 1471.34 96.0335 1478.4 99.3885C1482.38 101.278 1485.89 103.888 1489.22 106.735C1490.05 107.445 1490.74 108.309 1491.54 109.064C1494 111.408 1495.36 114.48 1497.03 117.348C1498.19 119.355 1498.97 121.503 1499.11 124.056C1496.29 121.45 1493.73 119.09 1491.17 116.739C1489.54 115.238 1487.95 113.678 1486.23 112.276C1484.33 110.72 1482.35 109.236 1480.31 107.861C1478.26 106.475 1476.07 105.284 1473.97 103.963C1472.67 103.15 1471.45 102.217 1470.16 101.401C1468.42 100.306 1466.52 99.4825 1464.81 98.3515C1460.33 95.3975 1456.47 92.1665 1452.7 88.3875C1451.31 86.9865 1450.34 85.0435 1449.74 82.7715C1452.72 84.5625 1455.43 86.1495 1458.09 87.8055ZM1342.37 19.2705C1347.4 21.9705 1352.52 24.3945 1357.22 27.8105C1363.57 32.4225 1369.51 37.4335 1375.14 42.8425C1379.27 46.8165 1383.59 50.5755 1388.32 53.7695C1392.83 56.8225 1397.52 59.6375 1402.72 61.5635C1406.58 62.9985 1410.6 63.8765 1414.59 64.3555C1418.98 64.8825 1423.49 64.4225 1427.95 64.2875C1432.81 64.1405 1436.97 61.7015 1441.33 59.9425C1443.14 59.2105 1444.88 58.2255 1446.53 57.1625C1447.81 56.3325 1449.06 55.4495 1450.26 54.5165C1449.33 55.7185 1448.44 56.9645 1447.61 58.2505C1446.55 59.8985 1445.57 61.6375 1444.83 63.4505C1443.08 67.8025 1440.64 71.9635 1440.49 76.8245C1440.35 81.2825 1439.89 85.7985 1440.42 90.1885C1440.9 94.1795 1441.78 98.1915 1443.21 102.062C1445.14 107.256 1447.95 111.944 1451.01 116.461C1454.2 121.188 1457.96 125.504 1461.93 129.638C1467.34 135.263 1472.35 141.204 1476.97 147.557C1480.38 152.262 1482.81 157.377 1485.51 162.406C1486.8 164.81 1488.21 167.166 1489.28 169.669C1492.74 177.799 1492.79 188.332 1497.32 195.65C1498.67 193.919 1498.48 192.304 1498.76 190.116C1499.03 188.001 1498.99 185.85 1499.23 183.73C1500.09 175.914 1499.6 168.152 1498.76 160.356C1498.07 153.895 1495.85 148.068 1492.96 142.34C1483.95 124.511 1468.8 112.344 1456.1 97.6635C1463.35 103.349 1476.42 108.183 1480.6 110.645C1483.88 112.584 1486.45 115.363 1489.37 117.723C1489.7 117.992 1489.97 118.349 1490.32 118.59C1494.19 121.268 1497.03 124.917 1499.85 128.584C1500.69 129.672 1501.59 130.678 1503.2 131.075C1503.44 130.397 1503.84 129.791 1503.86 129.17C1503.97 126.201 1504.21 123.213 1502.9 120.381C1502.36 119.217 1501.92 117.997 1501.54 116.768C1496.24 99.8175 1474.84 93.5135 1460.55 86.5425C1456.93 84.7765 1453.5 82.6655 1450.31 80.1805C1450.12 80.0275 1449.9 79.8365 1449.82 79.6165C1448.78 76.8155 1447.16 74.1325 1448.55 70.9285C1449.52 68.6775 1450.28 66.3305 1451.13 64.0255C1451.34 64.0315 1451.55 64.0375 1451.76 64.0425C1452.18 65.1875 1452.54 66.3605 1453.03 67.4735C1456.17 74.5595 1464.69 77.8255 1471.1 81.2245C1474.87 83.2275 1478.82 84.8905 1482.36 87.3595C1484.52 88.8685 1486.88 90.0835 1489.13 91.4685C1492.31 93.4275 1494.7 96.2765 1497.17 98.9845C1498.28 100.208 1498.82 101.957 1499.62 103.463C1500.02 104.216 1500.35 105.034 1500.88 105.685C1501.26 106.144 1501.91 106.372 1502.44 106.703C1502.73 106.219 1503.08 105.763 1503.28 105.246C1504.5 101.979 1503.89 98.6495 1503.48 95.3505C1503.25 93.4845 1502.79 91.6455 1502.4 89.8015C1501.64 86.2415 1497.37 82.0355 1494.51 79.8955C1491.09 77.3345 1487.62 74.8365 1483.5 73.4275C1474.39 70.3155 1461.48 68.5925 1455.74 60.2355C1455.45 59.8125 1455.2 59.3575 1454.72 58.5505C1461.12 50.8095 1468 43.9845 1477.93 40.8535C1483.87 38.9835 1490.84 39.2995 1495.7 43.1765C1500.57 47.0525 1502.22 55.0005 1498.14 59.6935C1496.01 62.1355 1492.36 63.3775 1489.39 62.1015C1486.41 60.8245 1484.84 56.7185 1486.68 54.0585C1485.42 56.1955 1488.34 59.0785 1490.61 58.0855C1492.88 57.0945 1493.16 53.5185 1491.31 51.8695C1489.45 50.2215 1486.34 50.5805 1484.55 52.2965C1481.3 55.4175 1482.95 61.5945 1487 63.5615C1491.06 65.5285 1496.2 63.8375 1499.24 60.5135C1504.99 54.2335 1503.09 42.7085 1495.62 38.6135C1492.93 37.1355 1489.81 36.5755 1486.74 36.4505C1479.47 36.1545 1473.54 38.8105 1466.86 41.0555C1463.74 42.1045 1461.19 44.1075 1458.7 46.0815C1460.67 43.5825 1462.67 41.0385 1463.72 37.9165C1465.97 31.2345 1468.62 25.3055 1468.33 18.0375C1468.2 14.9645 1467.64 11.8505 1466.16 9.15353C1462.07 1.68753 1450.54 -0.218461 1444.26 5.53354C1440.94 8.57854 1439.25 13.7185 1441.21 17.7745C1443.18 21.8315 1449.36 23.4755 1452.48 20.2225C1454.2 18.4335 1454.56 15.3215 1452.91 13.4685C1451.26 11.6155 1447.68 11.8955 1446.69 14.1675C1445.7 16.4405 1448.58 19.3555 1450.72 18.0985C1448.06 19.9405 1443.95 18.3635 1442.68 15.3895C1441.4 12.4165 1442.64 8.76153 1445.08 6.63753C1449.78 2.55553 1457.72 4.20953 1461.6 9.07353C1465.48 13.9375 1465.79 20.9105 1463.92 26.8425C1460.79 36.7785 1453.97 43.6605 1446.23 50.0615C1445.42 49.5725 1444.96 49.3265 1444.54 49.0355C1436.18 43.2935 1434.46 30.3895 1431.35 21.2795C1429.94 17.1545 1427.44 13.6885 1424.88 10.2705C1422.74 7.41154 1418.54 3.13853 1414.98 2.37953C1413.13 1.98653 1411.29 1.52153 1409.43 1.29153C1406.13 0.884534 1402.8 0.277534 1399.53 1.50053C1399.01 1.69353 1398.56 2.05053 1398.07 2.33253C1398.41 2.86353 1398.63 3.52053 1399.09 3.89453C1399.74 4.42353 1400.56 4.75153 1401.31 5.15353C1402.82 5.95753 1404.57 6.49153 1405.79 7.60553C1408.5 10.0735 1411.35 12.4625 1413.31 15.6445C1414.69 17.8945 1415.91 20.2575 1417.42 22.4185C1419.89 25.9535 1421.55 29.9035 1423.55 33.6785C1426.95 40.0835 1430.22 48.6105 1437.3 51.7465C1438.42 52.2395 1439.59 52.5975 1440.73 53.0165C1440.74 53.2275 1440.75 53.4375 1440.75 53.6475C1438.45 54.5005 1436.1 55.2535 1433.85 56.2295C1430.64 57.6205 1427.96 56.0005 1425.16 54.9605C1424.94 54.8785 1424.75 54.6585 1424.6 54.4625C1422.11 51.2785 1420 47.8495 1418.23 44.2295C1411.26 29.9355 1404.96 8.53253 1388.01 3.23753C1386.78 2.85353 1385.56 2.41654 1384.4 1.87854C1381.56 0.56954 1378.58 0.804526 1375.61 0.917526C1374.99 0.940526 1374.38 1.33354 1373.7 1.57854C1374.1 3.18354 1375.1 4.08353 1376.19 4.92253C1379.86 7.74853 1383.51 10.5905 1386.19 14.4555C1386.43 14.8045 1386.79 15.0715 1387.05 15.4055C1389.41 18.3285 1392.19 20.8925 1394.13 24.1815C1396.59 28.3575 1401.43 41.4275 1407.11 48.6745C1392.43 35.9745 1380.27 20.8285 1362.44 11.8185C1356.71 8.92353 1350.88 6.71054 1344.42 6.01654C1336.62 5.17854 1328.86 4.68754 1321.05 5.54854C1318.93 5.78254 1316.78 5.74754 1314.66 6.01654C1312.47 6.29454 1310.86 6.10953 1309.13 7.45853C1316.45 11.9855 1326.98 12.0405 1335.11 15.5005C1337.61 16.5655 1339.97 17.9795 1342.37 19.2705Z" fill="#D85858"/>
<path fill-rule="evenodd" clip-rule="evenodd" d="M1303.91 53.8726C1307.09 57.8856 1310.73 61.6596 1314.71 64.8556C1317.87 67.3866 1321.68 69.3466 1325.51 70.7406C1332.82 73.4116 1340.31 75.4786 1348.28 75.4536C1358.28 75.4216 1367.46 72.8166 1375.6 67.1636C1379.1 64.7306 1382.5 62.1446 1385.86 59.4966C1385.11 57.9956 1369.16 64.9676 1359.7 66.7066C1345.4 69.3336 1331.84 68.5076 1318.93 60.6936C1312.21 56.6266 1306.54 51.8646 1302.17 45.4376C1301.92 45.0726 1301.67 44.7096 1301.45 44.3226C1295.89 34.3956 1305.1 20.2036 1316.31 28.0376C1318.81 29.7856 1320.6 33.0136 1319.62 35.9026C1318.63 38.7926 1314.07 39.9936 1312.42 37.4266C1311.46 35.9286 1311.81 33.5286 1312.39 31.9606C1308.2 32.7006 1309.13 38.1156 1312.14 40.0396C1315.58 42.2396 1321.02 40.5916 1322.62 36.8616C1325.72 29.6746 1320.72 21.4906 1312.94 21.4006C1307.92 21.3416 1303.42 23.0126 1300.22 27.2326C1298.65 29.3076 1297.86 31.8316 1297.65 34.5266C1297.11 41.3756 1300.32 49.3336 1303.91 53.8726Z" fill="#D85858"/>
<path fill-rule="evenodd" clip-rule="evenodd" d="M1467.6 187.964C1463.87 189.572 1462.22 195.012 1464.42 198.451C1466.35 201.457 1471.76 202.383 1472.5 198.196C1470.93 198.78 1468.53 199.131 1467.04 198.167C1464.47 196.514 1465.67 191.956 1468.56 190.971C1471.45 189.986 1474.68 191.774 1476.42 194.277C1484.26 205.492 1470.07 214.702 1460.14 209.14C1459.75 208.921 1459.39 208.665 1459.02 208.417C1452.6 204.046 1447.83 198.373 1443.77 191.654C1435.95 178.747 1435.13 165.186 1437.76 150.887C1439.49 141.424 1446.47 125.476 1444.97 124.73C1442.32 128.084 1439.73 131.484 1437.3 134.987C1431.65 143.128 1429.04 152.304 1429.01 162.303C1428.98 170.278 1431.05 177.763 1433.72 185.082C1435.12 188.903 1437.08 192.718 1439.61 195.873C1442.8 199.858 1446.58 203.502 1450.59 206.676C1455.13 210.268 1463.09 213.476 1469.93 212.942C1472.63 212.732 1475.15 211.942 1477.23 210.367C1481.45 207.165 1483.12 202.671 1483.06 197.644C1482.97 189.863 1474.79 184.865 1467.6 187.964Z" fill="#D85858"/>
</g>
<g clip-path="url(#clip2_64_155)">
<path fill-rule="evenodd" clip-rule="evenodd" d="M1273.06 25.9115C1272.99 25.2815 1273.04 24.6749 1273.16 24.0449C1269.47 24.1149 1265.67 24.0916 1261.73 23.9282C1259.62 23.8582 1158.04 25.2349 1114.07 25.4449C1090.83 25.5382 1067.57 25.0016 1044.32 25.0249C991.732 25.0949 939.117 25.7249 886.564 25.3982C781.399 24.7682 676.281 23.0182 571.126 22.9016C458.224 22.7616 232.281 24.3016 232.088 24.3016C231.998 24.3016 231.614 24.2549 231 24.2316C231.706 25.4216 232.142 26.6583 232.278 27.9416C232.304 28.1749 232.307 28.4316 232.304 28.6649C234.65 28.7116 236.702 28.7349 238.266 28.7116C316.65 28.2449 395.024 27.5449 473.421 27.2416C542.946 26.9616 612.499 26.8682 682.024 27.1016C731.936 27.2649 781.806 28.3849 831.717 28.6182C901.363 28.9682 971.031 28.9216 1040.69 28.9915C1081.13 29.0149 1121.56 28.9915 1162 28.8982C1190.39 28.8515 1260.8 27.7549 1261.7 27.7082C1265.74 27.5449 1269.64 27.4982 1273.41 27.5915C1273.24 27.0315 1273.12 26.4715 1273.06 25.9115Z" fill="#D85858"/>
<path fill-rule="evenodd" clip-rule="evenodd" d="M1273.06 14.9115C1272.99 14.2815 1273.04 13.6749 1273.16 13.0449C1269.47 13.1149 1265.67 13.0916 1261.73 12.9282C1259.62 12.8582 1158.04 14.2349 1114.07 14.4449C1090.83 14.5382 1067.57 14.0016 1044.32 14.0249C991.732 14.0949 939.117 14.7249 886.564 14.3982C781.399 13.7682 676.281 12.0182 571.126 11.9016C458.225 11.7616 232.281 13.3016 232.088 13.3016C231.998 13.2783 231.614 13.2549 231 13.2316C231.706 14.4216 232.142 15.6583 232.278 16.9183C232.304 17.1749 232.307 17.4316 232.304 17.6649C234.65 17.7116 236.702 17.7349 238.266 17.7116C316.65 17.2449 395.024 16.5449 473.421 16.2416C542.946 15.9616 612.499 15.8682 682.024 16.1016C731.936 16.2649 781.806 17.3849 831.717 17.6182C901.363 17.9682 971.031 17.9216 1040.69 17.9915C1081.13 18.0149 1121.56 17.9915 1162 17.8982C1190.39 17.8515 1260.8 16.7549 1261.7 16.7082C1265.74 16.5449 1269.64 16.4982 1273.41 16.5915C1273.24 16.0315 1273.12 15.4715 1273.06 14.9115Z" fill="#D85858"/>
</g>
<defs>
<clipPath id="clip0_64_155">
<rect width="207" height="213" fill="white" transform="matrix(1 0 0 -1 0 213)"/>
</clipPath>
<clipPath id="clip1_64_155">
<rect width="207" height="213" fill="white" transform="translate(1504 213) rotate(-180)"/>
</clipPath>
<clipPath id="clip2_64_155">
<rect width="18" height="1043" fill="white" transform="translate(231 29) rotate(-90)"/>
</clipPath>
</defs>
</svg>
